<?xml version="1.0" encoding="UTF-8"?>
<!DOCTYPE svg PUBLIC "-//W3C//DTD SVG 1.1//EN" "http://www.w3.org/Graphics/SVG/1.1/DTD/svg11.dtd">
<svg xmlns="http://www.w3.org/2000/svg" version="1.1" width="1024px" height="1536px" style="shape-rendering:geometricPrecision; text-rendering:geometricPrecision; image-rendering:optimizeQuality; fill-rule:evenodd; clip-rule:evenodd" xmlns:xlink="http://www.w3.org/1999/xlink">
<g><path style="opacity:1" fill="#f6ebd8" d="M -0.5,-0.5 C 340.833,-0.5 682.167,-0.5 1023.5,-0.5C 1023.5,511.5 1023.5,1023.5 1023.5,1535.5C 682.167,1535.5 340.833,1535.5 -0.5,1535.5C -0.5,1023.5 -0.5,511.5 -0.5,-0.5 Z"/></g>
<g><path style="opacity:1" fill="#150e04" d="M 738.5,1385.5 C 747.958,1399.04 753.125,1414.04 754,1430.5C 752.878,1432.62 751.378,1434.46 749.5,1436C 734.143,1445.34 717.476,1450.01 699.5,1450C 652.71,1460.08 610.71,1450.08 573.5,1420C 568.825,1416.34 565.325,1411.84 563,1406.5C 562.506,1397.12 563.006,1387.78 564.5,1378.5C 566.344,1371.33 568.011,1363.99 569.5,1356.5C 565.23,1354.45 561.397,1351.78 558,1348.5C 548.258,1307.28 534.925,1267.28 518,1228.5C 507.546,1204.92 496.546,1181.59 485,1158.5C 477.956,1156.13 470.79,1155.13 463.5,1155.5C 458.856,1174.56 455.689,1193.89 454,1213.5C 451.603,1253.48 450.936,1293.48 452,1333.5C 450.066,1336.54 447.233,1338.21 443.5,1338.5C 447.704,1351.19 450.371,1364.19 451.5,1377.5C 452.374,1385.15 452.541,1392.82 452,1400.5C 443.011,1408.41 432.511,1413.24 420.5,1415C 404.319,1425.51 386.652,1432.51 367.5,1436C 343.26,1439.81 318.927,1440.48 294.5,1438C 282.654,1434.41 270.654,1431.41 258.5,1429C 249.507,1426.42 241.673,1421.92 235,1415.5C 234.266,1410.97 234.933,1406.64 237,1402.5C 239.339,1397.15 242.172,1392.15 245.5,1387.5C 262.391,1363.28 284.391,1345.28 311.5,1333.5C 310.833,1332.17 309.833,1331.17 308.5,1330.5C 309.147,1300.82 306.314,1271.49 300,1242.5C 291.629,1204.35 282.629,1166.35 273,1128.5C 270.743,1117.88 268.743,1107.21 267,1096.5C 259.296,1092.48 252.296,1087.48 246,1081.5C 245.333,1080.17 244.667,1078.83 244,1077.5C 243.667,1072.5 243.333,1067.5 243,1062.5C 219.501,1072.04 199.167,1067.38 182,1048.5C 169.698,1032.87 169.531,1017.21 181.5,1001.5C 181.009,998.264 179.676,997.764 177.5,1000C 175.167,1000.67 172.833,1000.67 170.5,1000C 166.31,997.31 162.976,993.81 160.5,989.5C 156.002,988.898 151.668,987.731 147.5,986C 117.482,950.832 92.3155,912.332 72,870.5C 68.1385,861.779 65.1385,852.779 63,843.5C 62.3333,836.833 62.3333,830.167 63,823.5C 65.558,814.382 69.2247,805.715 74,797.5C 80.9275,785.976 88.5941,774.976 97,764.5C 134.869,723.633 172.369,682.466 209.5,641C 235.522,623.821 262.856,608.988 291.5,596.5C 288.185,590.226 286.518,583.56 286.5,576.5C 277.129,574.967 270.962,569.634 268,560.5C 266.53,556.622 265.697,552.622 265.5,548.5C 255.011,549.392 245.678,546.559 237.5,540C 212.713,516.784 207.213,489.617 221,458.5C 220.734,447.842 220.734,437.176 221,426.5C 222.31,417.381 226.143,409.547 232.5,403C 194.225,391.229 170.225,366.063 160.5,327.5C 160.736,323.429 162.736,320.596 166.5,319C 192.172,322.554 216.839,319.054 240.5,308.5C 166.968,284.76 143.801,236.427 171,163.5C 186.52,130.647 208.686,103.147 237.5,81C 241.674,78.4123 246.007,76.079 250.5,74C 259.672,72.3344 264.672,76.1677 265.5,85.5C 264.961,88.2482 264.128,90.9149 263,93.5C 253.852,108.8 247.185,125.133 243,142.5C 240.421,156.049 241.088,169.382 245,182.5C 249.278,190.111 255.445,195.611 263.5,199C 274.471,203.194 285.804,205.861 297.5,207C 312.142,208.48 326.809,209.147 341.5,209C 344.833,206.667 348.167,204.333 351.5,202C 338.421,185.52 333.921,167.02 338,146.5C 341.255,138.974 346.422,137.474 353.5,142C 362.27,153.39 373.604,157.39 387.5,154C 394.5,149 401.5,144 408.5,139C 418.081,134.084 428.081,130.251 438.5,127.5C 435.579,125.911 432.579,124.411 429.5,123C 423.91,117.286 424.244,111.953 430.5,107C 439.787,102.442 449.62,100.275 460,100.5C 518.202,104.204 556.036,133.87 573.5,189.5C 584.858,190.446 596.191,191.613 607.5,193C 612.132,194.116 616.632,195.616 621,197.5C 627.462,196.391 633.962,196.225 640.5,197C 643.395,199.199 646.561,200.699 650,201.5C 670.728,199.763 691.228,196.597 711.5,192C 739.934,185.333 751.434,167.5 746,138.5C 743.165,123.834 737.831,110.167 730,97.5C 725.504,91.8441 721.504,85.8441 718,79.5C 715.665,70.8108 718.832,65.8108 727.5,64.5C 740.459,67.3133 752.125,72.8133 762.5,81C 785.88,98.7085 805.38,119.875 821,144.5C 834.57,167.022 840.237,191.355 838,217.5C 834.836,244.005 822.336,264.838 800.5,280C 785.752,289.704 769.752,296.704 752.5,301C 774.169,308.889 796.502,311.889 819.5,310C 826.835,308.95 834.169,308.284 841.5,308C 843.667,308.833 845.167,310.333 846,312.5C 847.337,326.163 844.337,338.83 837,350.5C 810.707,392.899 772.54,413.066 722.5,411C 705.293,408.381 689.793,401.881 676,391.5C 675.333,393.833 675.333,396.167 676,398.5C 691.666,441.164 701,485.164 704,530.5C 712.603,540.435 720.437,550.935 727.5,562C 765.964,581.062 803.631,601.395 840.5,623C 851.643,634.073 857.143,647.573 857,663.5C 886.184,696.676 913.851,731.01 940,766.5C 953.855,785.204 964.855,805.538 973,827.5C 977.102,841.576 976.102,855.243 970,868.5C 960.231,886.262 948.898,902.929 936,918.5C 904.62,952.555 870.787,983.722 834.5,1012C 828.604,1014.22 822.938,1013.72 817.5,1010.5C 810.504,1017.33 802.17,1020.17 792.5,1019C 790.729,1016.89 789.229,1017.05 788,1019.5C 786.303,1021.7 784.803,1024.03 783.5,1026.5C 790.926,1037.14 791.426,1048.14 785,1059.5C 770.717,1078.14 751.717,1087.14 728,1086.5C 720.975,1085.96 714.142,1084.79 707.5,1083C 701.833,1085.83 696.167,1088.67 690.5,1091.5C 689.189,1097.45 690.022,1103.12 693,1108.5C 712.425,1139.97 740.592,1157.3 777.5,1160.5C 801.143,1160.8 820.643,1152.13 836,1134.5C 835.371,1128.94 833.704,1123.61 831,1118.5C 822.529,1072.29 840.696,1041.79 885.5,1027C 900.565,1023.59 915.565,1019.92 930.5,1016C 940.222,1012.61 947.889,1006.61 953.5,998C 959.663,994.958 964.163,996.458 967,1002.5C 973.418,1029.36 974.084,1056.36 969,1083.5C 956.225,1132.95 924.392,1156.12 873.5,1153C 863.81,1161.69 854.477,1170.69 845.5,1180C 809.519,1206.86 770.186,1212.86 727.5,1198C 712.499,1192.67 698.499,1185.5 685.5,1176.5C 684.335,1184.81 684.168,1193.15 685,1201.5C 687.983,1245.18 693.483,1288.51 701.5,1331.5C 701.333,1333.5 701.167,1335.5 701,1337.5C 698.65,1339.68 696.483,1342.02 694.5,1344.5C 711.753,1355.42 726.419,1369.09 738.5,1385.5 Z"/></g>
<g><path style="opacity:1" fill="#1d1f1e" d="M 670.5,1228.5 C 668.877,1225.4 667.543,1222.07 666.5,1218.5C 665.975,1217.81 665.308,1217.31 664.5,1217C 665.451,1216.28 665.617,1215.45 665,1214.5C 664.311,1215.36 663.478,1216.02 662.5,1216.5C 662.891,1215.28 662.224,1214.45 660.5,1214C 661.833,1213.67 663.167,1213.33 664.5,1213C 661.953,1212.65 659.619,1212.98 657.5,1214C 658.833,1213 658.833,1212 657.5,1211C 658.313,1209.12 659.647,1208.45 661.5,1209C 659.729,1209.54 659.396,1210.37 660.5,1211.5C 661.732,1210.86 663.065,1210.69 664.5,1211C 663.155,1208.68 662.822,1206.34 663.5,1204C 662.148,1200.13 660.648,1196.29 659,1192.5C 658.257,1190.56 658.424,1188.73 659.5,1187C 657.807,1185.29 656.474,1183.29 655.5,1181C 661.864,1180.02 661.531,1179.52 654.5,1179.5C 653.576,1175.27 653.576,1171.1 654.5,1167C 650.867,1164.41 649.867,1161.08 651.5,1157C 649.721,1153.94 648.054,1150.78 646.5,1147.5C 647.478,1146.2 647.145,1145.03 645.5,1144C 645.251,1138.24 643.251,1133.24 639.5,1129C 640.167,1128.67 640.833,1128.33 641.5,1128C 640.897,1126.17 640.23,1124.34 639.5,1122.5C 637.359,1122.11 635.359,1122.11 633.5,1122.5C 621.62,1126.51 609.954,1131.01 598.5,1136C 596.276,1139 593.276,1140.17 589.5,1139.5C 588.504,1139.41 587.671,1139.75 587,1140.5C 586.505,1142.47 586.338,1144.47 586.5,1146.5C 585.566,1145.43 585.232,1144.1 585.5,1142.5C 582.027,1142.58 578.694,1143.24 575.5,1144.5C 575.637,1151.63 574.97,1151.96 573.5,1145.5C 571.775,1146.01 570.108,1146.68 568.5,1147.5C 569.326,1148.45 569.492,1149.45 569,1150.5C 568.333,1149.17 567.667,1149.17 567,1150.5C 567.077,1149.26 566.911,1148.26 566.5,1147.5C 559.931,1149.7 553.431,1152.04 547,1154.5C 546.667,1153.83 546.333,1153.17 546,1152.5C 537.606,1155.95 529.44,1159.78 521.5,1164C 524.355,1166.34 524.022,1168.17 520.5,1169.5C 521.54,1172.22 520.54,1173.39 517.5,1173C 518.69,1170.88 520.023,1168.88 521.5,1167C 519.594,1165.01 518.427,1165.51 518,1168.5C 517.667,1167.83 517.333,1167.17 517,1166.5C 515.004,1167 513.337,1168 512,1169.5C 511.217,1165.97 509.717,1165.64 507.5,1168.5C 503.161,1160.34 498.161,1152.51 492.5,1145C 474.672,1141.06 456.672,1138.06 438.5,1136C 424.15,1132.94 410.15,1128.77 396.5,1123.5C 395.269,1124.65 395.269,1125.82 396.5,1127C 395.833,1127.33 395.167,1127.67 394.5,1128C 396.329,1128.27 397.829,1129.11 399,1130.5C 399.333,1130.17 399.667,1129.83 400,1129.5C 402.057,1132.01 404.39,1133.35 407,1133.5C 418.833,1140.5 431.333,1146 444.5,1150C 445.578,1150.67 446.245,1151.67 446.5,1153C 440.397,1181.03 437.064,1209.37 436.5,1238C 437.482,1266.44 437.982,1294.94 438,1323.5C 436.346,1326.23 433.846,1327.57 430.5,1327.5C 429.503,1327.53 428.836,1327.03 428.5,1326C 427.983,1323.92 427.316,1321.92 426.5,1320C 427.167,1319 427.833,1318 428.5,1317C 427.403,1312.93 426.57,1308.76 426,1304.5C 425.189,1305.96 424.355,1306.29 423.5,1305.5C 425.318,1304.18 426.318,1302.34 426.5,1300C 425.978,1295.3 425.312,1290.64 424.5,1286C 425.275,1282.98 424.608,1280.15 422.5,1277.5C 422.562,1275.2 422.895,1272.87 423.5,1270.5C 423.24,1268.81 422.573,1267.31 421.5,1266C 425.386,1265.42 425.386,1264.59 421.5,1263.5C 420.914,1263.71 420.414,1264.04 420,1264.5C 419.689,1263.26 420.189,1262.26 421.5,1261.5C 420.738,1261.09 419.738,1260.92 418.5,1261C 418.983,1257.54 420.15,1257.04 422,1259.5C 421.617,1252.9 421.117,1246.23 420.5,1239.5C 418.599,1239.43 416.766,1239.77 415,1240.5C 413.831,1239.99 412.998,1239.16 412.5,1238C 413.744,1237.54 414.577,1238.04 415,1239.5C 417.734,1238.64 417.901,1237.81 415.5,1237C 418.028,1235.98 418.028,1234.82 415.5,1233.5C 416.325,1232.61 417.325,1232.28 418.5,1232.5C 418.201,1234.6 418.534,1236.6 419.5,1238.5C 419.833,1238.33 420.167,1238.17 420.5,1238C 419.167,1233.33 419.167,1228.67 420.5,1224C 418.799,1221.24 417.466,1218.24 416.5,1215C 416.299,1211.78 416.633,1208.44 417.5,1205C 415.488,1201.52 414.155,1197.68 413.5,1193.5C 413.608,1192.56 413.941,1191.72 414.5,1191C 412.515,1186.76 411.848,1182.43 412.5,1178C 411.02,1165.87 405.52,1156.04 396,1148.5C 395.667,1149.17 395.333,1149.83 395,1150.5C 392.913,1149.21 390.746,1148.04 388.5,1147C 368.068,1141.78 348.234,1135.95 329,1129.5C 329.263,1130.95 329.096,1132.28 328.5,1133.5C 326.73,1132.18 326.397,1130.68 327.5,1129C 323.839,1128.17 320.505,1126.67 317.5,1124.5C 316.808,1125.03 316.308,1125.69 316,1126.5C 314.724,1123.61 312.557,1122.45 309.5,1123C 312.449,1127.62 312.115,1128.62 308.5,1126C 308.306,1124.57 308.306,1123.07 308.5,1121.5C 306.892,1120.68 305.225,1120.01 303.5,1119.5C 302.614,1118.68 302.281,1117.68 302.5,1116.5C 301.178,1116.33 300.011,1116.66 299,1117.5C 298.667,1116.83 298.333,1116.17 298,1115.5C 296.109,1117.39 293.942,1118.89 291.5,1120C 294.318,1121.59 294.151,1123.76 291,1126.5C 288.357,1122.22 289.19,1119.06 293.5,1117C 291.633,1116.29 290.133,1116.79 289,1118.5C 288.79,1116.94 288.29,1115.61 287.5,1114.5C 285.72,1111.11 284.886,1107.44 285,1103.5C 293.411,1106.19 301.744,1109.19 310,1112.5C 310.873,1112.26 311.707,1111.93 312.5,1111.5C 330.518,1117.9 348.851,1119.07 367.5,1115C 376.594,1109.57 384.094,1102.41 390,1093.5C 396.182,1081.48 401.515,1069.14 406,1056.5C 412.477,1076.95 423.644,1094.45 439.5,1109C 451.936,1118.48 465.936,1124.48 481.5,1127C 491.663,1128.67 501.83,1129.84 512,1130.5C 528.805,1129.78 545.638,1128.61 562.5,1127C 588.953,1121.87 615.287,1116.2 641.5,1110C 650.333,1106.83 659.167,1103.67 668,1100.5C 668.5,1100.83 669,1101.17 669.5,1101.5C 667.96,1143.82 668.294,1186.16 670.5,1228.5 Z"/></g>
<g><path style="opacity:1" fill="#3f230f" d="M 958.5,1059.5 C 957.478,1080.87 950.312,1099.87 937,1116.5C 922.303,1131.29 904.47,1138.46 883.5,1138C 882.833,1136.67 881.833,1135.67 880.5,1135C 887.672,1130.58 894.672,1125.91 901.5,1121C 903.927,1119.45 903.927,1118.28 901.5,1117.5C 907.217,1114.14 913.217,1110.97 919.5,1108C 924.507,1103.31 930.007,1099.14 936,1095.5C 944.782,1084.84 951.115,1072.84 955,1059.5C 956.073,1059.8 957.24,1059.8 958.5,1059.5 Z"/></g>
<g><path style="opacity:1" fill="#1d1f1d" d="M 655.5,1085.5 C 653.801,1085.66 652.134,1085.49 650.5,1085C 651.701,1084.1 652.535,1082.93 653,1081.5C 653.333,1082.5 653.667,1083.5 654,1084.5C 654.796,1080.25 654.629,1076.08 653.5,1072C 655.459,1069.68 655.459,1067.68 653.5,1066C 655.513,1064.21 655.513,1062.88 653.5,1062C 654.167,1061.33 654.833,1060.67 655.5,1060C 653.653,1057.48 653.32,1054.82 654.5,1052C 652.641,1044.5 651.641,1037.34 651.5,1030.5C 652.114,1028.24 653.114,1026.24 654.5,1024.5C 655.15,1024.2 655.817,1023.86 656.5,1023.5C 659.79,1029.95 663.29,1036.29 667,1042.5C 672.054,1048.22 677.387,1053.55 683,1058.5C 683.893,1057.29 684.726,1057.29 685.5,1058.5C 684.975,1059.19 684.308,1059.69 683.5,1060C 685.878,1063.45 687.211,1067.28 687.5,1071.5C 687.291,1072.99 686.624,1074.16 685.5,1075C 675.959,1079.79 665.959,1083.29 655.5,1085.5 Z"/></g>
<g><path style="opacity:1" fill="#8e541d" d="M 698.5,1046.5 C 698.33,1047.82 698.663,1048.99 699.5,1050C 709.651,1052.11 719.651,1051.61 729.5,1048.5C 740.722,1050.87 751.389,1049.04 761.5,1043C 764.968,1041.03 768.301,1038.86 771.5,1036.5C 775.35,1042.16 775.183,1047.82 771,1053.5C 756.459,1069.9 738.625,1075.4 717.5,1070C 709.076,1066.71 702.576,1061.21 698,1053.5C 697.204,1050.96 697.371,1048.63 698.5,1046.5 Z"/></g>
<g><path style="opacity:1" fill="#8f551e" d="M 218.5,1028.5 C 216.369,1029.31 214.036,1029.81 211.5,1030C 217.704,1029.99 218.37,1030.99 213.5,1033C 219.988,1033.83 226.321,1033.17 232.5,1031C 238.677,1028.08 244.344,1024.41 249.5,1020C 250.448,1019.52 251.448,1019.35 252.5,1019.5C 251.048,1026.82 249.548,1034.15 248,1041.5C 233.803,1053.96 218.303,1055.8 201.5,1047C 193.687,1041.03 189.021,1033.19 187.5,1023.5C 187.616,1020.3 188.783,1017.63 191,1015.5C 198.082,1024.29 207.248,1028.62 218.5,1028.5 Z"/></g>
<g><path style="opacity:1" fill="#643915" d="M 958.5,1059.5 C 957.24,1059.8 956.073,1059.8 955,1059.5C 951.115,1072.84 944.782,1084.84 936,1095.5C 930.007,1099.14 924.507,1103.31 919.5,1108C 913.217,1110.97 907.217,1114.14 901.5,1117.5C 887.955,1119.69 875.789,1125.02 865,1133.5C 864.333,1128.5 864.333,1123.5 865,1118.5C 871.51,1100.64 882.01,1085.48 896.5,1073C 903.167,1068 909.833,1063 916.5,1058C 900.342,1064.45 885.342,1073.12 871.5,1084C 865.922,1088.91 861.089,1094.41 857,1100.5C 854.057,1106.72 850.89,1112.72 847.5,1118.5C 837.383,1093.62 842.717,1072.45 863.5,1055C 869.342,1050.58 875.676,1046.91 882.5,1044C 899.57,1039.92 916.57,1035.59 933.5,1031C 940.773,1027.53 947.773,1023.87 954.5,1020C 949.583,1036.91 941.25,1051.91 929.5,1065C 941.819,1061.38 951.319,1053.88 958,1042.5C 958.499,1048.16 958.666,1053.82 958.5,1059.5 Z"/></g>
<g><path style="opacity:1" fill="#be7b31" d="M 729.5,1048.5 C 719.651,1051.61 709.651,1052.11 699.5,1050C 698.663,1048.99 698.33,1047.82 698.5,1046.5C 698.343,1045.13 698.51,1043.79 699,1042.5C 702.078,1036.01 705.412,1029.68 709,1023.5C 709.667,1022.5 709.667,1021.5 709,1020.5C 701.333,1026.83 694.333,1033.83 688,1041.5C 677.838,1034.18 672.671,1024.18 672.5,1011.5C 673.618,1004.79 674.951,998.126 676.5,991.5C 676.267,990.068 675.6,989.568 674.5,990C 671.628,992.537 669.128,995.37 667,998.5C 661.125,987.123 661.125,975.79 667,964.5C 674.659,953.923 684.492,946.089 696.5,941C 705.464,938.01 714.464,935.176 723.5,932.5C 732.701,938.524 741.201,945.524 749,953.5C 754.763,960.686 760.763,967.686 767,974.5C 772.537,981.739 777.704,989.239 782.5,997C 778.996,1008.19 772.663,1017.52 763.5,1025C 752.837,1033.83 741.504,1041.67 729.5,1048.5 Z"/></g>
<g><path style="opacity:1" fill="#272b2b" d="M 731.5,797.5 C 729.567,799.058 727.567,799.558 725.5,799C 726.517,800.049 726.684,801.216 726,802.5C 723.194,807.155 720.694,811.822 718.5,816.5C 717.167,816.5 715.833,816.5 714.5,816.5C 713.386,822.399 710.886,827.732 707,832.5C 705.559,831.13 703.892,830.13 702,829.5C 701.333,830.167 701.333,830.833 702,831.5C 703.757,832.119 704.924,833.286 705.5,835C 703.112,838.333 700.946,841.833 699,845.5C 698.751,844.376 698.251,843.376 697.5,842.5C 696.304,842.846 696.304,843.346 697.5,844C 695.839,847.33 694.172,850.663 692.5,854C 693.833,855.84 693.666,856.34 692,855.5C 689.742,857.616 687.242,860.282 684.5,863.5C 678.728,874.564 671.395,884.398 662.5,893C 662.833,893.333 663.167,893.667 663.5,894C 661.631,897.764 659.297,900.43 656.5,902C 656.957,902.414 657.291,902.914 657.5,903.5C 653.552,908.554 651.552,914.054 651.5,920C 650.069,920.465 648.903,921.299 648,922.5C 646.799,926.655 645.299,930.655 643.5,934.5C 644.025,935.192 644.692,935.692 645.5,936C 643.214,937.917 641.88,940.417 641.5,943.5C 641.295,948.692 641.628,954.025 642.5,959.5C 644.646,963.046 646.646,966.713 648.5,970.5C 613.884,977.683 578.884,981.683 543.5,982.5C 545.103,996.326 547.603,1009.99 551,1023.5C 552.105,1028.21 554.938,1031.37 559.5,1033C 574.833,1033.67 590.167,1033.67 605.5,1033C 622.05,1031.12 638.383,1028.29 654.5,1024.5C 653.114,1026.24 652.114,1028.24 651.5,1030.5C 651.641,1037.34 652.641,1044.5 654.5,1052C 653.32,1054.82 653.653,1057.48 655.5,1060C 654.833,1060.67 654.167,1061.33 653.5,1062C 655.513,1062.88 655.513,1064.21 653.5,1066C 655.459,1067.68 655.459,1069.68 653.5,1072C 654.629,1076.08 654.796,1080.25 654,1084.5C 653.667,1083.5 653.333,1082.5 653,1081.5C 652.535,1082.93 651.701,1084.1 650.5,1085C 652.134,1085.49 653.801,1085.66 655.5,1085.5C 606.149,1104.91 554.816,1114.08 501.5,1113C 487.752,1112.28 474.419,1109.62 461.5,1105C 446.135,1094.97 434.302,1081.8 426,1065.5C 405.406,1022.63 396.406,977.297 399,929.5C 401.221,923.39 404.221,917.723 408,912.5C 428.613,892.219 448.947,871.552 469,850.5C 497.098,817.979 525.431,785.646 554,753.5C 580.595,721.232 607.595,689.232 635,657.5C 647.403,641.695 659.07,625.362 670,608.5C 680.433,589.732 690.433,570.732 700,551.5C 702.434,553.007 704.434,555.007 706,557.5C 708.967,563.078 712.3,568.411 716,573.5C 716.667,592.833 716.667,612.167 716,631.5C 715.902,639.577 715.235,647.577 714,655.5C 692.438,661.348 670.605,666.181 648.5,670C 652.578,674.749 657.245,678.749 662.5,682C 670.766,686.604 678.766,691.604 686.5,697C 688.24,698.684 689.406,700.518 690,702.5C 642.702,750.817 591.536,794.317 536.5,833C 498.661,858.086 460.994,883.419 423.5,909C 416.459,914.374 410.459,920.707 405.5,928C 408.398,927.18 411.398,926.18 414.5,925C 463.16,896.661 510.493,866.328 556.5,834C 599.185,833.726 641.851,832.726 684.5,831C 686.791,823.325 688.625,815.491 690,807.5C 690.499,802.845 690.666,798.179 690.5,793.5C 662.156,794.226 633.823,794.726 605.5,795C 639.533,766.307 672.367,736.14 704,704.5C 705.558,702.231 705.724,699.898 704.5,697.5C 694.133,690.655 683.8,683.821 673.5,677C 687.471,672.258 701.804,668.924 716.5,667C 719.609,666.356 722.443,665.189 725,663.5C 726.919,636.541 727.919,609.541 728,582.5C 754.831,594.333 780.998,607.333 806.5,621.5C 794.472,625.268 784.306,631.935 776,641.5C 738.553,686.814 723.72,738.814 731.5,797.5 Z"/></g>
<g><path style="opacity:1" fill="#272b2b" d="M 636.5,982.5 C 639.833,982.5 643.167,982.5 646.5,982.5C 647.138,987.19 647.971,991.856 649,996.5C 651.34,1002.02 653.173,1007.69 654.5,1013.5C 624.228,1022.69 593.228,1026.36 561.5,1024.5C 558.049,1013.7 555.382,1002.7 553.5,991.5C 581.576,990.95 609.243,987.95 636.5,982.5 Z"/></g>
<g><path style="opacity:1" fill="#272b2b" d="M 275.5,969.5 C 287.306,976.213 299.973,980.547 313.5,982.5C 312.291,992.29 309.958,1001.79 306.5,1011C 294.154,1011.61 282.82,1008.44 272.5,1001.5C 272.167,1000.17 271.833,998.833 271.5,997.5C 272.928,988.171 274.261,978.837 275.5,969.5 Z"/></g>
<g><path style="opacity:1" fill="#dab983" d="M 814.5,992.5 C 810.428,996.059 805.928,999.059 801,1001.5C 799.423,998.011 797.589,994.677 795.5,991.5C 801.271,989.015 805.771,985.015 809,979.5C 811.377,983.088 813.877,986.588 816.5,990C 815.328,990.419 814.328,991.085 813.5,992C 813.728,992.399 814.062,992.565 814.5,992.5 Z"/></g>
<g><path style="opacity:1" fill="#140d04" d="M 421.5,933.5 C 426.716,933.134 431.716,933.968 436.5,936C 439.333,938.833 442.167,941.667 445,944.5C 447.076,947.893 448.242,951.56 448.5,955.5C 454.581,955.726 460.581,956.559 466.5,958C 465.179,961.667 462.513,963.334 458.5,963C 455.628,963.315 452.795,963.815 450,964.5C 449.127,964.265 448.293,963.931 447.5,963.5C 439.282,979.113 427.615,982.28 412.5,973C 402.882,962.505 402.382,951.672 411,940.5C 414.154,937.488 417.654,935.155 421.5,933.5 Z"/></g>
<g><path style="opacity:1" fill="#32261a" d="M 423.5,943.5 C 435.542,944.025 440.042,950.025 437,961.5C 428.86,970.052 421.527,969.386 415,959.5C 413.391,951.715 416.224,946.382 423.5,943.5 Z"/></g>
<g><path style="opacity:1" fill="#ddbd88" d="M 176.5,962.5 C 174.236,967.367 172.236,972.367 170.5,977.5C 167.655,974.458 165.321,971.125 163.5,967.5C 163.297,965.956 162.63,964.622 161.5,963.5C 163.855,956.595 166.688,949.928 170,943.5C 171.608,948.319 173.608,952.986 176,957.5C 175.904,959.381 176.071,961.047 176.5,962.5 Z"/></g>
<g><path style="opacity:1" fill="#c07e33" d="M 252.5,1019.5 C 251.448,1019.35 250.448,1019.52 249.5,1020C 244.344,1024.41 238.677,1028.08 232.5,1031C 226.321,1033.17 219.988,1033.83 213.5,1033C 218.37,1030.99 217.704,1029.99 211.5,1030C 214.036,1029.81 216.369,1029.31 218.5,1028.5C 219.643,1028.09 220.643,1027.43 221.5,1026.5C 203.628,1014.45 192.461,997.783 188,976.5C 187.333,973.5 187.333,970.5 188,967.5C 198.176,945.991 214.676,931.825 237.5,925C 242.095,923.607 246.761,923.274 251.5,924C 256.45,929.62 260.616,935.787 264,942.5C 261.687,968.377 257.854,994.044 252.5,1019.5 Z"/></g>
<g><path style="opacity:1" fill="#f4dfb3" d="M 814.5,992.5 C 814.062,992.565 813.728,992.399 813.5,992C 814.328,991.085 815.328,990.419 816.5,990C 813.877,986.588 811.377,983.088 809,979.5C 805.771,985.015 801.271,989.015 795.5,991.5C 778.059,963.389 756.059,939.389 729.5,919.5C 733.504,916.338 737.67,913.338 742,910.5C 766.158,925.322 786.492,944.322 803,967.5C 807.849,975.01 812.682,982.51 817.5,990C 816.87,991.31 815.87,992.144 814.5,992.5 Z"/></g>
<g><path style="opacity:1" fill="#f4e2b9" d="M 176.5,962.5 C 176.071,961.047 175.904,959.381 176,957.5C 173.608,952.986 171.608,948.319 170,943.5C 166.688,949.928 163.855,956.595 161.5,963.5C 162.63,964.622 163.297,965.956 163.5,967.5C 160.746,965.947 159.913,963.614 161,960.5C 170.552,930.948 190.052,911.448 219.5,902C 224.47,900.919 229.47,900.586 234.5,901C 236.644,903.979 238.978,906.812 241.5,909.5C 211.862,917.474 190.195,935.141 176.5,962.5 Z"/></g>
<g><path style="opacity:1" fill="#272b2b" d="M 280.5,616.5 C 283.998,616.565 284.498,617.899 282,620.5C 273.714,630.115 266.214,640.281 259.5,651C 260.711,654.207 263.044,655.874 266.5,656C 272.5,660.667 278.5,665.333 284.5,670C 272.595,674.097 260.761,678.264 249,682.5C 250.18,705.224 254.847,727.224 263,748.5C 273.519,773.885 286.853,797.551 303,819.5C 314.585,834.423 326.919,848.756 340,862.5C 357.715,880.05 375.881,897.05 394.5,913.5C 390.469,919.759 388.136,926.592 387.5,934C 388.358,964.864 392.025,995.364 398.5,1025.5C 394.099,1040.53 389.599,1055.53 385,1070.5C 381.487,1080.37 376.32,1089.2 369.5,1097C 361.123,1103.04 351.79,1105.04 341.5,1103C 315.657,1099.05 291.323,1090.72 268.5,1078C 265.667,1075.83 262.833,1073.67 260,1071.5C 259.498,1063.51 260.831,1055.84 264,1048.5C 265.625,1035.94 268.125,1023.61 271.5,1011.5C 279.658,1016.08 288.325,1019.25 297.5,1021C 302.638,1021.82 307.638,1021.32 312.5,1019.5C 313.333,1018.5 314.167,1017.5 315,1016.5C 318.658,1002.73 320.491,988.73 320.5,974.5C 305.299,973.156 291.466,968.156 279,959.5C 278.269,951.707 276.936,944.04 275,936.5C 268.199,919.568 260.866,902.902 253,886.5C 241.074,854.399 231.407,821.732 224,788.5C 212.883,738.8 216.216,690.134 234,642.5C 235.558,640.641 237.391,639.141 239.5,638C 253.584,631.483 267.251,624.317 280.5,616.5 Z"/></g>
<g><path style="opacity:1" fill="#f5ebd8" d="M 761.5,841.5 C 765.139,843.655 768.806,845.822 772.5,848C 773.451,848.718 773.617,849.551 773,850.5C 762.432,861.979 752.098,873.645 742,885.5C 735.969,891.866 729.636,897.866 723,903.5C 723.032,901.402 723.699,899.402 725,897.5C 736.928,878.634 749.095,859.968 761.5,841.5 Z"/></g>
<g><path style="opacity:1" fill="#1d1f1d" d="M 731.5,797.5 C 731.916,802.993 733.082,808.326 735,813.5C 738.285,818.454 741.952,823.12 746,827.5C 746.667,829.5 746.667,831.5 746,833.5C 738.054,846.4 730.388,859.4 723,872.5C 716.055,883.111 708.722,893.444 701,903.5C 696.464,911.609 693.63,920.276 692.5,929.5C 672.03,936.972 657.363,950.638 648.5,970.5C 646.646,966.713 644.646,963.046 642.5,959.5C 641.628,954.025 641.295,948.692 641.5,943.5C 641.88,940.417 643.214,937.917 645.5,936C 644.692,935.692 644.025,935.192 643.5,934.5C 645.299,930.655 646.799,926.655 648,922.5C 648.903,921.299 650.069,920.465 651.5,920C 651.552,914.054 653.552,908.554 657.5,903.5C 657.291,902.914 656.957,902.414 656.5,902C 659.297,900.43 661.631,897.764 663.5,894C 663.167,893.667 662.833,893.333 662.5,893C 671.395,884.398 678.728,874.564 684.5,863.5C 687.242,860.282 689.742,857.616 692,855.5C 693.666,856.34 693.833,855.84 692.5,854C 694.172,850.663 695.839,847.33 697.5,844C 696.304,843.346 696.304,842.846 697.5,842.5C 698.251,843.376 698.751,844.376 699,845.5C 700.946,841.833 703.112,838.333 705.5,835C 704.924,833.286 703.757,832.119 702,831.5C 701.333,830.833 701.333,830.167 702,829.5C 703.892,830.13 705.559,831.13 707,832.5C 710.886,827.732 713.386,822.399 714.5,816.5C 715.833,816.5 717.167,816.5 718.5,816.5C 720.694,811.822 723.194,807.155 726,802.5C 726.684,801.216 726.517,800.049 725.5,799C 727.567,799.558 729.567,799.058 731.5,797.5 Z"/></g>
<g><path style="opacity:1" fill="#eee6d5" d="M 222.5,848.5 C 223.5,848.5 224.5,848.5 225.5,848.5C 228.2,856.09 230.367,863.757 232,871.5C 227.787,864.909 223.953,858.076 220.5,851C 221.381,850.292 222.047,849.458 222.5,848.5 Z"/></g>
<g><path style="opacity:1" fill="#9b3e18" d="M 414.5,722.5 C 417.649,722.211 420.649,722.711 423.5,724C 418.573,737.733 416.74,751.9 418,766.5C 424.488,752.886 428.655,738.553 430.5,723.5C 433.697,723.973 436.863,724.639 440,725.5C 441.885,726.992 442.885,728.992 443,731.5C 448.231,758.344 452.564,785.344 456,812.5C 457.723,821.773 458.39,831.106 458,840.5C 443.989,856.01 429.822,871.343 415.5,886.5C 408.166,880.331 401.666,873.331 396,865.5C 389.94,857.103 384.273,848.437 379,839.5C 377.299,837.1 376.466,834.433 376.5,831.5C 380.844,792.128 393.511,755.795 414.5,722.5 Z"/></g>
<g><path style="opacity:1" fill="#272b2b" d="M 801.5,815.5 C 799.533,815.261 797.699,815.594 796,816.5C 793.266,815.638 793.099,814.805 795.5,814C 793.781,812.943 791.947,812.11 790,811.5C 789.667,811.833 789.333,812.167 789,812.5C 785.027,808.682 780.694,805.349 776,802.5C 772.738,803.841 772.238,803.508 774.5,801.5C 771.395,800.994 768.729,799.16 766.5,796C 761.666,795.162 758.333,792.496 756.5,788C 756.645,787.228 756.978,786.561 757.5,786C 755.884,786.372 754.217,787.039 752.5,788C 753.654,788.914 753.487,789.747 752,790.5C 750.795,789.929 749.628,789.262 748.5,788.5C 749.303,785.946 748.303,784.112 745.5,783C 745.833,782.667 746.167,782.333 746.5,782C 745.552,781.517 744.552,781.351 743.5,781.5C 743.723,778.886 742.556,777.219 740,776.5C 739.802,778.382 739.302,780.048 738.5,781.5C 736.361,736.715 748.194,696.049 774,659.5C 782.27,649.226 791.77,640.392 802.5,633C 809.296,629.487 816.296,628.82 823.5,631C 828.14,634.061 831.973,637.895 835,642.5C 838.014,650.234 840.014,658.234 841,666.5C 841.956,669.377 843.289,672.044 845,674.5C 878.902,712.331 909.902,752.331 938,794.5C 941.414,800.997 945.081,807.33 949,813.5C 951.531,820.091 953.864,826.758 956,833.5C 957.484,839.765 957.818,846.098 957,852.5C 948.867,871.441 938.2,888.774 925,904.5C 906.892,924.942 887.726,944.442 867.5,963C 856.35,972.406 845.016,981.573 833.5,990.5C 822.735,973.971 811.235,957.971 799,942.5C 788.092,930.589 776.258,919.756 763.5,910C 758.423,906.599 753.089,903.599 747.5,901C 764.378,881.124 780.878,860.957 797,840.5C 808.13,827.02 822.297,818.853 839.5,816C 853.465,814.801 867.465,814.134 881.5,814C 861.838,801.837 840.838,798.837 818.5,805C 812.419,807.932 806.752,811.432 801.5,815.5 Z"/></g>
<g><path style="opacity:1" fill="#272c2c" d="M 678.5,802.5 C 679.5,802.5 680.5,802.5 681.5,802.5C 680.177,809.122 679.177,815.789 678.5,822.5C 642.838,823.474 607.171,823.64 571.5,823C 578.985,816.759 586.652,810.759 594.5,805C 622.673,804.558 650.673,803.724 678.5,802.5 Z"/></g>
<g><path style="opacity:1" fill="#1d201e" d="M 801.5,815.5 C 796.042,822.128 790.376,828.628 784.5,835C 769.166,827.726 755.332,817.893 743,805.5C 741.073,797.481 739.573,789.481 738.5,781.5C 739.302,780.048 739.802,778.382 740,776.5C 742.556,777.219 743.723,778.886 743.5,781.5C 744.552,781.351 745.552,781.517 746.5,782C 746.167,782.333 745.833,782.667 745.5,783C 748.303,784.112 749.303,785.946 748.5,788.5C 749.628,789.262 750.795,789.929 752,790.5C 753.487,789.747 753.654,788.914 752.5,788C 754.217,787.039 755.884,786.372 757.5,786C 756.978,786.561 756.645,787.228 756.5,788C 758.333,792.496 761.666,795.162 766.5,796C 768.729,799.16 771.395,800.994 774.5,801.5C 772.238,803.508 772.738,803.841 776,802.5C 780.694,805.349 785.027,808.682 789,812.5C 789.333,812.167 789.667,811.833 790,811.5C 791.947,812.11 793.781,812.943 795.5,814C 793.099,814.805 793.266,815.638 796,816.5C 797.699,815.594 799.533,815.261 801.5,815.5 Z"/></g>
<g><path style="opacity:1" fill="#1e201e" d="M 209.5,763.5 C 212.495,784.78 215.662,806.113 219,827.5C 215.293,830.576 212.293,834.242 210,838.5C 205.577,823.935 197.077,812.602 184.5,804.5C 184.426,802.589 183.426,801.422 181.5,801C 182.784,800.316 183.951,800.483 185,801.5C 186.403,796.421 189.07,792.088 193,788.5C 193.445,786.406 192.612,784.906 190.5,784C 191.672,783.647 192.838,783.813 194,784.5C 199.51,777.175 204.01,769.175 207.5,760.5C 208.298,762.078 208.798,763.744 209,765.5C 209.464,764.906 209.631,764.239 209.5,763.5 Z"/></g>
<g><path style="opacity:1" fill="#f5e2b4" d="M 491.5,803.5 C 490.566,802.228 489.899,800.728 489.5,799C 490.856,797.433 491.523,795.6 491.5,793.5C 493.722,793.178 495.556,793.845 497,795.5C 497.29,793.048 497.956,790.715 499,788.5C 500.247,790.881 500.58,790.547 500,787.5C 499,786.167 498,784.833 497,783.5C 495.128,787.265 494.295,787.265 494.5,783.5C 493.719,784.729 493.219,786.062 493,787.5C 491.513,786.747 491.346,785.914 492.5,785C 491.146,783.706 489.812,783.54 488.5,784.5C 487.304,784.154 487.304,783.654 488.5,783C 487.5,782.5 486.5,782 485.5,781.5C 486.466,783.863 486.466,786.363 485.5,789C 484.167,789.333 482.833,789.667 481.5,790C 482.458,791.147 482.125,792.147 480.5,793C 479.552,793.483 478.552,793.649 477.5,793.5C 477.649,794.552 477.483,795.552 477,796.5C 476.219,795.056 476.386,793.723 477.5,792.5C 479.821,790.364 482.154,788.198 484.5,786C 481.557,782.715 482.224,780.215 486.5,778.5C 487.327,780.162 488.493,781.495 490,782.5C 490.691,780.109 491.691,780.109 493,782.5C 493.19,777.223 494.524,777.223 497,782.5C 497.863,780.251 497.363,778.418 495.5,777C 496.191,775.933 496.691,774.766 497,773.5C 498.016,774.634 498.683,774.301 499,772.5C 500.693,774.027 502.527,775.36 504.5,776.5C 508.244,773.166 507.911,771.332 503.5,771C 505.055,769.354 506.721,769.021 508.5,770C 508.099,764.31 508.099,760.476 508.5,758.5C 513.919,759.738 514.585,758.405 510.5,754.5C 511.242,752.65 512.242,751.984 513.5,752.5C 512.349,751.269 511.183,751.269 510,752.5C 509.506,750.866 509.34,749.199 509.5,747.5C 508.5,747.5 507.5,747.5 506.5,747.5C 506.863,745.089 505.863,743.589 503.5,743C 503.404,741.627 503.57,740.127 504,738.5C 501.584,738.371 499.084,738.704 496.5,739.5C 495.034,738.865 493.7,738.031 492.5,737C 493.672,736.581 494.672,735.915 495.5,735C 495.384,733.732 495.051,732.398 494.5,731C 496.863,730.411 497.863,728.911 497.5,726.5C 499.836,728.004 501.669,730.004 503,732.5C 503.278,731.584 503.778,730.918 504.5,730.5C 505.351,733.899 507.351,736.233 510.5,737.5C 525.436,732.532 539.436,725.698 552.5,717C 561.167,711 569.833,705 578.5,699C 579.332,698.312 579.998,698.479 580.5,699.5C 551.56,734.775 521.893,769.442 491.5,803.5 Z"/></g>
<g><path style="opacity:1" fill="#272b2b" d="M 209.5,763.5 C 209.631,764.239 209.464,764.906 209,765.5C 208.798,763.744 208.298,762.078 207.5,760.5C 204.01,769.175 199.51,777.175 194,784.5C 192.838,783.813 191.672,783.647 190.5,784C 192.612,784.906 193.445,786.406 193,788.5C 189.07,792.088 186.403,796.421 185,801.5C 183.951,800.483 182.784,800.316 181.5,801C 183.426,801.422 184.426,802.589 184.5,804.5C 175,799.552 164.833,797.218 154,797.5C 147.465,797.567 140.965,798.067 134.5,799C 130.462,799.899 126.795,801.566 123.5,804C 140.882,804.01 157.549,807.343 173.5,814C 182.881,819.26 190.381,826.427 196,835.5C 205.969,852.57 215.469,869.903 224.5,887.5C 185.49,897.463 159.99,921.797 148,960.5C 125.086,931.698 105.419,900.698 89,867.5C 83.8763,856.502 80.7096,845.002 79.5,833C 80.7674,818.532 85.6007,805.365 94,793.5C 117.8,762.358 143.8,733.025 172,705.5C 185.421,690.749 198.088,675.416 210,659.5C 213.39,655.607 217.223,652.273 221.5,649.5C 221.833,649.833 222.167,650.167 222.5,650.5C 212.765,676.574 208.099,703.574 208.5,731.5C 208.834,742.169 209.167,752.836 209.5,763.5 Z"/></g>
<g><path style="opacity:1" fill="#f4dead" d="M 497.5,726.5 C 497.863,728.911 496.863,730.411 494.5,731C 495.051,732.398 495.384,733.732 495.5,735C 494.672,735.915 493.672,736.581 492.5,737C 493.7,738.031 495.034,738.865 496.5,739.5C 499.084,738.704 501.584,738.371 504,738.5C 503.57,740.127 503.404,741.627 503.5,743C 505.863,743.589 506.863,745.089 506.5,747.5C 507.5,747.5 508.5,747.5 509.5,747.5C 509.34,749.199 509.506,750.866 510,752.5C 511.183,751.269 512.349,751.269 513.5,752.5C 512.242,751.984 511.242,752.65 510.5,754.5C 514.585,758.405 513.919,759.738 508.5,758.5C 508.099,760.476 508.099,764.31 508.5,770C 506.721,769.021 505.055,769.354 503.5,771C 507.911,771.332 508.244,773.166 504.5,776.5C 502.527,775.36 500.693,774.027 499,772.5C 498.683,774.301 498.016,774.634 497,773.5C 496.691,774.766 496.191,775.933 495.5,777C 497.363,778.418 497.863,780.251 497,782.5C 494.524,777.223 493.19,777.223 493,782.5C 491.691,780.109 490.691,780.109 490,782.5C 488.493,781.495 487.327,780.162 486.5,778.5C 482.224,780.215 481.557,782.715 484.5,786C 482.154,788.198 479.821,790.364 477.5,792.5C 476.386,793.723 476.219,795.056 477,796.5C 477.483,795.552 477.649,794.552 477.5,793.5C 478.552,793.649 479.552,793.483 480.5,793C 482.125,792.147 482.458,791.147 481.5,790C 482.833,789.667 484.167,789.333 485.5,789C 486.466,786.363 486.466,783.863 485.5,781.5C 486.5,782 487.5,782.5 488.5,783C 487.304,783.654 487.304,784.154 488.5,784.5C 489.812,783.54 491.146,783.706 492.5,785C 491.346,785.914 491.513,786.747 493,787.5C 493.219,786.062 493.719,784.729 494.5,783.5C 494.295,787.265 495.128,787.265 497,783.5C 498,784.833 499,786.167 500,787.5C 500.58,790.547 500.247,790.881 499,788.5C 497.956,790.715 497.29,793.048 497,795.5C 495.556,793.845 493.722,793.178 491.5,793.5C 491.523,795.6 490.856,797.433 489.5,799C 489.899,800.728 490.566,802.228 491.5,803.5C 484.905,811.598 477.739,819.265 470,826.5C 465.991,795.761 461.491,765.094 456.5,734.5C 456.343,733.127 456.51,731.793 457,730.5C 461.64,728.244 464.64,724.577 466,719.5C 468.312,716.021 471.146,713.021 474.5,710.5C 477.228,711.145 479.895,711.979 482.5,713C 488.019,717.024 493.019,721.524 497.5,726.5 Z"/></g>
<g><path style="opacity:1" fill="#272b2b" d="M 300.5,611.5 C 306.827,616.92 314.494,620.92 323.5,623.5C 311.921,692.425 321.754,758.092 353,820.5C 362.729,839.63 373.729,857.963 386,875.5C 392.167,883 398.333,890.5 404.5,898C 402.85,900.813 400.85,903.313 398.5,905.5C 381.602,889.103 364.768,872.436 348,855.5C 328.45,833.963 310.45,811.296 294,787.5C 275.086,756.83 263.586,723.496 259.5,687.5C 275.312,683.675 290.812,679.008 306,673.5C 306.688,672.668 306.521,672.002 305.5,671.5C 294.114,664.934 283.781,657.1 274.5,648C 283.539,636.085 292.206,623.918 300.5,611.5 Z"/></g>
<g><path style="opacity:1" fill="#dbbb82" d="M 504.5,730.5 C 503.778,730.918 503.278,731.584 503,732.5C 501.669,730.004 499.836,728.004 497.5,726.5C 493.019,721.524 488.019,717.024 482.5,713C 479.895,711.979 477.228,711.145 474.5,710.5C 471.146,713.021 468.312,716.021 466,719.5C 464.64,724.577 461.64,728.244 457,730.5C 456.51,731.793 456.343,733.127 456.5,734.5C 455.366,732.034 455.199,729.367 456,726.5C 465.146,716.2 473.812,705.533 482,694.5C 490.262,706.024 497.762,718.024 504.5,730.5 Z"/></g>
<g><path style="opacity:1" fill="#f6e3b7" d="M 332.5,668.5 C 343.472,685.987 355.472,702.821 368.5,719C 371.216,721.151 373.716,720.984 376,718.5C 380.849,708.827 386.682,699.827 393.5,691.5C 396.158,701.099 398.825,710.765 401.5,720.5C 384.061,749.643 372.227,780.977 366,814.5C 343.172,768.519 332.005,719.853 332.5,668.5 Z"/></g>
<g><path style="opacity:1" fill="#6f2a0f" d="M 470.5,681.5 C 472.914,682.406 473.747,684.072 473,686.5C 466.667,694.833 460.333,703.167 454,711.5C 452.29,713.38 450.457,715.046 448.5,716.5C 446.578,716.199 444.912,715.533 443.5,714.5C 451.365,702.628 460.365,691.628 470.5,681.5 Z"/></g>
<g><path style="opacity:1" fill="#f6e4b9" d="M 588.5,619.5 C 589.479,622.625 589.813,625.958 589.5,629.5C 588.997,646.874 587.83,664.207 586,681.5C 572.774,691.058 559.274,700.225 545.5,709C 535.832,715.084 525.666,720.251 515,724.5C 513.233,723.66 511.899,722.327 511,720.5C 498.16,697.661 482.994,676.494 465.5,657C 507.986,649.296 548.986,636.796 588.5,619.5 Z"/></g>
<g><path style="opacity:1" fill="#9b3e18" d="M 470.5,681.5 C 460.365,691.628 451.365,702.628 443.5,714.5C 432.921,712.764 422.254,712.098 411.5,712.5C 408.572,700.594 406.405,688.594 405,676.5C 410.5,668.333 417.333,661.5 425.5,656C 434.447,656.797 443.447,657.463 452.5,658C 458.63,665.773 464.63,673.607 470.5,681.5 Z"/></g>
<g><path style="opacity:1" fill="#f5e2b6" d="M 335.5,628.5 C 349.013,631.108 362.679,632.608 376.5,633C 387.663,640.582 399.663,646.582 412.5,651C 406.301,656.864 400.468,663.031 395,669.5C 387,681.5 379,693.5 371,705.5C 357.076,688.004 345.409,669.004 336,648.5C 334.34,641.897 334.173,635.23 335.5,628.5 Z"/></g>
<g><path style="opacity:1" fill="#8e7c60" d="M 588.5,619.5 C 588.56,618.957 588.893,618.624 589.5,618.5C 590.808,622.315 590.808,625.981 589.5,629.5C 589.813,625.958 589.479,622.625 588.5,619.5 Z"/></g>
<g><path style="opacity:1" fill="#f7e5bb" d="M 679.5,563.5 C 680.376,563.369 681.043,563.702 681.5,564.5C 673.202,581.764 663.369,598.097 652,613.5C 640.714,628.455 629.047,643.121 617,657.5C 611.044,663.636 604.71,669.302 598,674.5C 597.98,654.463 598.98,634.463 601,614.5C 623.41,603.051 644.91,590.218 665.5,576C 670.428,572.051 675.094,567.884 679.5,563.5 Z"/></g>
<g><path style="opacity:1" fill="#87501b" d="M 587.5,569.5 C 588.5,569.5 589.5,569.5 590.5,569.5C 590.822,581.747 590.488,593.914 589.5,606C 551.122,625.015 510.788,638.015 468.5,645C 453.392,646.14 438.392,645.474 423.5,643C 417.459,641.71 411.792,639.544 406.5,636.5C 423.766,635.91 440.1,631.743 455.5,624C 477.718,610.224 501.051,598.558 525.5,589C 546.18,582.17 566.847,575.67 587.5,569.5 Z"/></g>
<g><path style="opacity:1" fill="#bf7d32" d="M 593.5,380.5 C 591.984,395.954 591.318,414.12 591.5,435C 591.5,447.005 591.833,458.838 592.5,470.5C 592.485,493.839 592.152,517.172 591.5,540.5C 574.029,547.488 556.029,552.988 537.5,557C 513.066,564.924 489.233,574.424 466,585.5C 465.536,584.906 465.369,584.239 465.5,583.5C 468.347,577.495 470.847,571.495 473,565.5C 459.606,580.907 444.439,594.074 427.5,605C 403.748,614.623 379.082,617.957 353.5,615C 340.085,614.232 327.752,610.232 316.5,603C 308.273,596.376 303.273,587.876 301.5,577.5C 313.781,578.039 325.781,576.539 337.5,573C 320.039,572.291 303.373,568.291 287.5,561C 279.283,556.053 276.45,548.886 279,539.5C 283.956,536.215 289.456,534.382 295.5,534C 302.167,533.333 308.833,533.333 315.5,534C 341.857,538.506 368.19,543.172 394.5,548C 435.53,550.768 471.53,538.768 502.5,512C 515.849,500.161 524.849,485.661 529.5,468.5C 537.455,471.236 543.621,476.236 548,483.5C 552.43,468.862 547.597,458.695 533.5,453C 517.516,447.791 504.349,451.624 494,464.5C 493.219,465.944 493.386,467.277 494.5,468.5C 501.357,465.992 508.357,465.325 515.5,466.5C 510.291,483.587 500.624,497.587 486.5,508.5C 484.805,507.989 483.139,507.322 481.5,506.5C 482.909,506.178 484.409,505.178 486,503.5C 486.483,502.552 486.649,501.552 486.5,500.5C 490.5,500.167 490.5,499.833 486.5,499.5C 486.649,498.448 486.483,497.448 486,496.5C 484.285,496.52 482.452,497.186 480.5,498.5C 481.345,496.72 481.345,494.72 480.5,492.5C 478.851,491.852 477.518,490.852 476.5,489.5C 477,489.167 477.5,488.833 478,488.5C 478.388,490.071 479.888,491.071 482.5,491.5C 483.734,489.602 483.401,487.935 481.5,486.5C 482.167,486.167 482.833,485.833 483.5,485.5C 482.855,483.568 481.521,482.401 479.5,482C 480.833,481 480.833,480 479.5,479C 484.188,479.986 484.522,479.152 480.5,476.5C 481.183,473.539 482.016,473.205 483,475.5C 484.049,474.483 485.216,474.316 486.5,475C 485.328,475.419 484.328,476.085 483.5,477C 487.958,479.693 489.792,478.526 489,473.5C 488.667,474.167 488.333,474.833 488,475.5C 487.333,473.5 486.667,471.5 486,469.5C 484.526,471.915 482.86,471.915 481,469.5C 477.347,471.441 476.847,473.941 479.5,477C 477.893,476.981 476.226,476.815 474.5,476.5C 474.762,477.978 474.429,479.311 473.5,480.5C 472.219,477.492 470.719,474.492 469,471.5C 468.346,472.696 467.846,472.696 467.5,471.5C 468.651,470.269 469.817,470.269 471,471.5C 471.925,470.953 472.758,470.287 473.5,469.5C 472.005,469.522 470.338,469.189 468.5,468.5C 468.709,467.914 469.043,467.414 469.5,467C 471.818,466.658 473.985,467.158 476,468.5C 476.667,467.5 476.667,466.5 476,465.5C 475.282,466.451 474.449,466.617 473.5,466C 472.167,465.333 472.167,464.667 473.5,464C 472.833,462.667 471.833,461.667 470.5,461C 474.136,460.374 474.136,459.207 470.5,457.5C 471.696,455.855 472.696,454.189 473.5,452.5C 475.467,452.739 477.301,452.406 479,451.5C 481.336,452.292 481.836,453.625 480.5,455.5C 481.813,457.885 483.48,458.052 485.5,456C 483.431,455.676 483.098,454.842 484.5,453.5C 483.687,452.186 482.687,451.019 481.5,450C 483.768,449.91 485.268,451.077 486,453.5C 486.98,451.941 487.813,450.274 488.5,448.5C 489.167,448.833 489.833,449.167 490.5,449.5C 491.624,448.086 492.624,446.586 493.5,445C 492.584,444.626 491.75,444.126 491,443.5C 490.323,445.689 489.156,446.022 487.5,444.5C 486.719,445.729 486.219,447.062 486,448.5C 484.846,446.043 483.512,446.043 482,448.5C 480.16,447.167 479.66,447.334 480.5,449C 479.584,449.374 478.75,449.874 478,450.5C 477.691,449.234 477.191,448.067 476.5,447C 478.345,445.577 480.345,444.41 482.5,443.5C 481.397,443.002 480.397,442.669 479.5,442.5C 481.559,441.433 483.392,440.1 485,438.5C 485.333,439.167 485.667,439.833 486,440.5C 486.465,439.069 487.299,437.903 488.5,437C 485.783,435.967 483.949,436.8 483,439.5C 482.586,439.043 482.086,438.709 481.5,438.5C 480.15,439.95 478.484,440.617 476.5,440.5C 476.5,441.5 476.5,442.5 476.5,443.5C 475.127,443.657 473.793,443.49 472.5,443C 474.797,441.84 474.464,440.84 471.5,440C 474.943,439.779 475.276,438.779 472.5,437C 475.15,433.793 474.984,433.293 472,435.5C 471.626,434.584 471.126,433.75 470.5,433C 470.836,430.699 472.169,428.532 474.5,426.5C 475.732,427.145 477.065,427.311 478.5,427C 477.72,428.073 477.887,429.24 479,430.5C 480.609,429.85 482.109,430.35 483.5,432C 481.744,432.202 480.078,432.702 478.5,433.5C 478.938,434.506 479.604,434.506 480.5,433.5C 481.748,434.04 482.915,434.707 484,435.5C 485,434.167 486,434.167 487,435.5C 487.456,434.256 486.956,433.423 485.5,433C 487.674,432.819 489.507,433.652 491,435.5C 490.734,433.536 489.567,432.036 487.5,431C 489.382,430.802 491.048,430.302 492.5,429.5C 518.125,437.054 542.125,433.554 564.5,419C 580.646,404.883 590.146,387.049 593,365.5C 593.333,365.167 593.667,364.833 594,364.5C 594.817,370.016 594.651,375.35 593.5,380.5 Z"/></g>
<g><path style="opacity:1" fill="#93581f" d="M 591.5,540.5 C 591.797,544.767 591.464,548.934 590.5,553C 559.303,562.399 528.303,572.399 497.5,583C 480.423,589.556 464.089,597.223 448.5,606C 455.501,599.495 461.167,591.995 465.5,583.5C 465.369,584.239 465.536,584.906 466,585.5C 489.233,574.424 513.066,564.924 537.5,557C 556.029,552.988 574.029,547.488 591.5,540.5 Z"/></g>
<g><path style="opacity:1" fill="#89501c" d="M 686.5,518.5 C 688.252,526.282 688.752,534.282 688,542.5C 662.893,567.058 634.226,586.391 602,600.5C 601.168,589.152 601.334,577.819 602.5,566.5C 620.165,558.491 634.832,546.824 646.5,531.5C 646.905,532.55 647.571,532.55 648.5,531.5C 649.76,533.353 649.76,535.186 648.5,537C 649.167,538.333 650.167,539.333 651.5,540C 650.692,540.308 650.025,540.808 649.5,541.5C 650.948,542.354 652.281,543.354 653.5,544.5C 654.848,542.389 654.515,540.555 652.5,539C 653.682,537.322 654.848,537.488 656,539.5C 657.225,539.138 658.391,538.638 659.5,538C 657.508,537.426 656.008,536.259 655,534.5C 654.167,537 653,537.167 651.5,535C 654.001,533.582 653.668,532.582 650.5,532C 652.433,531.217 653.933,531.717 655,533.5C 655.915,532.672 656.581,531.672 657,530.5C 658.147,531.458 659.147,531.125 660,529.5C 660.333,530.167 660.667,530.833 661,531.5C 661.574,529.508 662.741,528.008 664.5,527C 662.331,526.571 660.331,527.071 658.5,528.5C 658.167,528.167 657.833,527.833 657.5,527.5C 658.752,525.999 659.752,524.332 660.5,522.5C 662.471,525.759 665.138,526.259 668.5,524C 667.167,522.667 667.167,521.333 668.5,520C 667.269,518.033 666.269,518.199 665.5,520.5C 666.326,521.451 666.492,522.451 666,523.5C 665.097,522.299 663.931,521.465 662.5,521C 664.766,519.486 665.932,517.319 666,514.5C 667.667,515.167 669.333,515.833 671,516.5C 671.654,515.304 672.154,515.304 672.5,516.5C 671.271,517.281 669.938,517.781 668.5,518C 669.167,518.333 669.833,518.667 670.5,519C 669.549,519.718 669.383,520.551 670,521.5C 670.833,520.5 671.667,519.5 672.5,518.5C 673.732,519.145 675.065,519.311 676.5,519C 674.999,520.252 673.332,521.252 671.5,522C 674.415,525.174 676.915,524.674 679,520.5C 679.324,522.569 680.158,522.902 681.5,521.5C 681.736,522.247 682.07,523.08 682.5,524C 683.167,524.667 683.833,524.667 684.5,524C 683.809,522.933 683.309,521.766 683,520.5C 681.324,519.939 679.991,518.939 679,517.5C 677.913,519.932 677.413,519.598 677.5,516.5C 672.633,515.832 672.466,514.832 677,513.5C 677.915,514.328 678.581,515.328 679,516.5C 679.893,515.289 680.726,515.289 681.5,516.5C 680.494,517.396 680.494,518.062 681.5,518.5C 682.251,517.624 682.751,516.624 683,515.5C 684.783,517.845 685.783,520.512 686,523.5C 686.494,521.866 686.66,520.199 686.5,518.5 Z"/></g>
<g><path style="opacity:1" fill="#90551e" d="M 677.5,467.5 C 681.889,484.128 684.889,501.128 686.5,518.5C 686.66,520.199 686.494,521.866 686,523.5C 685.783,520.512 684.783,517.845 683,515.5C 682.751,516.624 682.251,517.624 681.5,518.5C 680.494,518.062 680.494,517.396 681.5,516.5C 680.726,515.289 679.893,515.289 679,516.5C 678.581,515.328 677.915,514.328 677,513.5C 672.466,514.832 672.633,515.832 677.5,516.5C 677.413,519.598 677.913,519.932 679,517.5C 679.991,518.939 681.324,519.939 683,520.5C 683.309,521.766 683.809,522.933 684.5,524C 683.833,524.667 683.167,524.667 682.5,524C 682.07,523.08 681.736,522.247 681.5,521.5C 680.158,522.902 679.324,522.569 679,520.5C 676.915,524.674 674.415,525.174 671.5,522C 673.332,521.252 674.999,520.252 676.5,519C 675.065,519.311 673.732,519.145 672.5,518.5C 671.667,519.5 670.833,520.5 670,521.5C 669.383,520.551 669.549,519.718 670.5,519C 669.833,518.667 669.167,518.333 668.5,518C 669.938,517.781 671.271,517.281 672.5,516.5C 672.154,515.304 671.654,515.304 671,516.5C 669.333,515.833 667.667,515.167 666,514.5C 665.932,517.319 664.766,519.486 662.5,521C 663.931,521.465 665.097,522.299 666,523.5C 666.492,522.451 666.326,521.451 665.5,520.5C 666.269,518.199 667.269,518.033 668.5,520C 667.167,521.333 667.167,522.667 668.5,524C 665.138,526.259 662.471,525.759 660.5,522.5C 659.752,524.332 658.752,525.999 657.5,527.5C 657.833,527.833 658.167,528.167 658.5,528.5C 660.331,527.071 662.331,526.571 664.5,527C 662.741,528.008 661.574,529.508 661,531.5C 660.667,530.833 660.333,530.167 660,529.5C 659.147,531.125 658.147,531.458 657,530.5C 656.581,531.672 655.915,532.672 655,533.5C 653.933,531.717 652.433,531.217 650.5,532C 653.668,532.582 654.001,533.582 651.5,535C 653,537.167 654.167,537 655,534.5C 656.008,536.259 657.508,537.426 659.5,538C 658.391,538.638 657.225,539.138 656,539.5C 654.848,537.488 653.682,537.322 652.5,539C 654.515,540.555 654.848,542.389 653.5,544.5C 652.281,543.354 650.948,542.354 649.5,541.5C 650.025,540.808 650.692,540.308 651.5,540C 650.167,539.333 649.167,538.333 648.5,537C 649.76,535.186 649.76,533.353 648.5,531.5C 647.571,532.55 646.905,532.55 646.5,531.5C 658.658,509.595 662.324,486.261 657.5,461.5C 658.611,458.722 659.611,456.222 660.5,454C 665.084,452.003 665.417,452.503 661.5,455.5C 662,455.833 662.5,456.167 663,456.5C 666.649,455.316 669.316,453.65 671,451.5C 673.608,457.25 675.608,463.25 677,469.5C 677.464,468.906 677.631,468.239 677.5,467.5 Z"/></g>
<g><path style="opacity:1" fill="#8f551d" d="M 645.5,496.5 C 640.134,521.189 625.801,538.189 602.5,547.5C 602.176,540.646 602.509,533.979 603.5,527.5C 603.183,530.572 603.516,533.572 604.5,536.5C 608.361,533.472 612.361,530.639 616.5,528C 620.027,524.473 623.527,520.973 627,517.5C 632.175,509.149 637.842,501.149 644,493.5C 644.232,494.737 644.732,495.737 645.5,496.5 Z"/></g>
<g><path style="opacity:1" fill="#a06123" d="M 660.5,412.5 C 667.541,430.311 673.208,448.644 677.5,467.5C 677.631,468.239 677.464,468.906 677,469.5C 675.608,463.25 673.608,457.25 671,451.5C 669.316,453.65 666.649,455.316 663,456.5C 662.5,456.167 662,455.833 661.5,455.5C 665.417,452.503 665.084,452.003 660.5,454C 659.611,456.222 658.611,458.722 657.5,461.5C 656.652,454.091 654.485,447.091 651,440.5C 650.51,441.793 650.343,443.127 650.5,444.5C 649.212,442.965 649.212,441.299 650.5,439.5C 651.833,438.5 653.167,437.5 654.5,436.5C 654.062,435.494 653.396,435.494 652.5,436.5C 652.167,435.833 651.833,435.167 651.5,434.5C 652.162,431.533 653.829,428.699 656.5,426C 656.782,422.911 656.782,419.744 656.5,416.5C 657.333,414.833 658.167,413.167 659,411.5C 659.333,412.167 659.667,412.833 660,413.5C 660.399,413.272 660.565,412.938 660.5,412.5 Z"/></g>
<g><path style="opacity:1" fill="#b97333" d="M 465.5,446.5 C 466.302,447.952 466.802,449.618 467,451.5C 467.333,449.167 467.667,446.833 468,444.5C 468.71,445.973 469.876,446.64 471.5,446.5C 471.149,448.869 470.982,451.203 471,453.5C 471.465,452.069 472.299,450.903 473.5,450C 472.465,448.493 472.632,446.993 474,445.5C 474.333,446.833 474.667,448.167 475,449.5C 475.654,448.304 476.154,448.304 476.5,449.5C 475.23,450.288 474.23,451.288 473.5,452.5C 472.696,454.189 471.696,455.855 470.5,457.5C 474.136,459.207 474.136,460.374 470.5,461C 471.833,461.667 472.833,462.667 473.5,464C 472.167,464.667 472.167,465.333 473.5,466C 474.449,466.617 475.282,466.451 476,465.5C 476.667,466.5 476.667,467.5 476,468.5C 473.985,467.158 471.818,466.658 469.5,467C 469.043,467.414 468.709,467.914 468.5,468.5C 470.338,469.189 472.005,469.522 473.5,469.5C 472.758,470.287 471.925,470.953 471,471.5C 469.817,470.269 468.651,470.269 467.5,471.5C 467.846,472.696 468.346,472.696 469,471.5C 470.719,474.492 472.219,477.492 473.5,480.5C 474.429,479.311 474.762,477.978 474.5,476.5C 476.226,476.815 477.893,476.981 479.5,477C 476.847,473.941 477.347,471.441 481,469.5C 482.86,471.915 484.526,471.915 486,469.5C 486.667,471.5 487.333,473.5 488,475.5C 488.333,474.833 488.667,474.167 489,473.5C 489.792,478.526 487.958,479.693 483.5,477C 484.328,476.085 485.328,475.419 486.5,475C 485.216,474.316 484.049,474.483 483,475.5C 482.016,473.205 481.183,473.539 480.5,476.5C 484.522,479.152 484.188,479.986 479.5,479C 480.833,480 480.833,481 479.5,482C 481.521,482.401 482.855,483.568 483.5,485.5C 482.833,485.833 482.167,486.167 481.5,486.5C 483.401,487.935 483.734,489.602 482.5,491.5C 479.888,491.071 478.388,490.071 478,488.5C 477.5,488.833 477,489.167 476.5,489.5C 477.518,490.852 478.851,491.852 480.5,492.5C 481.345,494.72 481.345,496.72 480.5,498.5C 482.452,497.186 484.285,496.52 486,496.5C 486.483,497.448 486.649,498.448 486.5,499.5C 490.5,499.833 490.5,500.167 486.5,500.5C 486.649,501.552 486.483,502.552 486,503.5C 484.409,505.178 482.909,506.178 481.5,506.5C 483.139,507.322 484.805,507.989 486.5,508.5C 457.622,532.893 424.288,542.393 386.5,537C 368.755,533.753 351.089,530.086 333.5,526C 318.221,523.947 302.888,523.28 287.5,524C 278.068,525.256 269.068,527.922 260.5,532C 253.128,532.001 246.961,529.168 242,523.5C 230.313,509.417 226.646,493.417 231,475.5C 232.287,471.63 233.953,467.964 236,464.5C 235.81,452.505 235.81,440.505 236,428.5C 238.98,418.185 245.48,411.018 255.5,407C 270.418,404.004 285.418,403.67 300.5,406C 317.235,409.281 333.902,412.947 350.5,417C 362.5,417.667 374.5,417.667 386.5,417C 398.762,414.904 411.095,414.237 423.5,415C 438.782,416.881 448.949,425.047 454,439.5C 455.675,445.044 456.509,450.71 456.5,456.5C 455.797,464.905 454.963,473.239 454,481.5C 461.923,471.23 465.756,459.563 465.5,446.5 Z"/></g>
<g><path style="opacity:1" fill="#723715" d="M 413.5,482.5 C 409.905,484.102 406.571,486.102 403.5,488.5C 396.531,491.877 389.197,493.043 381.5,492C 378.892,487.847 379.059,483.68 382,479.5C 386.746,472.083 393.246,466.917 401.5,464C 410.505,460.916 415.839,463.916 417.5,473C 417.101,476.623 415.768,479.79 413.5,482.5 Z"/></g>
<g><path style="opacity:1" fill="#140d04" d="M 413.5,482.5 C 415.768,479.79 417.101,476.623 417.5,473C 415.839,463.916 410.505,460.916 401.5,464C 393.246,466.917 386.746,472.083 382,479.5C 379.059,483.68 378.892,487.847 381.5,492C 389.197,493.043 396.531,491.877 403.5,488.5C 395.989,496.618 386.656,500.118 375.5,499C 368.371,496.082 365.038,490.748 365.5,483C 367.314,470.177 373.647,460.177 384.5,453C 393.235,447.422 402.735,444.255 413,443.5C 425.464,443.133 431.964,449.133 432.5,461.5C 432.791,474.541 426.457,481.541 413.5,482.5 Z"/></g>
<g><path style="opacity:1" fill="#150d04" d="M 261.5,465.5 C 262.309,464.531 263.309,463.698 264.5,463C 263.359,462.259 263.359,461.425 264.5,460.5C 261.727,456.223 258.393,452.39 254.5,449C 252.888,448.28 251.388,448.446 250,449.5C 249.503,452.146 249.336,454.813 249.5,457.5C 246.259,454.656 244.426,450.99 244,446.5C 242.405,438.604 245.572,434.271 253.5,433.5C 257.45,433.761 261.117,434.928 264.5,437C 278.134,448.569 282.968,463.069 279,480.5C 275.235,485.667 270.401,486.833 264.5,484C 260.426,478.407 259.426,472.24 261.5,465.5 Z"/></g>
<g><path style="opacity:1" fill="#763c17" d="M 261.5,465.5 C 258.332,462.684 254.666,460.684 250.5,459.5C 249.702,459.043 249.369,458.376 249.5,457.5C 249.336,454.813 249.503,452.146 250,449.5C 251.388,448.446 252.888,448.28 254.5,449C 258.393,452.39 261.727,456.223 264.5,460.5C 263.359,461.425 263.359,462.259 264.5,463C 263.309,463.698 262.309,464.531 261.5,465.5 Z"/></g>
<g><path style="opacity:1" fill="#ec9f3f" d="M 593.5,380.5 C 592.786,410.495 592.452,440.495 592.5,470.5C 591.833,458.838 591.5,447.005 591.5,435C 591.318,414.12 591.984,395.954 593.5,380.5 Z"/></g>
<g><path style="opacity:1" fill="#bf7d32" d="M 655.5,373.5 C 657.396,386.33 659.063,399.33 660.5,412.5C 660.565,412.938 660.399,413.272 660,413.5C 659.667,412.833 659.333,412.167 659,411.5C 658.167,413.167 657.333,414.833 656.5,416.5C 656.782,419.744 656.782,422.911 656.5,426C 653.829,428.699 652.162,431.533 651.5,434.5C 651.833,435.167 652.167,435.833 652.5,436.5C 653.396,435.494 654.062,435.494 654.5,436.5C 653.167,437.5 651.833,438.5 650.5,439.5C 649.212,441.299 649.212,442.965 650.5,444.5C 651.3,462.093 649.634,479.426 645.5,496.5C 644.732,495.737 644.232,494.737 644,493.5C 637.842,501.149 632.175,509.149 627,517.5C 623.527,520.973 620.027,524.473 616.5,528C 612.361,530.639 608.361,533.472 604.5,536.5C 603.516,533.572 603.183,530.572 603.5,527.5C 603.133,473.489 603.633,419.489 605,365.5C 605.671,364.748 606.504,364.414 607.5,364.5C 607.202,367.336 607.869,367.836 609.5,366C 609.167,365.667 608.833,365.333 608.5,365C 610.211,363.565 611.378,361.731 612,359.5C 612.697,353.463 612.53,347.463 611.5,341.5C 613.722,341.822 615.556,341.155 617,339.5C 618.398,340.051 619.732,340.384 621,340.5C 621.249,339.376 621.749,338.376 622.5,337.5C 622.736,338.247 623.07,339.08 623.5,340C 622.377,341.044 621.044,341.71 619.5,342C 621.329,342.273 622.829,343.107 624,344.5C 624.099,339.767 626.266,336.934 630.5,336C 629.833,336.333 629.167,336.667 628.5,337C 629.793,337.49 631.127,337.657 632.5,337.5C 632.649,338.552 632.483,339.552 632,340.5C 631.346,339.304 630.846,339.304 630.5,340.5C 631.906,342.026 633.072,343.693 634,345.5C 634.333,344.833 634.667,344.167 635,343.5C 637.435,346.228 639.435,345.894 641,342.5C 641.5,343 642,343.5 642.5,344C 641.352,345.649 640.019,347.149 638.5,348.5C 637.304,348.154 637.304,347.654 638.5,347C 636.087,346.516 633.754,346.85 631.5,348C 632,348.5 632.5,349 633,349.5C 635.94,348.306 637.273,349.306 637,352.5C 635.456,349.736 634.289,349.903 633.5,353C 635,354.5 636.5,356 638,357.5C 640.096,356.285 639.929,355.451 637.5,355C 638.167,353.667 639.167,352.667 640.5,352C 637.999,350.582 638.332,349.582 641.5,349C 641.167,348.667 640.833,348.333 640.5,348C 641.833,347.333 643.167,347.333 644.5,348C 643.401,350.606 642.068,353.106 640.5,355.5C 640.709,356.086 641.043,356.586 641.5,357C 638.035,357.934 637.702,359.434 640.5,361.5C 638.364,362.472 637.197,364.139 637,366.5C 635.493,364.992 633.827,363.659 632,362.5C 629.616,365.391 629.95,366.391 633,365.5C 635.96,368.299 638.46,367.966 640.5,364.5C 640.736,365.247 641.07,366.08 641.5,367C 638.879,367.906 639.046,368.406 642,368.5C 644.241,368.32 644.741,367.487 643.5,366C 644.825,366.148 645.992,365.982 647,365.5C 647.492,366.549 647.326,367.549 646.5,368.5C 647.631,369.604 648.465,369.271 649,367.5C 649.333,369.5 649.667,371.5 650,373.5C 650.036,371.059 650.869,369.059 652.5,367.5C 653.641,370.062 654.474,372.728 655,375.5C 655.464,374.906 655.631,374.239 655.5,373.5 Z"/></g>
<g><path style="opacity:1" fill="#f9eac9" d="M 550.5,340.5 C 552.451,340.227 553.951,340.893 555,342.5C 558.368,358.066 556.035,372.733 548,386.5C 535.159,401.664 519.326,405.831 500.5,399C 481.686,387.537 473.352,370.704 475.5,348.5C 485.279,346.698 495.279,345.698 505.5,345.5C 501.877,359.111 504.877,370.944 514.5,381C 526.56,385.217 534.394,381.05 538,368.5C 538.667,361.833 538.667,355.167 538,348.5C 537.358,346.238 536.525,344.071 535.5,342C 540.42,340.75 545.42,340.25 550.5,340.5 Z"/></g>
<g><path style="opacity:1" fill="#c28033" d="M 558.5,308.5 C 568.255,317.674 574.089,329.007 576,342.5C 579.004,362.133 575.004,380.133 564,396.5C 556.034,405.725 546.201,411.725 534.5,414.5C 508.79,416.569 488.957,406.902 475,385.5C 468.697,373.622 465.864,360.955 466.5,347.5C 469.43,348.299 472.43,348.632 475.5,348.5C 473.352,370.704 481.686,387.537 500.5,399C 519.326,405.831 535.159,401.664 548,386.5C 556.035,372.733 558.368,358.066 555,342.5C 553.951,340.893 552.451,340.227 550.5,340.5C 556.033,340.139 558.2,337.139 557,331.5C 556.184,330.177 555.017,329.511 553.5,329.5C 552.391,328.71 551.058,328.21 549.5,328C 551.167,327.667 552.833,327.333 554.5,327C 554.043,326.586 553.709,326.086 553.5,325.5C 554.651,324.269 555.817,324.269 557,325.5C 557.667,322.833 558.333,322.833 559,325.5C 559.411,322.485 558.577,319.818 556.5,317.5C 558.047,317.793 559.714,317.293 561.5,316C 559.109,314.691 559.109,313.691 561.5,313C 559.859,311.871 558.859,310.371 558.5,308.5 Z"/></g>
<g><path style="opacity:1" fill="#a06124" d="M 207.5,350.5 C 217.88,353.84 228.546,355.507 239.5,355.5C 234.684,356.326 229.684,356.826 224.5,357C 222.167,358 219.833,359 217.5,360C 218.672,360.419 219.672,361.085 220.5,362C 216.083,362.582 214.083,365.082 214.5,369.5C 211.833,369.5 209.167,369.5 206.5,369.5C 206.244,371.912 207.244,373.579 209.5,374.5C 210.696,374.154 210.696,373.654 209.5,373C 210.449,372.383 211.282,372.549 212,373.5C 212.249,372.376 212.749,371.376 213.5,370.5C 213.262,372.565 213.762,374.565 215,376.5C 215.308,375.692 215.808,375.025 216.5,374.5C 218.439,376.618 220.606,376.951 223,375.5C 224.615,376.656 224.615,377.989 223,379.5C 222.667,378.833 222.333,378.167 222,377.5C 221.5,378.667 220.667,379.5 219.5,380C 222.986,381.312 225.653,382.812 227.5,384.5C 215.846,380.679 205.846,374.346 197.5,365.5C 197.586,364.504 197.252,363.671 196.5,363C 198.248,362.92 199.915,362.087 201.5,360.5C 199.509,356.611 198.676,356.611 199,360.5C 198.667,360.167 198.333,359.833 198,359.5C 195.771,362.156 193.938,361.823 192.5,358.5C 194.573,358.432 196.24,357.599 197.5,356C 193.676,354.698 193.676,353.198 197.5,351.5C 198.386,352.325 198.719,353.325 198.5,354.5C 201.166,354.067 203.832,353.567 206.5,353C 205.167,352.667 203.833,352.333 202.5,352C 203,351.5 203.5,351 204,350.5C 205.292,351.791 206.458,351.791 207.5,350.5 Z"/></g>
<g><path style="opacity:1" fill="#c17f33" d="M 768.5,388.5 C 749.187,396.963 729.52,397.629 709.5,390.5C 725.817,389.93 741.484,386.097 756.5,379C 769.505,372.168 781.838,364.334 793.5,355.5C 794.222,355.918 794.722,356.584 795,357.5C 795.333,356.5 795.667,355.5 796,354.5C 796.5,355.667 797.333,356.5 798.5,357C 796.817,359.014 794.817,360.68 792.5,362C 793.416,362.374 794.25,362.874 795,363.5C 796.389,359.728 797.389,359.728 798,363.5C 798.419,362.328 799.085,361.328 800,360.5C 800.617,361.449 800.451,362.282 799.5,363C 803.223,364.365 803.223,366.032 799.5,368C 798.128,368.402 796.795,368.902 795.5,369.5C 795.002,368.397 794.669,367.397 794.5,366.5C 793.749,367.376 793.249,368.376 793,369.5C 792.333,368.167 791.667,368.167 791,369.5C 790.228,368.151 789.061,367.318 787.5,367C 788.5,366.667 789.5,366.333 790.5,366C 788.899,365.727 787.399,365.227 786,364.5C 785.333,365.5 785.333,366.5 786,367.5C 786.448,369.224 787.282,369.891 788.5,369.5C 786.887,370.427 785.221,371.261 783.5,372C 785,374.167 786.167,374 787,371.5C 787.346,373.218 787.846,374.885 788.5,376.5C 782.101,381.029 775.435,385.029 768.5,388.5 Z"/></g>
<g><path style="opacity:1" fill="#90551e" d="M 239.5,355.5 C 254.926,354.992 270.259,355.825 285.5,358C 288.208,359.069 290.875,360.236 293.5,361.5C 294.602,364.19 294.436,366.857 293,369.5C 287.233,379.147 278.733,384.98 267.5,387C 258.219,388.519 248.886,388.853 239.5,388C 235.205,387.431 231.205,386.264 227.5,384.5C 225.653,382.812 222.986,381.312 219.5,380C 220.667,379.5 221.5,378.667 222,377.5C 222.333,378.167 222.667,378.833 223,379.5C 224.615,377.989 224.615,376.656 223,375.5C 220.606,376.951 218.439,376.618 216.5,374.5C 215.808,375.025 215.308,375.692 215,376.5C 213.762,374.565 213.262,372.565 213.5,370.5C 212.749,371.376 212.249,372.376 212,373.5C 211.282,372.549 210.449,372.383 209.5,373C 210.696,373.654 210.696,374.154 209.5,374.5C 207.244,373.579 206.244,371.912 206.5,369.5C 209.167,369.5 211.833,369.5 214.5,369.5C 214.083,365.082 216.083,362.582 220.5,362C 219.672,361.085 218.672,360.419 217.5,360C 219.833,359 222.167,358 224.5,357C 229.684,356.826 234.684,356.326 239.5,355.5 Z"/></g>
<g><path style="opacity:1" fill="#cc8937" d="M 768.5,388.5 C 775.435,385.029 782.101,381.029 788.5,376.5C 787.846,374.885 787.346,373.218 787,371.5C 786.167,374 785,374.167 783.5,372C 785.221,371.261 786.887,370.427 788.5,369.5C 787.282,369.891 786.448,369.224 786,367.5C 785.333,366.5 785.333,365.5 786,364.5C 787.399,365.227 788.899,365.727 790.5,366C 789.5,366.333 788.5,366.667 787.5,367C 789.061,367.318 790.228,368.151 791,369.5C 791.667,368.167 792.333,368.167 793,369.5C 793.249,368.376 793.749,367.376 794.5,366.5C 794.669,367.397 795.002,368.397 795.5,369.5C 796.795,368.902 798.128,368.402 799.5,368C 803.223,366.032 803.223,364.365 799.5,363C 800.451,362.282 800.617,361.449 800,360.5C 799.085,361.328 798.419,362.328 798,363.5C 797.389,359.728 796.389,359.728 795,363.5C 794.25,362.874 793.416,362.374 792.5,362C 794.817,360.68 796.817,359.014 798.5,357C 797.333,356.5 796.5,355.667 796,354.5C 795.667,355.5 795.333,356.5 795,357.5C 794.722,356.584 794.222,355.918 793.5,355.5C 797.296,351.202 801.296,347.036 805.5,343C 804.551,342.383 803.718,342.549 803,343.5C 802.536,342.906 802.369,342.239 802.5,341.5C 807.197,340.651 811.197,338.484 814.5,335C 805.233,335.917 795.9,336.417 786.5,336.5C 784.369,335.686 782.036,335.186 779.5,335C 790.784,335.004 802.117,334.504 813.5,333.5C 813.762,332.022 813.429,330.689 812.5,329.5C 808.633,330.487 808.633,329.987 812.5,328C 804.023,327.976 796.356,327.143 789.5,325.5C 803.574,325.928 817.574,325.261 831.5,323.5C 821.981,349.198 805.315,369.031 781.5,383C 777.365,385.403 773.032,387.237 768.5,388.5 Z"/></g>
<g><path style="opacity:1" fill="#f8e9c8" d="M 340.5,316.5 C 351.026,321.596 361.693,326.429 372.5,331C 378.285,333.43 384.285,334.93 390.5,335.5C 390.826,339.884 390.492,344.217 389.5,348.5C 387.396,338.621 381.396,334.454 371.5,336C 366.568,338.686 363.735,342.852 363,348.5C 361.518,357.894 362.685,366.894 366.5,375.5C 359.204,380.655 351.204,383.822 342.5,385C 335.115,379.747 330.615,372.58 329,363.5C 325.165,345.841 328.999,330.174 340.5,316.5 Z"/></g>
<g><path style="opacity:1" fill="#94581f" d="M 802.5,341.5 C 802.369,342.239 802.536,342.906 803,343.5C 803.718,342.549 804.551,342.383 805.5,343C 801.296,347.036 797.296,351.202 793.5,355.5C 781.838,364.334 769.505,372.168 756.5,379C 741.484,386.097 725.817,389.93 709.5,390.5C 697.271,386.106 686.771,379.106 678,369.5C 676.226,366.285 674.726,362.952 673.5,359.5C 696.777,354.811 720.11,350.311 743.5,346C 757.818,345.024 772.152,344.358 786.5,344C 791.897,343.487 797.23,342.653 802.5,341.5 Z"/></g>
<g><path style="opacity:1" fill="#f8eacb" d="M 489.5,306.5 C 484.564,309.601 480.397,313.601 477,318.5C 472.768,324.298 469.601,330.631 467.5,337.5C 465.339,340.642 465.006,343.975 466.5,347.5C 465.864,360.955 468.697,373.622 475,385.5C 488.957,406.902 508.79,416.569 534.5,414.5C 507.637,421.713 485.47,414.379 468,392.5C 457.183,374.71 454.517,355.71 460,335.5C 464.694,322.413 472.527,311.746 483.5,303.5C 486.445,302.532 489.445,302.366 492.5,303C 491.29,304.039 490.29,305.206 489.5,306.5 Z"/></g>
<g><path style="opacity:1" fill="#150e05" d="M 547.5,329.5 C 549.5,329.5 551.5,329.5 553.5,329.5C 555.017,329.511 556.184,330.177 557,331.5C 558.2,337.139 556.033,340.139 550.5,340.5C 545.42,340.25 540.42,340.75 535.5,342C 536.525,344.071 537.358,346.238 538,348.5C 538.667,355.167 538.667,361.833 538,368.5C 534.394,381.05 526.56,385.217 514.5,381C 504.877,370.944 501.877,359.111 505.5,345.5C 495.279,345.698 485.279,346.698 475.5,348.5C 472.43,348.632 469.43,348.299 466.5,347.5C 465.006,343.975 465.339,340.642 467.5,337.5C 494.268,335.675 520.934,333.009 547.5,329.5 Z"/></g>
<g><path style="opacity:1" fill="#965a21" d="M 283.5,317.5 C 285.827,317.665 287.993,318.331 290,319.5C 292.261,328.731 293.761,338.064 294.5,347.5C 283.597,345.717 272.597,345.05 261.5,345.5C 265.634,344.515 269.968,344.182 274.5,344.5C 274.232,335.365 271.566,327.032 266.5,319.5C 272.319,318.833 277.986,318.167 283.5,317.5 Z"/></g>
<g><path style="opacity:1" fill="#c28034" d="M 283.5,317.5 C 277.986,318.167 272.319,318.833 266.5,319.5C 271.566,327.032 274.232,335.365 274.5,344.5C 269.968,344.182 265.634,344.515 261.5,345.5C 248.667,346.104 235.834,346.771 223,347.5C 215.112,347.14 207.279,346.64 199.5,346C 201.817,348.157 204.484,349.657 207.5,350.5C 206.458,351.791 205.292,351.791 204,350.5C 203.5,351 203,351.5 202.5,352C 203.833,352.333 205.167,352.667 206.5,353C 203.832,353.567 201.166,354.067 198.5,354.5C 198.719,353.325 198.386,352.325 197.5,351.5C 193.676,353.198 193.676,354.698 197.5,356C 196.24,357.599 194.573,358.432 192.5,358.5C 193.938,361.823 195.771,362.156 198,359.5C 198.333,359.833 198.667,360.167 199,360.5C 198.676,356.611 199.509,356.611 201.5,360.5C 199.915,362.087 198.248,362.92 196.5,363C 197.252,363.671 197.586,364.504 197.5,365.5C 187.11,356.383 179.444,345.383 174.5,332.5C 186.774,334.971 199.107,335.138 211.5,333C 227.15,329.005 242.484,324.005 257.5,318C 266.158,316.333 274.825,316.166 283.5,317.5 Z"/></g>
<g><path style="opacity:1" fill="#c38134" d="M 323.5,320.5 C 316.329,338.412 315.662,356.578 321.5,375C 323.043,380.085 325.376,384.752 328.5,389C 317.225,390.576 305.892,390.909 294.5,390C 303.656,380.212 308.323,368.545 308.5,355C 306.617,340.419 304.284,325.919 301.5,311.5C 301.596,307.689 302.262,307.689 303.5,311.5C 304.675,310.145 305.675,310.312 306.5,312C 305.692,312.308 305.025,312.808 304.5,313.5C 304.848,316.41 306.348,318.41 309,319.5C 308.758,317.862 307.925,316.362 306.5,315C 306.833,314.833 307.167,314.667 307.5,314.5C 308.59,315.727 309.924,316.56 311.5,317C 311.043,317.414 310.709,317.914 310.5,318.5C 312.276,319.315 312.943,320.482 312.5,322C 314.035,322.496 315.535,322.33 317,321.5C 318.168,322.509 319.335,323.509 320.5,324.5C 321.15,322.816 322.15,321.483 323.5,320.5 Z"/></g>
<g><path style="opacity:1" fill="#b8762e" d="M 300.5,288.5 C 300.5,289.833 300.5,291.167 300.5,292.5C 301.552,292.351 302.552,292.517 303.5,293C 302.786,294.343 303.12,295.676 304.5,297C 303.483,298.049 303.316,299.216 304,300.5C 304.278,299.584 304.778,298.918 305.5,298.5C 305.297,300.39 305.963,301.89 307.5,303C 314.841,305.091 322.008,307.591 329,310.5C 327.892,314.139 326.059,317.473 323.5,320.5C 322.15,321.483 321.15,322.816 320.5,324.5C 319.335,323.509 318.168,322.509 317,321.5C 315.535,322.33 314.035,322.496 312.5,322C 312.943,320.482 312.276,319.315 310.5,318.5C 310.709,317.914 311.043,317.414 311.5,317C 309.924,316.56 308.59,315.727 307.5,314.5C 307.167,314.667 306.833,314.833 306.5,315C 307.925,316.362 308.758,317.862 309,319.5C 306.348,318.41 304.848,316.41 304.5,313.5C 305.025,312.808 305.692,312.308 306.5,312C 305.675,310.312 304.675,310.145 303.5,311.5C 302.262,307.689 301.596,307.689 301.5,311.5C 300.072,306.912 299.405,302.079 299.5,297C 299.502,293.979 299.836,291.146 300.5,288.5 Z"/></g>
<g><path style="opacity:1" fill="#9e6022" d="M 631.5,292.5 C 639.354,299.601 648.354,304.934 658.5,308.5C 657.479,310.188 656.145,311.521 654.5,312.5C 654.565,312.062 654.399,311.728 654,311.5C 652.867,313.211 651.367,313.711 649.5,313C 641.912,308.631 635.746,302.798 631,295.5C 630.26,294.251 630.427,293.251 631.5,292.5 Z"/></g>
<g><path style="opacity:1" fill="#c19c6d" d="M 219.5,245.5 C 221.401,247.796 223.734,249.629 226.5,251C 248.803,260.152 271.803,266.319 295.5,269.5C 289.791,278.636 287.125,288.636 287.5,299.5C 260.322,297.718 234.655,290.551 210.5,278C 178.922,258.31 167.422,230.143 176,193.5C 177.571,184.618 180.404,176.284 184.5,168.5C 184.81,169.738 185.31,169.738 186,168.5C 187.924,164.983 189.591,161.316 191,157.5C 191.654,156.304 192.154,156.304 192.5,157.5C 187.335,175.791 187.168,194.124 192,212.5C 195.894,223.789 202.394,233.289 211.5,241C 213.817,243.157 216.484,244.657 219.5,245.5 Z"/></g>
<g><path style="opacity:1" fill="#bf9a6b" d="M 803.5,253.5 C 793.212,265.173 780.545,273.673 765.5,279C 743.456,286.51 720.789,290.844 697.5,292C 683.517,293.256 669.517,293.589 655.5,293C 644.814,287.151 637.148,278.651 632.5,267.5C 664.715,265.977 696.715,262.144 728.5,256C 742.825,251.892 756.492,246.226 769.5,239C 772.176,236.334 775.176,234.167 778.5,232.5C 779.884,233.801 781.384,233.801 783,232.5C 783.667,233.5 783.667,234.5 783,235.5C 781.927,234.72 780.76,234.887 779.5,236C 781.045,237.369 782.711,237.202 784.5,235.5C 785.641,234.575 785.641,233.741 784.5,233C 785.449,232.383 786.282,232.549 787,233.5C 787.308,232.692 787.808,232.025 788.5,231.5C 788.906,232.557 788.906,233.891 788.5,235.5C 787.5,235.5 786.5,235.5 785.5,235.5C 785.347,241.324 786.013,241.657 787.5,236.5C 789.614,237.034 791.448,238.034 793,239.5C 794.577,239.472 796.244,238.805 798,237.5C 802.509,239.563 805.343,238.23 806.5,233.5C 806,233.167 805.5,232.833 805,232.5C 803.674,233.799 802.34,235.132 801,236.5C 799.697,235.888 798.53,235.554 797.5,235.5C 799.046,234.316 800.713,233.316 802.5,232.5C 803.747,230.958 803.747,229.458 802.5,228C 803.966,227.365 805.3,226.531 806.5,225.5C 807.696,225.846 807.696,226.346 806.5,227C 807.877,228.241 809.21,228.408 810.5,227.5C 809.975,226.808 809.308,226.308 808.5,226C 809.931,225.535 811.097,224.701 812,223.5C 812.5,224.667 813.333,225.5 814.5,226C 813.663,227.011 813.33,228.178 813.5,229.5C 812.127,229.343 810.793,229.51 809.5,230C 810.167,230.333 810.833,230.667 811.5,231C 809.02,231.915 808.353,233.415 809.5,235.5C 808.738,235.911 807.738,236.077 806.5,236C 807.191,237.067 807.691,238.234 808,239.5C 808.333,239.167 808.667,238.833 809,238.5C 811.958,242.644 810.791,245.644 805.5,247.5C 805.709,248.086 806.043,248.586 806.5,249C 804.859,250.129 803.859,251.629 803.5,253.5 Z"/></g>
<g><path style="opacity:1" fill="#e5c798" d="M 244.5,206.5 C 253.799,211.992 263.799,215.825 274.5,218C 292.782,221.084 311.115,223.584 329.5,225.5C 325.043,233.706 321.876,242.373 320,251.5C 310.221,255.465 302.054,261.465 295.5,269.5C 271.803,266.319 248.803,260.152 226.5,251C 223.734,249.629 221.401,247.796 219.5,245.5C 217.571,243.852 215.571,242.185 213.5,240.5C 212.269,239.349 212.269,238.183 213.5,237C 212.251,235.176 211.085,235.343 210,237.5C 209.333,236.833 209.333,236.167 210,235.5C 212.606,234.23 214.939,232.563 217,230.5C 217.336,232.074 218.169,233.408 219.5,234.5C 217.445,235.187 215.779,236.354 214.5,238C 215,238.5 215.5,239 216,239.5C 217.803,235.488 218.803,235.822 219,240.5C 219.471,238.754 220.138,237.087 221,235.5C 221.219,236.938 221.719,238.271 222.5,239.5C 225.003,238.45 226.503,239.45 227,242.5C 227.915,241.672 228.581,240.672 229,239.5C 231.126,243.014 233.293,243.18 235.5,240C 235.048,238.388 233.715,237.388 231.5,237C 232.759,236.077 234.092,235.243 235.5,234.5C 234.609,233.41 233.609,233.41 232.5,234.5C 231.417,233.635 231.251,232.635 232,231.5C 234.865,230.959 236.865,232.293 238,235.5C 238.667,234.167 239.333,232.833 240,231.5C 240.893,232.711 241.726,232.711 242.5,231.5C 241.817,228.539 240.984,228.205 240,230.5C 238.693,229.228 237.193,228.228 235.5,227.5C 237.006,226.253 238.506,226.253 240,227.5C 240.333,226.5 240.667,225.5 241,224.5C 241.471,226.246 242.138,227.913 243,229.5C 244.852,227.77 244.686,226.604 242.5,226C 242.833,225.667 243.167,225.333 243.5,225C 240.16,221.31 240.826,219.143 245.5,218.5C 245.329,221.797 245.995,222.131 247.5,219.5C 250.165,222.208 251.498,221.541 251.5,217.5C 249.473,217.662 247.473,217.495 245.5,217C 247.595,216.444 247.762,215.944 246,215.5C 243.893,216.657 242.726,215.824 242.5,213C 242.905,212.055 243.572,211.388 244.5,211C 242.728,209.513 240.728,209.18 238.5,210C 240.932,211.087 240.598,211.587 237.5,211.5C 238.244,209.014 239.744,207.014 242,205.5C 242.671,206.252 243.504,206.586 244.5,206.5 Z"/></g>
<g><path style="opacity:1" fill="#e6c99a" d="M 792.5,130.5 C 801.899,150.095 805.065,171.095 802,193.5C 798.248,209.011 790.415,222.011 778.5,232.5C 775.176,234.167 772.176,236.334 769.5,239C 756.492,246.226 742.825,251.892 728.5,256C 696.715,262.144 664.715,265.977 632.5,267.5C 628.676,252.29 630.176,237.623 637,223.5C 638.715,221.241 640.548,219.074 642.5,217C 668.101,214.676 693.434,210.676 718.5,205C 750.045,197.084 764.212,176.918 761,144.5C 758.951,131.685 755.284,119.352 750,107.5C 744.588,97.9846 739.255,88.6513 734,79.5C 757.227,92.2011 776.727,109.201 792.5,130.5 Z"/></g>
<g><path style="opacity:1" fill="#c58336" d="M 626.5,213.5 C 629.059,213.198 631.393,213.532 633.5,214.5C 627.973,218.53 624.14,223.863 622,230.5C 614.06,253.005 617.226,273.671 631.5,292.5C 630.427,293.251 630.26,294.251 631,295.5C 635.746,302.798 641.912,308.631 649.5,313C 651.367,313.711 652.867,313.211 654,311.5C 654.399,311.728 654.565,312.062 654.5,312.5C 654.047,313.458 653.381,314.292 652.5,315C 653.333,315.167 654.167,315.333 655,315.5C 673.68,309.308 692.847,306.474 712.5,307C 730.269,309.476 747.603,313.81 764.5,320C 772.964,321.848 781.298,323.682 789.5,325.5C 796.356,327.143 804.023,327.976 812.5,328C 808.633,329.987 808.633,330.487 812.5,329.5C 813.429,330.689 813.762,332.022 813.5,333.5C 802.117,334.504 790.784,335.004 779.5,335C 782.036,335.186 784.369,335.686 786.5,336.5C 769.522,335.126 752.522,334.626 735.5,335C 715.804,338.028 696.137,341.195 676.5,344.5C 666.424,343.898 656.758,341.564 647.5,337.5C 647.167,338 646.833,338.5 646.5,339C 651.855,349.896 654.855,361.396 655.5,373.5C 655.631,374.239 655.464,374.906 655,375.5C 654.474,372.728 653.641,370.062 652.5,367.5C 650.869,369.059 650.036,371.059 650,373.5C 649.667,371.5 649.333,369.5 649,367.5C 648.465,369.271 647.631,369.604 646.5,368.5C 647.326,367.549 647.492,366.549 647,365.5C 645.992,365.982 644.825,366.148 643.5,366C 644.741,367.487 644.241,368.32 642,368.5C 639.046,368.406 638.879,367.906 641.5,367C 641.07,366.08 640.736,365.247 640.5,364.5C 638.46,367.966 635.96,368.299 633,365.5C 629.95,366.391 629.616,365.391 632,362.5C 633.827,363.659 635.493,364.992 637,366.5C 637.197,364.139 638.364,362.472 640.5,361.5C 637.702,359.434 638.035,357.934 641.5,357C 641.043,356.586 640.709,356.086 640.5,355.5C 642.068,353.106 643.401,350.606 644.5,348C 643.167,347.333 641.833,347.333 640.5,348C 640.833,348.333 641.167,348.667 641.5,349C 638.332,349.582 637.999,350.582 640.5,352C 639.167,352.667 638.167,353.667 637.5,355C 639.929,355.451 640.096,356.285 638,357.5C 636.5,356 635,354.5 633.5,353C 634.289,349.903 635.456,349.736 637,352.5C 637.273,349.306 635.94,348.306 633,349.5C 632.5,349 632,348.5 631.5,348C 633.754,346.85 636.087,346.516 638.5,347C 637.304,347.654 637.304,348.154 638.5,348.5C 640.019,347.149 641.352,345.649 642.5,344C 642,343.5 641.5,343 641,342.5C 639.435,345.894 637.435,346.228 635,343.5C 634.667,344.167 634.333,344.833 634,345.5C 633.072,343.693 631.906,342.026 630.5,340.5C 630.846,339.304 631.346,339.304 632,340.5C 632.483,339.552 632.649,338.552 632.5,337.5C 631.127,337.657 629.793,337.49 628.5,337C 629.167,336.667 629.833,336.333 630.5,336C 626.266,336.934 624.099,339.767 624,344.5C 622.829,343.107 621.329,342.273 619.5,342C 621.044,341.71 622.377,341.044 623.5,340C 623.07,339.08 622.736,338.247 622.5,337.5C 621.749,338.376 621.249,339.376 621,340.5C 619.732,340.384 618.398,340.051 617,339.5C 615.556,341.155 613.722,341.822 611.5,341.5C 612.53,347.463 612.697,353.463 612,359.5C 611.378,361.731 610.211,363.565 608.5,365C 608.833,365.333 609.167,365.667 609.5,366C 607.869,367.836 607.202,367.336 607.5,364.5C 612.143,357.113 612.643,349.446 609,341.5C 608.097,340.299 606.931,339.465 605.5,339C 600.931,339.328 596.431,339.162 592,338.5C 580.808,291.665 551.308,270.499 503.5,275C 478.727,281.776 460.56,296.61 449,319.5C 441.307,317.14 436.307,312.14 434,304.5C 433.011,299.723 432.511,294.889 432.5,290C 432.809,281.71 433.642,273.543 435,265.5C 430.531,272.771 426.865,280.438 424,288.5C 420.514,301.189 422.514,312.855 430,323.5C 434.079,327.621 438.913,330.288 444.5,331.5C 437.992,358.791 442.825,383.791 459,406.5C 468.058,417.276 479.224,424.942 492.5,429.5C 491.048,430.302 489.382,430.802 487.5,431C 489.567,432.036 490.734,433.536 491,435.5C 489.507,433.652 487.674,432.819 485.5,433C 486.956,433.423 487.456,434.256 487,435.5C 486,434.167 485,434.167 484,435.5C 482.915,434.707 481.748,434.04 480.5,433.5C 479.604,434.506 478.938,434.506 478.5,433.5C 480.078,432.702 481.744,432.202 483.5,432C 482.109,430.35 480.609,429.85 479,430.5C 477.887,429.24 477.72,428.073 478.5,427C 477.065,427.311 475.732,427.145 474.5,426.5C 472.169,428.532 470.836,430.699 470.5,433C 471.126,433.75 471.626,434.584 472,435.5C 474.984,433.293 475.15,433.793 472.5,437C 475.276,438.779 474.943,439.779 471.5,440C 474.464,440.84 474.797,441.84 472.5,443C 473.793,443.49 475.127,443.657 476.5,443.5C 476.5,442.5 476.5,441.5 476.5,440.5C 478.484,440.617 480.15,439.95 481.5,438.5C 482.086,438.709 482.586,439.043 483,439.5C 483.949,436.8 485.783,435.967 488.5,437C 487.299,437.903 486.465,439.069 486,440.5C 485.667,439.833 485.333,439.167 485,438.5C 483.392,440.1 481.559,441.433 479.5,442.5C 480.397,442.669 481.397,443.002 482.5,443.5C 480.345,444.41 478.345,445.577 476.5,447C 477.191,448.067 477.691,449.234 478,450.5C 478.75,449.874 479.584,449.374 480.5,449C 479.66,447.334 480.16,447.167 482,448.5C 483.512,446.043 484.846,446.043 486,448.5C 486.219,447.062 486.719,445.729 487.5,444.5C 489.156,446.022 490.323,445.689 491,443.5C 491.75,444.126 492.584,444.626 493.5,445C 492.624,446.586 491.624,448.086 490.5,449.5C 489.833,449.167 489.167,448.833 488.5,448.5C 487.813,450.274 486.98,451.941 486,453.5C 485.268,451.077 483.768,449.91 481.5,450C 482.687,451.019 483.687,452.186 484.5,453.5C 483.098,454.842 483.431,455.676 485.5,456C 483.48,458.052 481.813,457.885 480.5,455.5C 481.836,453.625 481.336,452.292 479,451.5C 477.301,452.406 475.467,452.739 473.5,452.5C 474.23,451.288 475.23,450.288 476.5,449.5C 476.154,448.304 475.654,448.304 475,449.5C 474.667,448.167 474.333,446.833 474,445.5C 472.632,446.993 472.465,448.493 473.5,450C 472.299,450.903 471.465,452.069 471,453.5C 470.982,451.203 471.149,448.869 471.5,446.5C 469.876,446.64 468.71,445.973 468,444.5C 467.667,446.833 467.333,449.167 467,451.5C 466.802,449.618 466.302,447.952 465.5,446.5C 464.641,427.268 455.307,414.101 437.5,407C 430.468,405.128 423.302,404.295 416,404.5C 405.799,404.893 395.633,405.726 385.5,407C 375.5,407.667 365.5,407.667 355.5,407C 348.255,406.294 341.255,404.627 334.5,402C 356.626,398.754 375.459,389.254 391,373.5C 393.254,369.993 395.254,366.327 397,362.5C 399.479,352.961 401.312,343.295 402.5,333.5C 405.837,331.66 407.504,328.827 407.5,325C 405.647,316.405 404.314,307.739 403.5,299C 403.691,290.07 405.691,281.57 409.5,273.5C 409.167,273.167 408.833,272.833 408.5,272.5C 393.006,285.113 388.339,301.113 394.5,320.5C 387.161,319.999 380.161,318.166 373.5,315C 358.624,307.227 343.29,300.561 327.5,295C 320.81,293.107 314.143,293.107 307.5,295C 306.177,295.816 305.511,296.983 305.5,298.5C 304.778,298.918 304.278,299.584 304,300.5C 303.316,299.216 303.483,298.049 304.5,297C 303.12,295.676 302.786,294.343 303.5,293C 302.552,292.517 301.552,292.351 300.5,292.5C 300.5,291.167 300.5,289.833 300.5,288.5C 304.042,275.784 312.042,266.951 324.5,262C 331.102,259.466 337.769,257.133 344.5,255C 341.016,253.398 337.349,252.232 333.5,251.5C 332.417,250.635 332.251,249.635 333,248.5C 339.338,234.163 348.672,222.163 361,212.5C 389.044,226.777 418.544,230.611 449.5,224C 473.094,216.101 497.094,209.768 521.5,205C 549.85,200.701 577.85,202.368 605.5,210C 595.78,216.607 591.28,225.774 592,237.5C 600.157,224.673 611.657,216.673 626.5,213.5 Z"/></g>
<g><path style="opacity:1" fill="#c58335" d="M 547.5,329.5 C 520.934,333.009 494.268,335.675 467.5,337.5C 469.601,330.631 472.768,324.298 477,318.5C 480.397,313.601 484.564,309.601 489.5,306.5C 514.363,291.117 533.196,296.45 546,322.5C 546.977,324.74 547.477,327.073 547.5,329.5 Z"/></g>
<g><path style="opacity:1" fill="#ac6927" d="M 558.5,308.5 C 558.859,310.371 559.859,311.871 561.5,313C 559.109,313.691 559.109,314.691 561.5,316C 559.714,317.293 558.047,317.793 556.5,317.5C 558.577,319.818 559.411,322.485 559,325.5C 558.333,322.833 557.667,322.833 557,325.5C 555.817,324.269 554.651,324.269 553.5,325.5C 553.709,326.086 554.043,326.586 554.5,327C 552.833,327.333 551.167,327.667 549.5,328C 551.058,328.21 552.391,328.71 553.5,329.5C 551.5,329.5 549.5,329.5 547.5,329.5C 547.477,327.073 546.977,324.74 546,322.5C 533.196,296.45 514.363,291.117 489.5,306.5C 490.29,305.206 491.29,304.039 492.5,303C 489.445,302.366 486.445,302.532 483.5,303.5C 496.52,291.574 511.854,287.408 529.5,291C 541.128,293.804 550.795,299.638 558.5,308.5 Z"/></g>
<g><path style="opacity:1" fill="#150d04" d="M 522.5,232.5 C 551.447,229.697 568.947,242.364 575,270.5C 564.63,259.233 552.13,251.4 537.5,247C 528.953,246.146 520.619,247.146 512.5,250C 492.744,258.621 474.911,270.121 459,284.5C 468.246,265.248 482.412,250.414 501.5,240C 508.435,236.969 515.435,234.469 522.5,232.5 Z"/></g>
<g><path style="opacity:1" fill="#8a5a25" d="M 626.5,213.5 C 629.024,212.2 631.691,212.2 634.5,213.5C 634.376,214.107 634.043,214.44 633.5,214.5C 631.393,213.532 629.059,213.198 626.5,213.5 Z"/></g>
<g><path style="opacity:1" fill="#412310" d="M 376.5,200.5 C 391.634,202.205 406.634,202.538 421.5,201.5C 430.091,206.961 439.424,210.461 449.5,212C 428.023,215.938 407.023,214.271 386.5,207C 382.589,205.556 379.256,203.389 376.5,200.5 Z"/></g>
<g><path style="opacity:1" fill="#e6ca9c" d="M 244.5,206.5 C 243.504,206.586 242.671,206.252 242,205.5C 239.744,207.014 238.244,209.014 237.5,211.5C 240.598,211.587 240.932,211.087 238.5,210C 240.728,209.18 242.728,209.513 244.5,211C 243.572,211.388 242.905,212.055 242.5,213C 242.726,215.824 243.893,216.657 246,215.5C 247.762,215.944 247.595,216.444 245.5,217C 247.473,217.495 249.473,217.662 251.5,217.5C 251.498,221.541 250.165,222.208 247.5,219.5C 245.995,222.131 245.329,221.797 245.5,218.5C 240.826,219.143 240.16,221.31 243.5,225C 243.167,225.333 242.833,225.667 242.5,226C 244.686,226.604 244.852,227.77 243,229.5C 242.138,227.913 241.471,226.246 241,224.5C 240.667,225.5 240.333,226.5 240,227.5C 238.506,226.253 237.006,226.253 235.5,227.5C 237.193,228.228 238.693,229.228 240,230.5C 240.984,228.205 241.817,228.539 242.5,231.5C 241.726,232.711 240.893,232.711 240,231.5C 239.333,232.833 238.667,234.167 238,235.5C 236.865,232.293 234.865,230.959 232,231.5C 231.251,232.635 231.417,233.635 232.5,234.5C 233.609,233.41 234.609,233.41 235.5,234.5C 234.092,235.243 232.759,236.077 231.5,237C 233.715,237.388 235.048,238.388 235.5,240C 233.293,243.18 231.126,243.014 229,239.5C 228.581,240.672 227.915,241.672 227,242.5C 226.503,239.45 225.003,238.45 222.5,239.5C 221.719,238.271 221.219,236.938 221,235.5C 220.138,237.087 219.471,238.754 219,240.5C 218.803,235.822 217.803,235.488 216,239.5C 215.5,239 215,238.5 214.5,238C 215.779,236.354 217.445,235.187 219.5,234.5C 218.169,233.408 217.336,232.074 217,230.5C 214.939,232.563 212.606,234.23 210,235.5C 209.333,236.167 209.333,236.833 210,237.5C 211.085,235.343 212.251,235.176 213.5,237C 212.269,238.183 212.269,239.349 213.5,240.5C 215.571,242.185 217.571,243.852 219.5,245.5C 216.484,244.657 213.817,243.157 211.5,241C 202.394,233.289 195.894,223.789 192,212.5C 187.168,194.124 187.335,175.791 192.5,157.5C 192.154,156.304 191.654,156.304 191,157.5C 189.591,161.316 187.924,164.983 186,168.5C 185.31,169.738 184.81,169.738 184.5,168.5C 198.526,138.308 218.859,113.141 245.5,93C 246.167,92.3333 246.833,92.3333 247.5,93C 231.788,118.679 224.955,146.512 227,176.5C 228.103,183.811 230.769,190.478 235,196.5C 238.371,199.703 241.538,203.036 244.5,206.5 Z"/></g>
<g><path style="opacity:1" fill="#c5a171" d="M 792.5,130.5 C 813.756,154.763 823.589,183.096 822,215.5C 820.332,230.5 814.165,243.167 803.5,253.5C 803.859,251.629 804.859,250.129 806.5,249C 806.043,248.586 805.709,248.086 805.5,247.5C 810.791,245.644 811.958,242.644 809,238.5C 808.667,238.833 808.333,239.167 808,239.5C 807.691,238.234 807.191,237.067 806.5,236C 807.738,236.077 808.738,235.911 809.5,235.5C 808.353,233.415 809.02,231.915 811.5,231C 810.833,230.667 810.167,230.333 809.5,230C 810.793,229.51 812.127,229.343 813.5,229.5C 813.33,228.178 813.663,227.011 814.5,226C 813.333,225.5 812.5,224.667 812,223.5C 811.097,224.701 809.931,225.535 808.5,226C 809.308,226.308 809.975,226.808 810.5,227.5C 809.21,228.408 807.877,228.241 806.5,227C 807.696,226.346 807.696,225.846 806.5,225.5C 805.3,226.531 803.966,227.365 802.5,228C 803.747,229.458 803.747,230.958 802.5,232.5C 800.713,233.316 799.046,234.316 797.5,235.5C 798.53,235.554 799.697,235.888 801,236.5C 802.34,235.132 803.674,233.799 805,232.5C 805.5,232.833 806,233.167 806.5,233.5C 805.343,238.23 802.509,239.563 798,237.5C 796.244,238.805 794.577,239.472 793,239.5C 791.448,238.034 789.614,237.034 787.5,236.5C 786.013,241.657 785.347,241.324 785.5,235.5C 786.5,235.5 787.5,235.5 788.5,235.5C 788.906,233.891 788.906,232.557 788.5,231.5C 787.808,232.025 787.308,232.692 787,233.5C 786.282,232.549 785.449,232.383 784.5,233C 785.641,233.741 785.641,234.575 784.5,235.5C 782.711,237.202 781.045,237.369 779.5,236C 780.76,234.887 781.927,234.72 783,235.5C 783.667,234.5 783.667,233.5 783,232.5C 781.384,233.801 779.884,233.801 778.5,232.5C 790.415,222.011 798.248,209.011 802,193.5C 805.065,171.095 801.899,150.095 792.5,130.5 Z"/></g>
<g><path style="opacity:1" fill="#6b3d18" d="M 532.5,192.5 C 523.438,188.623 514.105,185.457 504.5,183C 500.549,181.551 496.882,179.551 493.5,177C 484.197,174.066 474.863,171.232 465.5,168.5C 463.431,168.824 463.098,169.658 464.5,171C 467.147,172.299 469.814,173.632 472.5,175C 480.979,182.534 489.312,190.034 497.5,197.5C 475.759,202.81 454.093,202.643 432.5,197C 423.899,193.357 415.399,189.523 407,185.5C 410.128,192.14 414.962,197.474 421.5,201.5C 406.634,202.538 391.634,202.205 376.5,200.5C 363.107,193.919 354.607,183.253 351,168.5C 350.179,165.446 350.345,162.446 351.5,159.5C 364.774,170.32 379.44,172.82 395.5,167C 405.027,159.151 415.36,152.484 426.5,147C 443.755,140.356 461.088,140.023 478.5,146C 488.502,150.831 498.168,155.831 507.5,161C 491.382,142.886 472.382,128.553 450.5,118C 494.794,112.756 527.627,130.59 549,171.5C 551.557,177.998 553.39,184.665 554.5,191.5C 547.167,191.833 539.833,192.167 532.5,192.5 Z"/></g>
<g><path style="opacity:1" fill="#3f220e" d="M 532.5,192.5 C 520.906,193.779 509.239,195.446 497.5,197.5C 489.312,190.034 480.979,182.534 472.5,175C 469.814,173.632 467.147,172.299 464.5,171C 463.098,169.658 463.431,168.824 465.5,168.5C 474.863,171.232 484.197,174.066 493.5,177C 496.882,179.551 500.549,181.551 504.5,183C 514.105,185.457 523.438,188.623 532.5,192.5 Z"/></g>
<g><path style="opacity:1" fill="#955920" d="M 849.5,1156.5 C 846.903,1150.18 846.903,1143.85 849.5,1137.5C 849.376,1136.89 849.043,1136.56 848.5,1136.5C 848.628,1134.91 849.295,1133.58 850.5,1132.5C 853.947,1131.36 856.781,1129.36 859,1126.5C 862.447,1138.94 859.28,1148.94 849.5,1156.5 Z"/></g>
<g><path style="opacity:1" fill="#8d531d" d="M 721.5,1157.5 C 721.458,1158.81 721.458,1160.15 721.5,1161.5C 722.274,1162.71 723.107,1162.71 724,1161.5C 725.957,1168.37 727.124,1175.37 727.5,1182.5C 711.407,1176.38 697.241,1167.38 685,1155.5C 684.333,1144.5 684.333,1133.5 685,1122.5C 694.781,1136.78 706.948,1148.45 721.5,1157.5 Z"/></g>
<g><path style="opacity:1" fill="#f6ebd8" d="M 564.5,1378.5 C 526.831,1376.58 489.164,1376.24 451.5,1377.5C 450.371,1364.19 447.704,1351.19 443.5,1338.5C 447.233,1338.21 450.066,1336.54 452,1333.5C 450.936,1293.48 451.603,1253.48 454,1213.5C 455.689,1193.89 458.856,1174.56 463.5,1155.5C 470.79,1155.13 477.956,1156.13 485,1158.5C 496.546,1181.59 507.546,1204.92 518,1228.5C 534.925,1267.28 548.258,1307.28 558,1348.5C 561.397,1351.78 565.23,1354.45 569.5,1356.5C 568.011,1363.99 566.344,1371.33 564.5,1378.5 Z"/></g>
<g><path style="opacity:1" fill="#140e05" d="M 589.5,1139.5 C 591.862,1157.29 595.029,1174.96 599,1192.5C 610.23,1235.53 620.23,1278.86 629,1322.5C 629.667,1327.17 629.667,1331.83 629,1336.5C 625.191,1329.88 622.191,1322.88 620,1315.5C 609.23,1274.09 599.564,1232.42 591,1190.5C 589.412,1176.58 587.579,1162.75 585.5,1149C 586.252,1148.33 586.586,1147.5 586.5,1146.5C 586.338,1144.47 586.505,1142.47 587,1140.5C 587.671,1139.75 588.504,1139.41 589.5,1139.5 Z"/></g>
<g><path style="opacity:1" fill="#c17e32" d="M 848.5,1136.5 C 849.043,1136.56 849.376,1136.89 849.5,1137.5C 846.903,1143.85 846.903,1150.18 849.5,1156.5C 814.717,1192.02 774.05,1200.69 727.5,1182.5C 727.124,1175.37 725.957,1168.37 724,1161.5C 723.107,1162.71 722.274,1162.71 721.5,1161.5C 721.458,1160.15 721.458,1158.81 721.5,1157.5C 758.683,1180.32 795.683,1180.16 832.5,1157C 839.573,1151.44 844.907,1144.6 848.5,1136.5 Z"/></g>
<g><path style="opacity:1" fill="#272b2b" d="M 670.5,1228.5 C 674.538,1260.99 679.705,1293.33 686,1325.5C 686.814,1327.9 686.647,1330.24 685.5,1332.5C 653.253,1352.37 619.253,1355.87 583.5,1343C 578.211,1341.69 574.044,1338.86 571,1334.5C 556.619,1276.52 535.452,1221.18 507.5,1168.5C 509.717,1165.64 511.217,1165.97 512,1169.5C 513.337,1168 515.004,1167 517,1166.5C 517.333,1167.17 517.667,1167.83 518,1168.5C 518.427,1165.51 519.594,1165.01 521.5,1167C 520.023,1168.88 518.69,1170.88 517.5,1173C 520.54,1173.39 521.54,1172.22 520.5,1169.5C 524.022,1168.17 524.355,1166.34 521.5,1164C 529.44,1159.78 537.606,1155.95 546,1152.5C 546.333,1153.17 546.667,1153.83 547,1154.5C 553.431,1152.04 559.931,1149.7 566.5,1147.5C 566.911,1148.26 567.077,1149.26 567,1150.5C 567.667,1149.17 568.333,1149.17 569,1150.5C 569.492,1149.45 569.326,1148.45 568.5,1147.5C 570.108,1146.68 571.775,1146.01 573.5,1145.5C 574.97,1151.96 575.637,1151.63 575.5,1144.5C 578.694,1143.24 582.027,1142.58 585.5,1142.5C 585.232,1144.1 585.566,1145.43 586.5,1146.5C 586.586,1147.5 586.252,1148.33 585.5,1149C 587.579,1162.75 589.412,1176.58 591,1190.5C 599.564,1232.42 609.23,1274.09 620,1315.5C 622.191,1322.88 625.191,1329.88 629,1336.5C 629.667,1331.83 629.667,1327.17 629,1322.5C 620.23,1278.86 610.23,1235.53 599,1192.5C 595.029,1174.96 591.862,1157.29 589.5,1139.5C 593.276,1140.17 596.276,1139 598.5,1136C 609.954,1131.01 621.62,1126.51 633.5,1122.5C 635.359,1122.11 637.359,1122.11 639.5,1122.5C 640.23,1124.34 640.897,1126.17 641.5,1128C 640.833,1128.33 640.167,1128.67 639.5,1129C 643.251,1133.24 645.251,1138.24 645.5,1144C 647.145,1145.03 647.478,1146.2 646.5,1147.5C 648.054,1150.78 649.721,1153.94 651.5,1157C 649.867,1161.08 650.867,1164.41 654.5,1167C 653.576,1171.1 653.576,1175.27 654.5,1179.5C 661.531,1179.52 661.864,1180.02 655.5,1181C 656.474,1183.29 657.807,1185.29 659.5,1187C 658.424,1188.73 658.257,1190.56 659,1192.5C 660.648,1196.29 662.148,1200.13 663.5,1204C 662.822,1206.34 663.155,1208.68 664.5,1211C 663.065,1210.69 661.732,1210.86 660.5,1211.5C 659.396,1210.37 659.729,1209.54 661.5,1209C 659.647,1208.45 658.313,1209.12 657.5,1211C 658.833,1212 658.833,1213 657.5,1214C 659.619,1212.98 661.953,1212.65 664.5,1213C 663.167,1213.33 661.833,1213.67 660.5,1214C 662.224,1214.45 662.891,1215.28 662.5,1216.5C 663.478,1216.02 664.311,1215.36 665,1214.5C 665.617,1215.45 665.451,1216.28 664.5,1217C 665.308,1217.31 665.975,1217.81 666.5,1218.5C 667.543,1222.07 668.877,1225.4 670.5,1228.5 Z"/></g>
<g><path style="opacity:1" fill="#272b2b" d="M 287.5,1114.5 C 288.29,1115.61 288.79,1116.94 289,1118.5C 290.133,1116.79 291.633,1116.29 293.5,1117C 289.19,1119.06 288.357,1122.22 291,1126.5C 294.151,1123.76 294.318,1121.59 291.5,1120C 293.942,1118.89 296.109,1117.39 298,1115.5C 298.333,1116.17 298.667,1116.83 299,1117.5C 300.011,1116.66 301.178,1116.33 302.5,1116.5C 302.281,1117.68 302.614,1118.68 303.5,1119.5C 305.225,1120.01 306.892,1120.68 308.5,1121.5C 308.306,1123.07 308.306,1124.57 308.5,1126C 312.115,1128.62 312.449,1127.62 309.5,1123C 312.557,1122.45 314.724,1123.61 316,1126.5C 316.308,1125.69 316.808,1125.03 317.5,1124.5C 320.505,1126.67 323.839,1128.17 327.5,1129C 326.397,1130.68 326.73,1132.18 328.5,1133.5C 329.096,1132.28 329.263,1130.95 329,1129.5C 348.234,1135.95 368.068,1141.78 388.5,1147C 390.746,1148.04 392.913,1149.21 395,1150.5C 395.333,1149.83 395.667,1149.17 396,1148.5C 405.52,1156.04 411.02,1165.87 412.5,1178C 411.848,1182.43 412.515,1186.76 414.5,1191C 413.941,1191.72 413.608,1192.56 413.5,1193.5C 414.155,1197.68 415.488,1201.52 417.5,1205C 416.633,1208.44 416.299,1211.78 416.5,1215C 417.466,1218.24 418.799,1221.24 420.5,1224C 419.167,1228.67 419.167,1233.33 420.5,1238C 420.167,1238.17 419.833,1238.33 419.5,1238.5C 418.534,1236.6 418.201,1234.6 418.5,1232.5C 417.325,1232.28 416.325,1232.61 415.5,1233.5C 418.028,1234.82 418.028,1235.98 415.5,1237C 417.901,1237.81 417.734,1238.64 415,1239.5C 414.577,1238.04 413.744,1237.54 412.5,1238C 412.998,1239.16 413.831,1239.99 415,1240.5C 416.766,1239.77 418.599,1239.43 420.5,1239.5C 421.117,1246.23 421.617,1252.9 422,1259.5C 420.15,1257.04 418.983,1257.54 418.5,1261C 419.738,1260.92 420.738,1261.09 421.5,1261.5C 420.189,1262.26 419.689,1263.26 420,1264.5C 420.414,1264.04 420.914,1263.71 421.5,1263.5C 425.386,1264.59 425.386,1265.42 421.5,1266C 422.573,1267.31 423.24,1268.81 423.5,1270.5C 422.895,1272.87 422.562,1275.2 422.5,1277.5C 424.608,1280.15 425.275,1282.98 424.5,1286C 425.312,1290.64 425.978,1295.3 426.5,1300C 426.318,1302.34 425.318,1304.18 423.5,1305.5C 424.355,1306.29 425.189,1305.96 426,1304.5C 426.57,1308.76 427.403,1312.93 428.5,1317C 427.833,1318 427.167,1319 426.5,1320C 427.316,1321.92 427.983,1323.92 428.5,1326C 428.836,1327.03 429.503,1327.53 430.5,1327.5C 393.928,1340.66 357.762,1339.32 322,1323.5C 323.302,1293.19 320.636,1263.19 314,1233.5C 306.14,1197.73 297.807,1162.06 289,1126.5C 288.358,1122.51 287.858,1118.51 287.5,1114.5 Z"/></g>
<g><path style="opacity:1" fill="#140e05" d="M 325.5,1148.5 C 333.44,1183.95 340.94,1219.61 348,1255.5C 350.36,1272.43 351.027,1289.43 350,1306.5C 349.381,1309.03 348.381,1311.37 347,1313.5C 345.201,1298.19 343.534,1282.85 342,1267.5C 337.573,1242.84 333.24,1218.18 329,1193.5C 327.136,1178.55 325.969,1163.55 325.5,1148.5 Z"/></g>
<g><path style="opacity:1" fill="#623814" d="M 355.5,1351.5 C 369.399,1357.55 382.733,1364.72 395.5,1373C 403.494,1379.83 408.161,1388.33 409.5,1398.5C 409.256,1401.26 407.923,1403.43 405.5,1405C 367.981,1423.57 328.647,1429.07 287.5,1421.5C 296.468,1398.38 309.968,1378.38 328,1361.5C 328.785,1359.71 329.951,1358.21 331.5,1357C 304.334,1369.33 283.667,1388.83 269.5,1415.5C 263.069,1415.92 257.069,1414.25 251.5,1410.5C 250.417,1409.64 250.251,1408.64 251,1407.5C 263.449,1384.72 280.949,1366.88 303.5,1354C 311.023,1349.73 319.023,1346.9 327.5,1345.5C 336.889,1347.3 346.222,1349.3 355.5,1351.5 Z"/></g>
<g><path style="opacity:1" fill="#3f230f" d="M 409.5,1398.5 C 408.161,1388.33 403.494,1379.83 395.5,1373C 382.733,1364.72 369.399,1357.55 355.5,1351.5C 379.791,1354.33 403.624,1352.33 427,1345.5C 429.779,1350.5 431.779,1355.83 433,1361.5C 435.433,1372.75 436.266,1384.09 435.5,1395.5C 430.232,1398.59 424.566,1400.26 418.5,1400.5C 419.91,1392.81 419.744,1385.15 418,1377.5C 414.853,1384.46 412.019,1391.46 409.5,1398.5 Z"/></g>
<g><path style="opacity:1" fill="#3e220e" d="M 629.5,1366.5 C 619.352,1371.33 610.519,1378 603,1386.5C 597.459,1395.69 594.625,1405.69 594.5,1416.5C 587.856,1413.02 582.689,1408.02 579,1401.5C 578.788,1394.83 579.121,1388.16 580,1381.5C 581.872,1374.88 583.539,1368.22 585,1361.5C 585.725,1360.94 586.558,1360.61 587.5,1360.5C 601.233,1364.32 615.233,1366.32 629.5,1366.5 Z"/></g>
<g><path style="opacity:1" fill="#623814" d="M 594.5,1416.5 C 594.625,1405.69 597.459,1395.69 603,1386.5C 610.519,1378 619.352,1371.33 629.5,1366.5C 647.37,1366 664.37,1362 680.5,1354.5C 704.553,1366.72 722.387,1385.05 734,1409.5C 735.806,1414.42 737.306,1419.42 738.5,1424.5C 738.38,1427.06 737.047,1428.56 734.5,1429C 727.019,1431.88 719.352,1434.05 711.5,1435.5C 703.456,1409.41 688.123,1388.74 665.5,1373.5C 665.167,1373.83 664.833,1374.17 664.5,1374.5C 675.201,1394.4 683.534,1415.23 689.5,1437C 689.167,1437.5 688.833,1438 688.5,1438.5C 660.625,1441.24 633.958,1436.74 608.5,1425C 603.603,1422.39 598.937,1419.56 594.5,1416.5 Z"/></g>
<g><path style="opacity:1" fill="#d9bd94" d="M 564.5,1378.5 C 563.006,1387.78 562.506,1397.12 563,1406.5C 565.325,1411.84 568.825,1416.34 573.5,1420C 610.71,1450.08 652.71,1460.08 699.5,1450C 717.476,1450.01 734.143,1445.34 749.5,1436C 751.378,1434.46 752.878,1432.62 754,1430.5C 753.125,1414.04 747.958,1399.04 738.5,1385.5C 771.704,1388.42 804.37,1394.26 836.5,1403C 845.417,1405.37 852.917,1409.87 859,1416.5C 859.755,1419.3 859.422,1421.97 858,1424.5C 852.374,1429.73 845.874,1433.57 838.5,1436C 820.67,1442.57 802.337,1447.23 783.5,1450C 737.096,1457.08 690.43,1461.41 643.5,1463C 541.119,1466.99 438.786,1465.99 336.5,1460C 289.344,1457.08 242.677,1450.74 196.5,1441C 183.098,1437.76 170.431,1432.76 158.5,1426C 151.487,1419.04 152.154,1412.7 160.5,1407C 169.404,1402.36 178.738,1398.7 188.5,1396C 207.368,1391.25 226.368,1388.42 245.5,1387.5C 242.172,1392.15 239.339,1397.15 237,1402.5C 234.933,1406.64 234.266,1410.97 235,1415.5C 241.673,1421.92 249.507,1426.42 258.5,1429C 270.654,1431.41 282.654,1434.41 294.5,1438C 318.927,1440.48 343.26,1439.81 367.5,1436C 386.652,1432.51 404.319,1425.51 420.5,1415C 432.511,1413.24 443.011,1408.41 452,1400.5C 452.541,1392.82 452.374,1385.15 451.5,1377.5C 489.164,1376.24 526.831,1376.58 564.5,1378.5 Z"/></g>
</svg>
