<svg xmlns="http://www.w3.org/2000/svg" xmlns:xlink="http://www.w3.org/1999/xlink" contentStyleType="text/css" data-diagram-type="DESCRIPTION" height="272px" preserveAspectRatio="none" style="width:1530px;height:272px;background:#FFFFFF;" version="1.1" viewBox="0 0 1530 272" width="1530px" zoomAndPan="magnify"><defs/><g><!--entity NEXT--><g class="entity" data-entity="NEXT" data-source-line="1" data-uid="ent0002" id="entity_NEXT"><rect fill="#F1F1F1" height="46.4883" rx="2.5" ry="2.5" style="stroke:#181818;stroke-width:0.5;" width="208.8613" x="138.37" y="113.48"/><rect fill="#F1F1F1" height="10" style="stroke:#181818;stroke-width:0.5;" width="15" x="327.2313" y="118.48"/><rect fill="#F1F1F1" height="2" style="stroke:#181818;stroke-width:0.5;" width="4" x="325.2313" y="120.48"/><rect fill="#F1F1F1" height="2" style="stroke:#181818;stroke-width:0.5;" width="4" x="325.2313" y="124.48"/><text fill="#000000" font-family="sans-serif" font-size="14" lengthAdjust="spacing" textLength="168.8613" x="153.37" y="147.0152">Next.js App (Edge/Node)</text></g><!--entity B--><g class="entity" data-entity="B" data-source-line="2" data-uid="ent0003" id="entity_B"><rect fill="#F1F1F1" height="46.4883" rx="2.5" ry="2.5" style="stroke:#181818;stroke-width:0.5;" width="166.2939" x="983.65" y="7"/><rect fill="#F1F1F1" height="10" style="stroke:#181818;stroke-width:0.5;" width="15" x="1129.9439" y="12"/><rect fill="#F1F1F1" height="2" style="stroke:#181818;stroke-width:0.5;" width="4" x="1127.9439" y="14"/><rect fill="#F1F1F1" height="2" style="stroke:#181818;stroke-width:0.5;" width="4" x="1127.9439" y="18"/><text fill="#000000" font-family="sans-serif" font-size="14" lengthAdjust="spacing" textLength="126.2939" x="998.65" y="40.5352">Browser (React 18)</text></g><!--entity AUTHC--><g class="entity" data-entity="AUTHC" data-source-line="3" data-uid="ent0004" id="entity_AUTHC"><rect fill="#F1F1F1" height="46.4883" rx="2.5" ry="2.5" style="stroke:#181818;stroke-width:0.5;" width="193.5762" x="1155.01" y="113.48"/><rect fill="#F1F1F1" height="10" style="stroke:#181818;stroke-width:0.5;" width="15" x="1328.5862" y="118.48"/><rect fill="#F1F1F1" height="2" style="stroke:#181818;stroke-width:0.5;" width="4" x="1326.5862" y="120.48"/><rect fill="#F1F1F1" height="2" style="stroke:#181818;stroke-width:0.5;" width="4" x="1326.5862" y="124.48"/><text fill="#000000" font-family="sans-serif" font-size="14" lengthAdjust="spacing" textLength="153.5762" x="1170.01" y="147.0152">Auth Context/Provider</text></g><!--entity ZS--><g class="entity" data-entity="ZS" data-source-line="4" data-uid="ent0005" id="entity_ZS"><rect fill="#F1F1F1" height="46.4883" rx="2.5" ry="2.5" style="stroke:#181818;stroke-width:0.5;" width="141.2266" x="1383.19" y="113.48"/><rect fill="#F1F1F1" height="10" style="stroke:#181818;stroke-width:0.5;" width="15" x="1504.4166" y="118.48"/><rect fill="#F1F1F1" height="2" style="stroke:#181818;stroke-width:0.5;" width="4" x="1502.4166" y="120.48"/><rect fill="#F1F1F1" height="2" style="stroke:#181818;stroke-width:0.5;" width="4" x="1502.4166" y="124.48"/><text fill="#000000" font-family="sans-serif" font-size="14" lengthAdjust="spacing" textLength="101.2266" x="1398.19" y="147.0152">Zustand Stores</text></g><!--entity AX--><g class="entity" data-entity="AX" data-source-line="5" data-uid="ent0006" id="entity_AX"><rect fill="#F1F1F1" height="46.4883" rx="2.5" ry="2.5" style="stroke:#181818;stroke-width:0.5;" width="121.9629" x="453.82" y="113.48"/><rect fill="#F1F1F1" height="10" style="stroke:#181818;stroke-width:0.5;" width="15" x="555.7829" y="118.48"/><rect fill="#F1F1F1" height="2" style="stroke:#181818;stroke-width:0.5;" width="4" x="553.7829" y="120.48"/><rect fill="#F1F1F1" height="2" style="stroke:#181818;stroke-width:0.5;" width="4" x="553.7829" y="124.48"/><text fill="#000000" font-family="sans-serif" font-size="14" lengthAdjust="spacing" textLength="81.9629" x="468.82" y="147.0152">Axios Client</text></g><!--entity WSC--><g class="entity" data-entity="WSC" data-source-line="6" data-uid="ent0007" id="entity_WSC"><rect fill="#F1F1F1" height="46.4883" rx="2.5" ry="2.5" style="stroke:#181818;stroke-width:0.5;" width="103.4512" x="875.08" y="113.48"/><rect fill="#F1F1F1" height="10" style="stroke:#181818;stroke-width:0.5;" width="15" x="958.5312" y="118.48"/><rect fill="#F1F1F1" height="2" style="stroke:#181818;stroke-width:0.5;" width="4" x="956.5312" y="120.48"/><rect fill="#F1F1F1" height="2" style="stroke:#181818;stroke-width:0.5;" width="4" x="956.5312" y="124.48"/><text fill="#000000" font-family="sans-serif" font-size="14" lengthAdjust="spacing" textLength="63.4512" x="890.08" y="147.0152">WS Client</text></g><!--entity SSEC--><g class="entity" data-entity="SSEC" data-source-line="7" data-uid="ent0008" id="entity_SSEC"><rect fill="#F1F1F1" height="46.4883" rx="2.5" ry="2.5" style="stroke:#181818;stroke-width:0.5;" width="106.6025" x="1013.5" y="113.48"/><rect fill="#F1F1F1" height="10" style="stroke:#181818;stroke-width:0.5;" width="15" x="1100.1025" y="118.48"/><rect fill="#F1F1F1" height="2" style="stroke:#181818;stroke-width:0.5;" width="4" x="1098.1025" y="120.48"/><rect fill="#F1F1F1" height="2" style="stroke:#181818;stroke-width:0.5;" width="4" x="1098.1025" y="124.48"/><text fill="#000000" font-family="sans-serif" font-size="14" lengthAdjust="spacing" textLength="66.6025" x="1028.5" y="147.0152">SSE Client</text></g><!--entity PAPI--><g class="entity" data-entity="PAPI" data-source-line="9" data-uid="ent0009" id="entity_PAPI"><rect fill="#F1F1F1" height="46.4883" rx="2.5" ry="2.5" style="stroke:#181818;stroke-width:0.5;" width="123.6035" x="7" y="219.97"/><rect fill="#F1F1F1" height="10" style="stroke:#181818;stroke-width:0.5;" width="15" x="110.6035" y="224.97"/><rect fill="#F1F1F1" height="2" style="stroke:#181818;stroke-width:0.5;" width="4" x="108.6035" y="226.97"/><rect fill="#F1F1F1" height="2" style="stroke:#181818;stroke-width:0.5;" width="4" x="108.6035" y="230.97"/><text fill="#000000" font-family="sans-serif" font-size="14" lengthAdjust="spacing" textLength="83.6035" x="22" y="253.5052">Portfolio API</text></g><!--entity TEAPI--><g class="entity" data-entity="TEAPI" data-source-line="10" data-uid="ent0010" id="entity_TEAPI"><rect fill="#F1F1F1" height="46.4883" rx="2.5" ry="2.5" style="stroke:#181818;stroke-width:0.5;" width="154.7549" x="165.42" y="219.97"/><rect fill="#F1F1F1" height="10" style="stroke:#181818;stroke-width:0.5;" width="15" x="300.1749" y="224.97"/><rect fill="#F1F1F1" height="2" style="stroke:#181818;stroke-width:0.5;" width="4" x="298.1749" y="226.97"/><rect fill="#F1F1F1" height="2" style="stroke:#181818;stroke-width:0.5;" width="4" x="298.1749" y="230.97"/><text fill="#000000" font-family="sans-serif" font-size="14" lengthAdjust="spacing" textLength="114.7549" x="180.42" y="253.5052">Trade Engine API</text></g><!--entity AS--><g class="entity" data-entity="AS" data-source-line="11" data-uid="ent0011" id="entity_AS"><rect fill="#F1F1F1" height="46.4883" rx="2.5" ry="2.5" style="stroke:#181818;stroke-width:0.5;" width="124.0342" x="354.78" y="219.97"/><rect fill="#F1F1F1" height="10" style="stroke:#181818;stroke-width:0.5;" width="15" x="458.8142" y="224.97"/><rect fill="#F1F1F1" height="2" style="stroke:#181818;stroke-width:0.5;" width="4" x="456.8142" y="226.97"/><rect fill="#F1F1F1" height="2" style="stroke:#181818;stroke-width:0.5;" width="4" x="456.8142" y="230.97"/><text fill="#000000" font-family="sans-serif" font-size="14" lengthAdjust="spacing" textLength="84.0342" x="369.78" y="253.5052">Auth Service</text></g><!--entity MWS--><g class="entity" data-entity="MWS" data-source-line="12" data-uid="ent0012" id="entity_MWS"><rect fill="#F1F1F1" height="46.4883" rx="2.5" ry="2.5" style="stroke:#181818;stroke-width:0.5;" width="159.2051" x="847.2" y="219.97"/><rect fill="#F1F1F1" height="10" style="stroke:#181818;stroke-width:0.5;" width="15" x="986.4051" y="224.97"/><rect fill="#F1F1F1" height="2" style="stroke:#181818;stroke-width:0.5;" width="4" x="984.4051" y="226.97"/><rect fill="#F1F1F1" height="2" style="stroke:#181818;stroke-width:0.5;" width="4" x="984.4051" y="230.97"/><text fill="#000000" font-family="sans-serif" font-size="14" lengthAdjust="spacing" textLength="119.2051" x="862.2" y="253.5052">Market WS Broker</text></g><!--entity CGW--><g class="entity" data-entity="CGW" data-source-line="13" data-uid="ent0013" id="entity_CGW"><rect fill="#F1F1F1" height="46.4883" rx="2.5" ry="2.5" style="stroke:#181818;stroke-width:0.5;" width="159.5879" x="1041.01" y="219.97"/><rect fill="#F1F1F1" height="10" style="stroke:#181818;stroke-width:0.5;" width="15" x="1180.5979" y="224.97"/><rect fill="#F1F1F1" height="2" style="stroke:#181818;stroke-width:0.5;" width="4" x="1178.5979" y="226.97"/><rect fill="#F1F1F1" height="2" style="stroke:#181818;stroke-width:0.5;" width="4" x="1178.5979" y="230.97"/><text fill="#000000" font-family="sans-serif" font-size="14" lengthAdjust="spacing" textLength="119.5879" x="1056.01" y="253.5052">Chat SSE Gateway</text></g><!--entity TutAPI--><g class="entity" data-entity="TutAPI" data-source-line="14" data-uid="ent0014" id="entity_TutAPI"><rect fill="#F1F1F1" height="46.4883" rx="2.5" ry="2.5" style="stroke:#181818;stroke-width:0.5;" width="118.791" x="693.41" y="219.97"/><rect fill="#F1F1F1" height="10" style="stroke:#181818;stroke-width:0.5;" width="15" x="792.201" y="224.97"/><rect fill="#F1F1F1" height="2" style="stroke:#181818;stroke-width:0.5;" width="4" x="790.201" y="226.97"/><rect fill="#F1F1F1" height="2" style="stroke:#181818;stroke-width:0.5;" width="4" x="790.201" y="230.97"/><text fill="#000000" font-family="sans-serif" font-size="14" lengthAdjust="spacing" textLength="78.791" x="708.41" y="253.5052">Tutorial API</text></g><!--entity NAPI--><g class="entity" data-entity="NAPI" data-source-line="15" data-uid="ent0015" id="entity_NAPI"><rect fill="#F1F1F1" height="46.4883" rx="2.5" ry="2.5" style="stroke:#181818;stroke-width:0.5;" width="144.7539" x="513.42" y="219.97"/><rect fill="#F1F1F1" height="10" style="stroke:#181818;stroke-width:0.5;" width="15" x="638.1739" y="224.97"/><rect fill="#F1F1F1" height="2" style="stroke:#181818;stroke-width:0.5;" width="4" x="636.1739" y="226.97"/><rect fill="#F1F1F1" height="2" style="stroke:#181818;stroke-width:0.5;" width="4" x="636.1739" y="230.97"/><text fill="#000000" font-family="sans-serif" font-size="14" lengthAdjust="spacing" textLength="104.7539" x="528.42" y="253.5052">Notification API</text></g><!--link B to AUTHC--><g class="link" data-entity-1="B" data-entity-2="AUTHC" data-source-line="17" data-uid="lnk16" id="link_B_AUTHC"><path d="M1106.94,53.91 C1137.97,71.44 1180.73,95.58 1211.74,113.1" fill="none" id="B-AUTHC" style="stroke:#181818;stroke-width:1;"/></g><!--link B to ZS--><g class="link" data-entity-1="B" data-entity-2="ZS" data-source-line="18" data-uid="lnk17" id="link_B_ZS"><path d="M1150.3,53.78 C1219.63,72.5 1317.16,98.84 1382.78,116.55" fill="none" id="B-ZS" style="stroke:#181818;stroke-width:1;"/></g><!--link B to AX--><g class="link" data-entity-1="B" data-entity-2="AX" data-source-line="19" data-uid="lnk18" id="link_B_AX"><path d="M983.26,47.05 C871.3,68.25 675.18,105.37 575.98,124.15" fill="none" id="B-AX" style="stroke:#181818;stroke-width:1;"/></g><!--link B to WSC--><g class="link" data-entity-1="B" data-entity-2="WSC" data-source-line="20" data-uid="lnk19" id="link_B_WSC"><path d="M1036.42,53.91 C1012.94,71.44 980.59,95.58 957.12,113.1" fill="none" id="B-WSC" style="stroke:#181818;stroke-width:1;"/></g><!--link B to SSEC--><g class="link" data-entity-1="B" data-entity-2="SSEC" data-source-line="21" data-uid="lnk20" id="link_B_SSEC"><path d="M1066.8,53.91 C1066.8,71.44 1066.8,95.58 1066.8,113.1" fill="none" id="B-SSEC" style="stroke:#181818;stroke-width:1;"/></g><!--link AX to PAPI--><g class="link" data-entity-1="AX" data-entity-2="PAPI" data-source-line="23" data-uid="lnk21" id="link_AX_PAPI"><path d="M453.52,150.4 C380.46,165.76 254.79,192.94 147.8,219.97 C142.28,221.37 142.3444,221.3127 136.6144,222.8527" fill="none" id="AX-to-PAPI" style="stroke:#181818;stroke-width:1;"/><polygon fill="#181818" points="130.82,224.41,140.5498,225.937,135.6486,223.1122,138.4734,218.2111,130.82,224.41" style="stroke:#181818;stroke-width:1;"/></g><!--link AX to TEAPI--><g class="link" data-entity-1="AX" data-entity-2="TEAPI" data-source-line="24" data-uid="lnk22" id="link_AX_TEAPI"><path d="M455.78,160.4 C410.16,177.93 352.9007,199.9177 307.3107,217.4377" fill="none" id="AX-to-TEAPI" style="stroke:#181818;stroke-width:1;"/><polygon fill="#181818" points="301.71,219.59,311.5459,220.0953,306.3772,217.7964,308.6761,212.6278,301.71,219.59" style="stroke:#181818;stroke-width:1;"/></g><!--link AX to AS--><g class="link" data-entity-1="AX" data-entity-2="AS" data-source-line="25" data-uid="lnk23" id="link_AX_AS"><path d="M493.54,160.4 C477.1,177.93 458.5543,197.6934 442.1243,215.2134" fill="none" id="AX-to-AS" style="stroke:#181818;stroke-width:1;"/><polygon fill="#181818" points="438.02,219.59,447.0942,215.7613,441.4403,215.9428,441.2587,210.2889,438.02,219.59" style="stroke:#181818;stroke-width:1;"/></g><!--link AX to TutAPI--><g class="link" data-entity-1="AX" data-entity-2="TutAPI" data-source-line="26" data-uid="lnk24" id="link_AX_TutAPI"><path d="M566.44,160.4 C606.36,177.93 655.8663,199.6577 695.7663,217.1777" fill="none" id="AX-to-TutAPI" style="stroke:#181818;stroke-width:1;"/><polygon fill="#181818" points="701.26,219.59,694.6276,212.3091,696.6819,217.5798,691.4112,219.6341,701.26,219.59" style="stroke:#181818;stroke-width:1;"/></g><!--link AX to NAPI--><g class="link" data-entity-1="AX" data-entity-2="NAPI" data-source-line="27" data-uid="lnk25" id="link_AX_NAPI"><path d="M530.21,160.4 C542.12,177.93 555.1468,197.108 567.0568,214.628" fill="none" id="AX-to-NAPI" style="stroke:#181818;stroke-width:1;"/><polygon fill="#181818" points="570.43,219.59,568.6783,209.8982,567.619,215.455,562.0622,214.3957,570.43,219.59" style="stroke:#181818;stroke-width:1;"/></g><!--link WSC to MWS--><g class="link" data-entity-1="WSC" data-entity-2="MWS" data-source-line="28" data-uid="lnk26" id="link_WSC_MWS"><path d="M926.8,160.4 C926.8,177.93 926.8,196.07 926.8,213.59" fill="none" id="WSC-to-MWS" style="stroke:#181818;stroke-width:1;"/><polygon fill="#181818" points="926.8,219.59,930.8,210.59,926.8,214.59,922.8,210.59,926.8,219.59" style="stroke:#181818;stroke-width:1;"/></g><!--link SSEC to CGW--><g class="link" data-entity-1="SSEC" data-entity-2="CGW" data-source-line="29" data-uid="lnk27" id="link_SSEC_CGW"><path d="M1078.52,160.4 C1087.58,177.93 1097.3064,196.7392 1106.3564,214.2592" fill="none" id="SSEC-to-CGW" style="stroke:#181818;stroke-width:1;"/><polygon fill="#181818" points="1109.11,219.59,1108.5334,209.758,1106.8153,215.1477,1101.4257,213.4296,1109.11,219.59" style="stroke:#181818;stroke-width:1;"/></g><!--link NEXT to PAPI--><g class="link" data-entity-1="NEXT" data-entity-2="PAPI" data-source-line="31" data-uid="lnk28" id="link_NEXT_PAPI"><path d="M205.05,160.4 C175.86,177.93 140.7936,198.9807 111.6236,216.5007" fill="none" id="NEXT-to-PAPI" style="stroke:#181818;stroke-width:1;stroke-dasharray:7,7;"/><polygon fill="#181818" points="106.48,219.59,116.2549,218.3851,110.7663,217.0156,112.1358,211.527,106.48,219.59" style="stroke:#181818;stroke-width:1;"/></g><!--link NEXT to TEAPI--><g class="link" data-entity-1="NEXT" data-entity-2="TEAPI" data-source-line="32" data-uid="lnk29" id="link_NEXT_TEAPI"><path d="M242.8,160.4 C242.8,177.93 242.8,196.07 242.8,213.59" fill="none" id="NEXT-to-TEAPI" style="stroke:#181818;stroke-width:1;stroke-dasharray:7,7;"/><polygon fill="#181818" points="242.8,219.59,246.8,210.59,242.8,214.59,238.8,210.59,242.8,219.59" style="stroke:#181818;stroke-width:1;"/></g><!--link NEXT to AS--><g class="link" data-entity-1="NEXT" data-entity-2="AS" data-source-line="33" data-uid="lnk30" id="link_NEXT_AS"><path d="M280.56,160.4 C309.74,177.93 344.8064,198.9807 373.9764,216.5007" fill="none" id="NEXT-to-AS" style="stroke:#181818;stroke-width:1;stroke-dasharray:7,7;"/><polygon fill="#181818" points="379.12,219.59,373.4642,211.527,374.8337,217.0156,369.3451,218.3851,379.12,219.59" style="stroke:#181818;stroke-width:1;"/></g><!--SRC=[NP9FRu904CNlV8g99tjGqrjFJP0GxK52kZGGRniOTIlTDSkWzjjt_r1SF36F-UNnveLQ_LoKH4amo_1Eo-yEuii5vcbpn5Mc6doP0UyWIwiYgX_iMgjRXnhcdyXhWjStZwr39kxf18cIP7nNkLPNqQ1sMFnLR9CGtVSTSTa08wMnSyoUJRpkGdMGjC8eRr65wvA5kv9Dp1bBmwsHIHJkSwNfe5gX8Cu_79AR8IGApHk4L1w5n14gqYVAtSjGNqMDFkFaX1tNPoGJ3anvvw69NJbXaXCd6n0sdF36VnsJRCf9cDwK97Zx2DBJKv9CaJY8cfDGSiGo2qLhM2o6_jreQlQlAl-qtRd1rnHNPdxtXGopltiGviJ_rpx5eDp7Z9SJzaXhvuIz9hA_4ooNW_6elFKeO_O7]--></g></svg>