<svg xmlns="http://www.w3.org/2000/svg" xmlns:xlink="http://www.w3.org/1999/xlink" contentStyleType="text/css" data-diagram-type="SEQUENCE" height="590px" preserveAspectRatio="none" style="width:796px;height:590px;background:#FFFFFF;" version="1.1" viewBox="0 0 796 590" width="796px" zoomAndPan="magnify"><defs/><g><rect fill="none" height="163.8633" style="stroke:#000000;stroke-width:1.5;" width="778.5884" x="10" y="192.4199"/><g><title>User</title><rect fill="#000000" fill-opacity="0.00000" height="428.0371" width="8" x="34.1826" y="81.4883"/><line style="stroke:#181818;stroke-width:0.5;stroke-dasharray:5,5;" x1="38" x2="38" y1="81.4883" y2="509.5254"/></g><g><title>Browser</title><rect fill="#000000" fill-opacity="0.00000" height="428.0371" width="8" x="174.8271" y="81.4883"/><line style="stroke:#181818;stroke-width:0.5;stroke-dasharray:5,5;" x1="177.9106" x2="177.9106" y1="81.4883" y2="509.5254"/></g><g><title>AuthProvider</title><rect fill="#000000" fill-opacity="0.00000" height="428.0371" width="8" x="429.7217" y="81.4883"/><line style="stroke:#181818;stroke-width:0.5;stroke-dasharray:5,5;" x1="432.7358" x2="432.7358" y1="81.4883" y2="509.5254"/></g><g><title>RouteGuard</title><rect fill="#000000" fill-opacity="0.00000" height="428.0371" width="8" x="537.8345" y="81.4883"/><line style="stroke:#181818;stroke-width:0.5;stroke-dasharray:5,5;" x1="541.7075" x2="541.7075" y1="81.4883" y2="509.5254"/></g><g><title>ApiClient</title><rect fill="#000000" fill-opacity="0.00000" height="428.0371" width="8" x="632.9727" y="81.4883"/><line style="stroke:#181818;stroke-width:0.5;stroke-dasharray:5,5;" x1="636.9614" x2="636.9614" y1="81.4883" y2="509.5254"/></g><g><title>AuthService</title><rect fill="#000000" fill-opacity="0.00000" height="428.0371" width="8" x="727.7861" y="81.4883"/><line style="stroke:#181818;stroke-width:0.5;stroke-dasharray:5,5;" x1="730.9839" x2="730.9839" y1="81.4883" y2="509.5254"/></g><g class="participant participant-head" data-participant="User"><text fill="#000000" font-family="sans-serif" font-size="14" lengthAdjust="spacing" textLength="30.3652" x="20" y="78.5352">User</text><ellipse cx="38.1826" cy="13.5" fill="#E2E2F0" rx="8" ry="8" style="stroke:#181818;stroke-width:0.5;"/><path d="M38.1826,21.5 L38.1826,48.5 M25.1826,29.5 L51.1826,29.5 M38.1826,48.5 L25.1826,63.5 M38.1826,48.5 L51.1826,63.5" fill="none" style="stroke:#181818;stroke-width:0.5;"/></g><g class="participant participant-tail" data-participant="User"><text fill="#000000" font-family="sans-serif" font-size="14" lengthAdjust="spacing" textLength="30.3652" x="20" y="522.0605">User</text><ellipse cx="38.1826" cy="533.5137" fill="#E2E2F0" rx="8" ry="8" style="stroke:#181818;stroke-width:0.5;"/><path d="M38.1826,541.5137 L38.1826,568.5137 M25.1826,549.5137 L51.1826,549.5137 M38.1826,568.5137 L25.1826,583.5137 M38.1826,568.5137 L51.1826,583.5137" fill="none" style="stroke:#181818;stroke-width:0.5;"/></g><g class="participant participant-head" data-participant="Browser"><rect fill="#E2E2F0" height="30.4883" rx="2.5" ry="2.5" style="stroke:#181818;stroke-width:0.5;" width="67.833" x="144.9106" y="50"/><text fill="#000000" font-family="sans-serif" font-size="14" lengthAdjust="spacing" textLength="53.833" x="151.9106" y="70.5352">Browser</text></g><g class="participant participant-tail" data-participant="Browser"><rect fill="#E2E2F0" height="30.4883" rx="2.5" ry="2.5" style="stroke:#181818;stroke-width:0.5;" width="67.833" x="144.9106" y="508.5254"/><text fill="#000000" font-family="sans-serif" font-size="14" lengthAdjust="spacing" textLength="53.833" x="151.9106" y="529.0605">Browser</text></g><g class="participant participant-head" data-participant="AP"><rect fill="#E2E2F0" height="30.4883" rx="2.5" ry="2.5" style="stroke:#181818;stroke-width:0.5;" width="101.9717" x="382.7358" y="50"/><text fill="#000000" font-family="sans-serif" font-size="14" lengthAdjust="spacing" textLength="87.9717" x="389.7358" y="70.5352">AuthProvider</text></g><g class="participant participant-tail" data-participant="AP"><rect fill="#E2E2F0" height="30.4883" rx="2.5" ry="2.5" style="stroke:#181818;stroke-width:0.5;" width="101.9717" x="382.7358" y="508.5254"/><text fill="#000000" font-family="sans-serif" font-size="14" lengthAdjust="spacing" textLength="87.9717" x="389.7358" y="529.0605">AuthProvider</text></g><g class="participant participant-head" data-participant="RG"><rect fill="#E2E2F0" height="30.4883" rx="2.5" ry="2.5" style="stroke:#181818;stroke-width:0.5;" width="94.2539" x="494.7075" y="50"/><text fill="#000000" font-family="sans-serif" font-size="14" lengthAdjust="spacing" textLength="80.2539" x="501.7075" y="70.5352">RouteGuard</text></g><g class="participant participant-tail" data-participant="RG"><rect fill="#E2E2F0" height="30.4883" rx="2.5" ry="2.5" style="stroke:#181818;stroke-width:0.5;" width="94.2539" x="494.7075" y="508.5254"/><text fill="#000000" font-family="sans-serif" font-size="14" lengthAdjust="spacing" textLength="80.2539" x="501.7075" y="529.0605">RouteGuard</text></g><g class="participant participant-head" data-participant="API"><rect fill="#E2E2F0" height="30.4883" rx="2.5" ry="2.5" style="stroke:#181818;stroke-width:0.5;" width="76.0225" x="598.9614" y="50"/><text fill="#000000" font-family="sans-serif" font-size="14" lengthAdjust="spacing" textLength="62.0225" x="605.9614" y="70.5352">ApiClient</text></g><g class="participant participant-tail" data-participant="API"><rect fill="#E2E2F0" height="30.4883" rx="2.5" ry="2.5" style="stroke:#181818;stroke-width:0.5;" width="76.0225" x="598.9614" y="508.5254"/><text fill="#000000" font-family="sans-serif" font-size="14" lengthAdjust="spacing" textLength="62.0225" x="605.9614" y="529.0605">ApiClient</text></g><g class="participant participant-head" data-participant="AS"><rect fill="#E2E2F0" height="30.4883" rx="2.5" ry="2.5" style="stroke:#181818;stroke-width:0.5;" width="93.6045" x="684.9839" y="50"/><text fill="#000000" font-family="sans-serif" font-size="14" lengthAdjust="spacing" textLength="79.6045" x="691.9839" y="70.5352">AuthService</text></g><g class="participant participant-tail" data-participant="AS"><rect fill="#E2E2F0" height="30.4883" rx="2.5" ry="2.5" style="stroke:#181818;stroke-width:0.5;" width="93.6045" x="684.9839" y="508.5254"/><text fill="#000000" font-family="sans-serif" font-size="14" lengthAdjust="spacing" textLength="79.6045" x="691.9839" y="529.0605">AuthService</text></g><g class="message" data-participant-1="User" data-participant-2="Browser"><polygon fill="#181818" points="166.8271,108.7988,176.8271,112.7988,166.8271,116.7988,170.8271,112.7988" style="stroke:#181818;stroke-width:1;"/><line style="stroke:#181818;stroke-width:1;" x1="38.1826" x2="172.8271" y1="112.7988" y2="112.7988"/><text fill="#000000" font-family="sans-serif" font-size="13" lengthAdjust="spacing" textLength="100.325" x="45.1826" y="108.0566">/dashboard &#51217;&#44540;</text></g><g class="message" data-participant-1="Browser" data-participant-2="RG"><polygon fill="#181818" points="529.8345,138.1094,539.8345,142.1094,529.8345,146.1094,533.8345,142.1094" style="stroke:#181818;stroke-width:1;"/><line style="stroke:#181818;stroke-width:1;" x1="178.8271" x2="535.8345" y1="142.1094" y2="142.1094"/><text fill="#000000" font-family="sans-serif" font-size="13" lengthAdjust="spacing" textLength="83.5542" x="185.8271" y="137.3672">requireAuth()</text></g><path d="M546,155.1094 L546,180.1094 L789,180.1094 L789,165.1094 L779,155.1094 L546,155.1094" fill="#FEFFDD" style="stroke:#181818;stroke-width:0.5;"/><path d="M779,155.1094 L779,165.1094 L789,165.1094 L779,155.1094" fill="#FEFFDD" style="stroke:#181818;stroke-width:0.5;"/><text fill="#000000" font-family="sans-serif" font-size="13" lengthAdjust="spacing" textLength="222.7463" x="552" y="172.6777">&#171;planned&#187; RouteGuard &#44396;&#54788; &#54980; &#54876;&#49457;&#54868;</text><path d="M10,192.4199 L72.1387,192.4199 L72.1387,199.7305 L62.1387,209.7305 L10,209.7305 L10,192.4199" fill="#EEEEEE" style="stroke:#000000;stroke-width:1.5;"/><rect fill="none" height="163.8633" style="stroke:#000000;stroke-width:1.5;" width="778.5884" x="10" y="192.4199"/><text fill="#000000" font-family="sans-serif" font-size="13" font-weight="bold" lengthAdjust="spacing" textLength="17.1387" x="25" y="205.9883">alt</text><text fill="#000000" font-family="sans-serif" font-size="11" font-weight="bold" lengthAdjust="spacing" textLength="62.9226" x="87.1387" y="205.0547">[token &#50630;&#51020;]</text><g class="message" data-participant-1="RG" data-participant-2="Browser"><polygon fill="#181818" points="189.8271,227.041,179.8271,231.041,189.8271,235.041,185.8271,231.041" style="stroke:#181818;stroke-width:1;"/><line style="stroke:#181818;stroke-width:1;" x1="183.8271" x2="540.8345" y1="231.041" y2="231.041"/><text fill="#000000" font-family="sans-serif" font-size="13" lengthAdjust="spacing" textLength="95.5322" x="195.8271" y="226.2988">redirect(/login)</text></g><g class="message" data-participant-1="User" data-participant-2="Browser"><polygon fill="#181818" points="166.8271,256.3516,176.8271,260.3516,166.8271,264.3516,170.8271,260.3516" style="stroke:#181818;stroke-width:1;"/><line style="stroke:#181818;stroke-width:1;" x1="38.1826" x2="172.8271" y1="260.3516" y2="260.3516"/><text fill="#000000" font-family="sans-serif" font-size="13" lengthAdjust="spacing" textLength="116.6445" x="45.1826" y="255.6094">submit credentials</text></g><g class="message" data-participant-1="Browser" data-participant-2="AS"><polygon fill="#181818" points="719.7861,285.6621,729.7861,289.6621,719.7861,293.6621,723.7861,289.6621" style="stroke:#181818;stroke-width:1;"/><line style="stroke:#181818;stroke-width:1;" x1="178.8271" x2="725.7861" y1="289.6621" y2="289.6621"/><text fill="#000000" font-family="sans-serif" font-size="13" lengthAdjust="spacing" textLength="110.1064" x="185.8271" y="284.9199">POST /auth/login</text></g><g class="message" data-participant-1="AS" data-participant-2="Browser"><polygon fill="#181818" points="189.8271,314.9727,179.8271,318.9727,189.8271,322.9727,185.8271,318.9727" style="stroke:#181818;stroke-width:1;"/><line style="stroke:#181818;stroke-width:1;stroke-dasharray:2,2;" x1="183.8271" x2="730.7861" y1="318.9727" y2="318.9727"/><text fill="#000000" font-family="sans-serif" font-size="13" lengthAdjust="spacing" textLength="167.7749" x="195.8271" y="314.2305">{token, refreshToken, exp}</text></g><g class="message" data-participant-1="Browser" data-participant-2="AP"><polygon fill="#181818" points="421.7217,344.2832,431.7217,348.2832,421.7217,352.2832,425.7217,348.2832" style="stroke:#181818;stroke-width:1;"/><line style="stroke:#181818;stroke-width:1;" x1="178.8271" x2="427.7217" y1="348.2832" y2="348.2832"/><text fill="#000000" font-family="sans-serif" font-size="13" lengthAdjust="spacing" textLength="225.6211" x="185.8271" y="343.541">setToken(token, refreshToken, exp)</text></g><path d="M183,368.2832 L183,393.2832 L426,393.2832 L426,378.2832 L416,368.2832 L183,368.2832" fill="#FEFFDD" style="stroke:#181818;stroke-width:0.5;"/><path d="M416,368.2832 L416,378.2832 L426,378.2832 L416,368.2832" fill="#FEFFDD" style="stroke:#181818;stroke-width:0.5;"/><text fill="#000000" font-family="sans-serif" font-size="13" lengthAdjust="spacing" textLength="222.7463" x="189" y="385.8516">&#171;planned&#187; RouteGuard &#44396;&#54788; &#54980; &#54876;&#49457;&#54868;</text><g class="message" data-participant-1="Browser" data-participant-2="Browser"><line style="stroke:#181818;stroke-width:1;" x1="178.8271" x2="220.8271" y1="419.9043" y2="419.9043"/><line style="stroke:#181818;stroke-width:1;" x1="220.8271" x2="220.8271" y1="419.9043" y2="432.9043"/><line style="stroke:#181818;stroke-width:1;" x1="179.8271" x2="220.8271" y1="432.9043" y2="432.9043"/><polygon fill="#181818" points="189.8271,428.9043,179.8271,432.9043,189.8271,436.9043,185.8271,432.9043" style="stroke:#181818;stroke-width:1;"/><text fill="#000000" font-family="sans-serif" font-size="13" lengthAdjust="spacing" textLength="240.8945" x="185.8271" y="415.1621">render(dashboard)  // &#54788;&#51116;&#45716; &#51649;&#51217; &#47116;&#45908;&#47553;</text></g><g class="message" data-participant-1="Browser" data-participant-2="API"><polygon fill="#181818" points="624.9727,458.2148,634.9727,462.2148,624.9727,466.2148,628.9727,462.2148" style="stroke:#181818;stroke-width:1;"/><line style="stroke:#181818;stroke-width:1;" x1="178.8271" x2="630.9727" y1="462.2148" y2="462.2148"/><text fill="#000000" font-family="sans-serif" font-size="13" lengthAdjust="spacing" textLength="237.1167" x="185.8271" y="457.4727">GET /portfolio (Authorization: Bearer)</text></g><g class="message" data-participant-1="API" data-participant-2="Browser"><polygon fill="#181818" points="189.8271,487.5254,179.8271,491.5254,189.8271,495.5254,185.8271,491.5254" style="stroke:#181818;stroke-width:1;"/><line style="stroke:#181818;stroke-width:1;stroke-dasharray:2,2;" x1="183.8271" x2="635.9727" y1="491.5254" y2="491.5254"/><text fill="#000000" font-family="sans-serif" font-size="13" lengthAdjust="spacing" textLength="88.48" x="195.8271" y="486.7832">Portfolio JSON</text></g><!--SRC=[bL8zIyH05EptLxmo0ILzE0vEaKCB3HVz0MlopbkCk_5bew9O268XMWW7AdvWPsDZ8JR-8Y_t7tp9wP6SM5W4DfbvCvDvAoDh23Oo995AiYfIgTGM5iZiptxhv7OGaDbJCHB833f10-wPt68tbnINOA_Rd4tLOgAGJzNWyY_X46bFHLZ1eH1b89Xl_-JmmOjbDjWqfNhnTFNv_Y6-ePBLw_f0k9ihmbBBSOKs5e7Kri22wLTugvKcKckCs-rwrC-tb_7DAOpl-BczBqvVnxT38HCBrcoZXkBwh7Yu4C0IZJY4CPj5rl4IiwMqounVaRDySqTPY9ZBFwvaaZ6hbheJ-X2iXUlWIGuz4M969uJvkinHbMIEBVk4sM1zyeO7wV6CNC2MQ2lS-Ml65QZZcNQcJl-fg6PSAqNprN2cct81F0zujdXy6PqFeNW-uTt1wEbYT3aSFP-8Hlfb7xfBN4PgoFPDeWmuvJ8DgKDfbT4-BA0a95SmjrbHC1rP2TTMlm00]--></g></svg>