<svg xmlns="http://www.w3.org/2000/svg" xmlns:xlink="http://www.w3.org/1999/xlink" contentStyleType="text/css" data-diagram-type="DESCRIPTION" height="575px" preserveAspectRatio="none" style="width:1652px;height:575px;background:#FFFFFF;" version="1.1" viewBox="0 0 1652 575" width="1652px" zoomAndPan="magnify"><defs/><g><!--cluster APP--><g class="cluster" data-entity="APP" data-source-line="1" data-uid="ent0002" id="cluster_APP"><path d="M8.5,6 L140.7021,6 A3.75,3.75 0 0 1 143.2021,8.5 L150.2021,28.4883 L625.5,28.4883 A2.5,2.5 0 0 1 628,30.9883 L628,474.4 A2.5,2.5 0 0 1 625.5,476.9 L8.5,476.9 A2.5,2.5 0 0 1 6,474.4 L6,8.5 A2.5,2.5 0 0 1 8.5,6" fill="none" style="stroke:#000000;stroke-width:1.5;"/><line style="stroke:#000000;stroke-width:1.5;" x1="6" x2="150.2021" y1="28.4883" y2="28.4883"/><text fill="#000000" font-family="sans-serif" font-size="14" font-weight="bold" lengthAdjust="spacing" textLength="131.2021" x="10" y="21.5352">app/ (App Router)</text></g><!--cluster C--><g class="cluster" data-entity="C" data-source-line="20" data-uid="ent0019" id="cluster_C"><path d="M670.5,130.22 L767.7842,130.22 A3.75,3.75 0 0 1 770.2842,132.72 L777.2842,152.7083 L1212.5,152.7083 A2.5,2.5 0 0 1 1215,155.2083 L1215,466.16 A2.5,2.5 0 0 1 1212.5,468.66 L670.5,468.66 A2.5,2.5 0 0 1 668,466.16 L668,132.72 A2.5,2.5 0 0 1 670.5,130.22" fill="none" style="stroke:#000000;stroke-width:1.5;"/><line style="stroke:#000000;stroke-width:1.5;" x1="668" x2="777.2842" y1="152.7083" y2="152.7083"/><text fill="#000000" font-family="sans-serif" font-size="14" font-weight="bold" lengthAdjust="spacing" textLength="96.2842" x="672" y="145.7552">components/</text></g><!--entity layout.tsx--><g class="entity" data-entity="layout.tsx" data-source-line="2" data-uid="ent0003" id="entity_layout.tsx"><rect fill="#F1F1F1" height="46.4883" rx="2.5" ry="2.5" style="stroke:#181818;stroke-width:0.5;" width="107.0059" x="37.5" y="53.74"/><rect fill="#F1F1F1" height="10" style="stroke:#181818;stroke-width:0.5;" width="15" x="124.5059" y="58.74"/><rect fill="#F1F1F1" height="2" style="stroke:#181818;stroke-width:0.5;" width="4" x="122.5059" y="60.74"/><rect fill="#F1F1F1" height="2" style="stroke:#181818;stroke-width:0.5;" width="4" x="122.5059" y="64.74"/><text fill="#000000" font-family="sans-serif" font-size="14" lengthAdjust="spacing" textLength="67.0059" x="52.5" y="87.2752">layout.tsx</text></g><!--entity page.tsx--><g class="entity" data-entity="page.tsx" data-source-line="3" data-uid="ent0004" id="entity_page.tsx"><rect fill="#F1F1F1" height="46.4883" rx="2.5" ry="2.5" style="stroke:#181818;stroke-width:0.5;" width="98.4609" x="179.77" y="53.74"/><rect fill="#F1F1F1" height="10" style="stroke:#181818;stroke-width:0.5;" width="15" x="258.2309" y="58.74"/><rect fill="#F1F1F1" height="2" style="stroke:#181818;stroke-width:0.5;" width="4" x="256.2309" y="60.74"/><rect fill="#F1F1F1" height="2" style="stroke:#181818;stroke-width:0.5;" width="4" x="256.2309" y="64.74"/><text fill="#000000" font-family="sans-serif" font-size="14" lengthAdjust="spacing" textLength="58.4609" x="194.77" y="87.2752">page.tsx</text></g><!--entity AUTH--><g class="entity" data-entity="AUTH" data-source-line="4" data-uid="ent0005" id="entity_AUTH"><path d="M315.9,49 L370.1002,49 A3.75,3.75 0 0 1 372.6002,51.5 L379.6002,71.4883 L394.1002,71.4883 A2.5,2.5 0 0 1 396.6002,73.9883 L396.6002,102.4766 A2.5,2.5 0 0 1 394.1002,104.9766 L315.9,104.9766 A2.5,2.5 0 0 1 313.4,102.4766 L313.4,51.5 A2.5,2.5 0 0 1 315.9,49" fill="#F1F1F1" style="stroke:#181818;stroke-width:0.5;"/><line style="stroke:#181818;stroke-width:0.5;" x1="313.4" x2="379.6002" y1="71.4883" y2="71.4883"/><text fill="#000000" font-family="sans-serif" font-size="14" font-weight="bold" lengthAdjust="spacing" textLength="41.2002" x="323.4" y="65.5352">AUTH</text><text fill="#000000" font-family="sans-serif" font-size="14" lengthAdjust="spacing" textLength="46.792" x="323.4" y="92.0234">(auth)/</text></g><!--entity DASH--><g class="entity" data-entity="DASH" data-source-line="5" data-uid="ent0006" id="entity_DASH"><path d="M433.8,49 L487.132,49 A3.75,3.75 0 0 1 489.632,51.5 L496.632,71.4883 L538.1926,71.4883 A2.5,2.5 0 0 1 540.6926,73.9883 L540.6926,102.4766 A2.5,2.5 0 0 1 538.1926,104.9766 L433.8,104.9766 A2.5,2.5 0 0 1 431.3,102.4766 L431.3,51.5 A2.5,2.5 0 0 1 433.8,49" fill="#F1F1F1" style="stroke:#181818;stroke-width:0.5;"/><line style="stroke:#181818;stroke-width:0.5;" x1="431.3" x2="496.632" y1="71.4883" y2="71.4883"/><text fill="#000000" font-family="sans-serif" font-size="14" font-weight="bold" lengthAdjust="spacing" textLength="40.332" x="441.3" y="65.5352">DASH</text><text fill="#000000" font-family="sans-serif" font-size="14" lengthAdjust="spacing" textLength="79.3926" x="441.3" y="92.0234">dashboard/</text></g><!--entity CHAT--><g class="entity" data-entity="CHAT" data-source-line="6" data-uid="ent0007" id="entity_CHAT"><path d="M52.07,164.97 L105.9352,164.97 A3.75,3.75 0 0 1 108.4352,167.47 L115.4352,187.4583 L129.9352,187.4583 A2.5,2.5 0 0 1 132.4352,189.9583 L132.4352,218.4466 A2.5,2.5 0 0 1 129.9352,220.9466 L52.07,220.9466 A2.5,2.5 0 0 1 49.57,218.4466 L49.57,167.47 A2.5,2.5 0 0 1 52.07,164.97" fill="#F1F1F1" style="stroke:#181818;stroke-width:0.5;"/><line style="stroke:#181818;stroke-width:0.5;" x1="49.57" x2="115.4352" y1="187.4583" y2="187.4583"/><text fill="#000000" font-family="sans-serif" font-size="14" font-weight="bold" lengthAdjust="spacing" textLength="40.8652" x="59.57" y="181.5052">CHAT</text><text fill="#000000" font-family="sans-serif" font-size="14" lengthAdjust="spacing" textLength="36.1689" x="59.57" y="207.9934">chat/</text></g><!--entity PORT--><g class="entity" data-entity="PORT" data-source-line="7" data-uid="ent0008" id="entity_PORT"><path d="M170.42,164.97 L222.8497,164.97 A3.75,3.75 0 0 1 225.3497,167.47 L232.3497,187.4583 L261.5782,187.4583 A2.5,2.5 0 0 1 264.0782,189.9583 L264.0782,218.4466 A2.5,2.5 0 0 1 261.5782,220.9466 L170.42,220.9466 A2.5,2.5 0 0 1 167.92,218.4466 L167.92,167.47 A2.5,2.5 0 0 1 170.42,164.97" fill="#F1F1F1" style="stroke:#181818;stroke-width:0.5;"/><line style="stroke:#181818;stroke-width:0.5;" x1="167.92" x2="232.3497" y1="187.4583" y2="187.4583"/><text fill="#000000" font-family="sans-serif" font-size="14" font-weight="bold" lengthAdjust="spacing" textLength="39.4297" x="177.92" y="181.5052">PORT</text><text fill="#000000" font-family="sans-serif" font-size="14" lengthAdjust="spacing" textLength="66.1582" x="177.92" y="207.9934">portfolio/</text></g><!--entity MKT--><g class="entity" data-entity="MKT" data-source-line="8" data-uid="ent0009" id="entity_MKT"><path d="M301.95,164.97 L347.2566,164.97 A3.75,3.75 0 0 1 349.7566,167.47 L356.7566,187.4583 L382.0408,187.4583 A2.5,2.5 0 0 1 384.5408,189.9583 L384.5408,218.4466 A2.5,2.5 0 0 1 382.0408,220.9466 L301.95,220.9466 A2.5,2.5 0 0 1 299.45,218.4466 L299.45,167.47 A2.5,2.5 0 0 1 301.95,164.97" fill="#F1F1F1" style="stroke:#181818;stroke-width:0.5;"/><line style="stroke:#181818;stroke-width:0.5;" x1="299.45" x2="356.7566" y1="187.4583" y2="187.4583"/><text fill="#000000" font-family="sans-serif" font-size="14" font-weight="bold" lengthAdjust="spacing" textLength="32.3066" x="309.45" y="181.5052">MKT</text><text fill="#000000" font-family="sans-serif" font-size="14" lengthAdjust="spacing" textLength="55.0908" x="309.45" y="207.9934">market/</text></g><!--entity AT--><g class="entity" data-entity="AT" data-source-line="9" data-uid="ent0010" id="entity_AT"><path d="M422.05,164.97 L455.0178,164.97 A3.75,3.75 0 0 1 457.5178,167.47 L464.5178,187.4583 L519.9553,187.4583 A2.5,2.5 0 0 1 522.4553,189.9583 L522.4553,218.4466 A2.5,2.5 0 0 1 519.9553,220.9466 L422.05,220.9466 A2.5,2.5 0 0 1 419.55,218.4466 L419.55,167.47 A2.5,2.5 0 0 1 422.05,164.97" fill="#F1F1F1" style="stroke:#181818;stroke-width:0.5;"/><line style="stroke:#181818;stroke-width:0.5;" x1="419.55" x2="464.5178" y1="187.4583" y2="187.4583"/><text fill="#000000" font-family="sans-serif" font-size="14" font-weight="bold" lengthAdjust="spacing" textLength="19.9678" x="429.55" y="181.5052">AT</text><text fill="#000000" font-family="sans-serif" font-size="14" lengthAdjust="spacing" textLength="72.9053" x="429.55" y="207.9934">autotrade/</text></g><!--entity SET--><g class="entity" data-entity="SET" data-source-line="10" data-uid="ent0011" id="entity_SET"><path d="M47.82,280.95 L86.8854,280.95 A3.75,3.75 0 0 1 89.3854,283.45 L96.3854,303.4383 L134.1725,303.4383 A2.5,2.5 0 0 1 136.6725,305.9383 L136.6725,334.4266 A2.5,2.5 0 0 1 134.1725,336.9266 L47.82,336.9266 A2.5,2.5 0 0 1 45.32,334.4266 L45.32,283.45 A2.5,2.5 0 0 1 47.82,280.95" fill="#F1F1F1" style="stroke:#181818;stroke-width:0.5;"/><line style="stroke:#181818;stroke-width:0.5;" x1="45.32" x2="96.3854" y1="303.4383" y2="303.4383"/><text fill="#000000" font-family="sans-serif" font-size="14" font-weight="bold" lengthAdjust="spacing" textLength="26.0654" x="55.32" y="297.4852">SET</text><text fill="#000000" font-family="sans-serif" font-size="14" lengthAdjust="spacing" textLength="61.3525" x="55.32" y="323.9734">settings/</text></g><!--entity TUT--><g class="entity" data-entity="TUT" data-source-line="11" data-uid="ent0012" id="entity_TUT"><path d="M174.17,280.95 L216.797,280.95 A3.75,3.75 0 0 1 219.297,283.45 L226.297,303.4383 L255.8263,303.4383 A2.5,2.5 0 0 1 258.3262,305.9383 L258.3262,334.4266 A2.5,2.5 0 0 1 255.8263,336.9266 L174.17,336.9266 A2.5,2.5 0 0 1 171.67,334.4266 L171.67,283.45 A2.5,2.5 0 0 1 174.17,280.95" fill="#F1F1F1" style="stroke:#181818;stroke-width:0.5;"/><line style="stroke:#181818;stroke-width:0.5;" x1="171.67" x2="226.297" y1="303.4383" y2="303.4383"/><text fill="#000000" font-family="sans-serif" font-size="14" font-weight="bold" lengthAdjust="spacing" textLength="29.627" x="181.67" y="297.4852">TUT</text><text fill="#000000" font-family="sans-serif" font-size="14" lengthAdjust="spacing" textLength="56.6563" x="181.67" y="323.9734">tutorial/</text></g><!--entity ONB--><g class="entity" data-entity="ONB" data-source-line="12" data-uid="ent0013" id="entity_ONB"><path d="M295.61,280.95 L339.7135,280.95 A3.75,3.75 0 0 1 342.2135,283.45 L349.2135,303.4383 L406.3873,303.4383 A2.5,2.5 0 0 1 408.8873,305.9383 L408.8873,334.4266 A2.5,2.5 0 0 1 406.3873,336.9266 L295.61,336.9266 A2.5,2.5 0 0 1 293.11,334.4266 L293.11,283.45 A2.5,2.5 0 0 1 295.61,280.95" fill="#F1F1F1" style="stroke:#181818;stroke-width:0.5;"/><line style="stroke:#181818;stroke-width:0.5;" x1="293.11" x2="349.2135" y1="303.4383" y2="303.4383"/><text fill="#000000" font-family="sans-serif" font-size="14" font-weight="bold" lengthAdjust="spacing" textLength="31.1035" x="303.11" y="297.4852">ONB</text><text fill="#000000" font-family="sans-serif" font-size="14" lengthAdjust="spacing" textLength="85.7773" x="303.11" y="323.9734">onboarding/</text></g><!--entity REP--><g class="entity" data-entity="REP" data-source-line="13" data-uid="ent0014" id="entity_REP"><path d="M446.31,280.95 L485.9633,280.95 A3.75,3.75 0 0 1 488.4633,283.45 L495.4633,303.4383 L527.6928,303.4383 A2.5,2.5 0 0 1 530.1928,305.9383 L530.1928,334.4266 A2.5,2.5 0 0 1 527.6928,336.9266 L446.31,336.9266 A2.5,2.5 0 0 1 443.81,334.4266 L443.81,283.45 A2.5,2.5 0 0 1 446.31,280.95" fill="#F1F1F1" style="stroke:#181818;stroke-width:0.5;"/><line style="stroke:#181818;stroke-width:0.5;" x1="443.81" x2="495.4633" y1="303.4383" y2="303.4383"/><text fill="#000000" font-family="sans-serif" font-size="14" font-weight="bold" lengthAdjust="spacing" textLength="26.6533" x="453.81" y="297.4852">REP</text><text fill="#000000" font-family="sans-serif" font-size="14" lengthAdjust="spacing" textLength="56.3828" x="453.81" y="323.9734">reports/</text></g><!--entity NOT--><g class="entity" data-entity="NOT" data-source-line="14" data-uid="ent0015" id="entity_NOT"><path d="M32.64,396.93 L77.5843,396.93 A3.75,3.75 0 0 1 80.0843,399.43 L87.0843,419.4183 L149.3578,419.4183 A2.5,2.5 0 0 1 151.8578,421.9183 L151.8578,450.4066 A2.5,2.5 0 0 1 149.3578,452.9066 L32.64,452.9066 A2.5,2.5 0 0 1 30.14,450.4066 L30.14,399.43 A2.5,2.5 0 0 1 32.64,396.93" fill="#F1F1F1" style="stroke:#181818;stroke-width:0.5;"/><line style="stroke:#181818;stroke-width:0.5;" x1="30.14" x2="87.0843" y1="419.4183" y2="419.4183"/><text fill="#000000" font-family="sans-serif" font-size="14" font-weight="bold" lengthAdjust="spacing" textLength="31.9443" x="40.14" y="413.4652">NOT</text><text fill="#000000" font-family="sans-serif" font-size="14" lengthAdjust="spacing" textLength="91.7178" x="40.14" y="439.9534">notifications/</text></g><!--entity RT--><g class="entity" data-entity="RT" data-source-line="15" data-uid="ent0016" id="entity_RT"><path d="M189.1,396.93 L221.4184,396.93 A3.75,3.75 0 0 1 223.9184,399.43 L230.9184,419.4183 L276.9018,419.4183 A2.5,2.5 0 0 1 279.4018,421.9183 L279.4018,450.4066 A2.5,2.5 0 0 1 276.9018,452.9066 L189.1,452.9066 A2.5,2.5 0 0 1 186.6,450.4066 L186.6,399.43 A2.5,2.5 0 0 1 189.1,396.93" fill="#F1F1F1" style="stroke:#181818;stroke-width:0.5;"/><line style="stroke:#181818;stroke-width:0.5;" x1="186.6" x2="230.9184" y1="419.4183" y2="419.4183"/><text fill="#000000" font-family="sans-serif" font-size="14" font-weight="bold" lengthAdjust="spacing" textLength="19.3184" x="196.6" y="413.4652">RT</text><text fill="#000000" font-family="sans-serif" font-size="14" lengthAdjust="spacing" textLength="62.8018" x="196.6" y="439.9534">realtime/</text></g><!--entity WST--><g class="entity" data-entity="WST" data-source-line="16" data-uid="ent0017" id="entity_WST"><path d="M317.31,396.93 L360.6205,396.93 A3.75,3.75 0 0 1 363.1205,399.43 L370.1205,419.4183 L454.686,419.4183 A2.5,2.5 0 0 1 457.186,421.9183 L457.186,450.4066 A2.5,2.5 0 0 1 454.686,452.9066 L317.31,452.9066 A2.5,2.5 0 0 1 314.81,450.4066 L314.81,399.43 A2.5,2.5 0 0 1 317.31,396.93" fill="#F1F1F1" style="stroke:#181818;stroke-width:0.5;"/><line style="stroke:#181818;stroke-width:0.5;" x1="314.81" x2="370.1205" y1="419.4183" y2="419.4183"/><text fill="#000000" font-family="sans-serif" font-size="14" font-weight="bold" lengthAdjust="spacing" textLength="30.3105" x="324.81" y="413.4652">WST</text><text fill="#000000" font-family="sans-serif" font-size="14" lengthAdjust="spacing" textLength="112.376" x="324.81" y="439.9534">websocket-test/</text></g><!--entity ET--><g class="entity" data-entity="ET" data-source-line="17" data-uid="ent0018" id="entity_ET"><path d="M494.28,396.93 L525.3474,396.93 A3.75,3.75 0 0 1 527.8474,399.43 L534.8474,419.4183 L593.7165,419.4183 A2.5,2.5 0 0 1 596.2165,421.9183 L596.2165,450.4066 A2.5,2.5 0 0 1 593.7165,452.9066 L494.28,452.9066 A2.5,2.5 0 0 1 491.78,450.4066 L491.78,399.43 A2.5,2.5 0 0 1 494.28,396.93" fill="#F1F1F1" style="stroke:#181818;stroke-width:0.5;"/><line style="stroke:#181818;stroke-width:0.5;" x1="491.78" x2="534.8474" y1="419.4183" y2="419.4183"/><text fill="#000000" font-family="sans-serif" font-size="14" font-weight="bold" lengthAdjust="spacing" textLength="18.0674" x="501.78" y="413.4652">ET</text><text fill="#000000" font-family="sans-serif" font-size="14" lengthAdjust="spacing" textLength="74.4365" x="501.78" y="439.9534">error-test/</text></g><!--entity ui--><g class="entity" data-entity="ui" data-source-line="21" data-uid="ent0020" id="entity_ui"><path d="M712.63,173.22 L739.3771,173.22 A3.75,3.75 0 0 1 741.8771,175.72 L748.8771,195.7083 L763.3771,195.7083 A2.5,2.5 0 0 1 765.8771,198.2083 L765.8771,210.2083 A2.5,2.5 0 0 1 763.3771,212.7083 L712.63,212.7083 A2.5,2.5 0 0 1 710.13,210.2083 L710.13,175.72 A2.5,2.5 0 0 1 712.63,173.22" fill="#F1F1F1" style="stroke:#181818;stroke-width:0.5;"/><line style="stroke:#181818;stroke-width:0.5;" x1="710.13" x2="748.8771" y1="195.7083" y2="195.7083"/><text fill="#000000" font-family="sans-serif" font-size="14" font-weight="bold" lengthAdjust="spacing" textLength="13.7471" x="720.13" y="189.7552">ui</text></g><!--entity dashboard--><g class="entity" data-entity="dashboard" data-source-line="22" data-uid="ent0021" id="entity_dashboard"><path d="M803.15,173.22 L892.8561,173.22 A3.75,3.75 0 0 1 895.3561,175.72 L902.3561,195.7083 L916.8561,195.7083 A2.5,2.5 0 0 1 919.3561,198.2083 L919.3561,210.2083 A2.5,2.5 0 0 1 916.8561,212.7083 L803.15,212.7083 A2.5,2.5 0 0 1 800.65,210.2083 L800.65,175.72 A2.5,2.5 0 0 1 803.15,173.22" fill="#F1F1F1" style="stroke:#181818;stroke-width:0.5;"/><line style="stroke:#181818;stroke-width:0.5;" x1="800.65" x2="902.3561" y1="195.7083" y2="195.7083"/><text fill="#000000" font-family="sans-serif" font-size="14" font-weight="bold" lengthAdjust="spacing" textLength="76.7061" x="810.65" y="189.7552">dashboard</text></g><!--entity chat--><g class="entity" data-entity="chat" data-source-line="23" data-uid="ent0022" id="entity_chat"><path d="M957.23,173.22 L1000.7798,173.22 A3.75,3.75 0 0 1 1003.2798,175.72 L1010.2798,195.7083 L1024.7798,195.7083 A2.5,2.5 0 0 1 1027.2798,198.2083 L1027.2798,210.2083 A2.5,2.5 0 0 1 1024.7798,212.7083 L957.23,212.7083 A2.5,2.5 0 0 1 954.73,210.2083 L954.73,175.72 A2.5,2.5 0 0 1 957.23,173.22" fill="#F1F1F1" style="stroke:#181818;stroke-width:0.5;"/><line style="stroke:#181818;stroke-width:0.5;" x1="954.73" x2="1010.2798" y1="195.7083" y2="195.7083"/><text fill="#000000" font-family="sans-serif" font-size="14" font-weight="bold" lengthAdjust="spacing" textLength="30.5498" x="964.73" y="189.7552">chat</text></g><!--entity portfolio--><g class="entity" data-entity="portfolio" data-source-line="24" data-uid="ent0023" id="entity_portfolio"><path d="M1064.98,173.22 L1141.0279,173.22 A3.75,3.75 0 0 1 1143.5279,175.72 L1150.5279,195.7083 L1165.0279,195.7083 A2.5,2.5 0 0 1 1167.5279,198.2083 L1167.5279,210.2083 A2.5,2.5 0 0 1 1165.0279,212.7083 L1064.98,212.7083 A2.5,2.5 0 0 1 1062.48,210.2083 L1062.48,175.72 A2.5,2.5 0 0 1 1064.98,173.22" fill="#F1F1F1" style="stroke:#181818;stroke-width:0.5;"/><line style="stroke:#181818;stroke-width:0.5;" x1="1062.48" x2="1150.5279" y1="195.7083" y2="195.7083"/><text fill="#000000" font-family="sans-serif" font-size="14" font-weight="bold" lengthAdjust="spacing" textLength="63.0479" x="1072.48" y="189.7552">portfolio</text></g><!--entity market--><g class="entity" data-entity="market" data-source-line="25" data-uid="ent0024" id="entity_market"><path d="M694.05,289.19 L757.9572,289.19 A3.75,3.75 0 0 1 760.4572,291.69 L767.4572,311.6783 L781.9572,311.6783 A2.5,2.5 0 0 1 784.4572,314.1783 L784.4572,326.1783 A2.5,2.5 0 0 1 781.9572,328.6783 L694.05,328.6783 A2.5,2.5 0 0 1 691.55,326.1783 L691.55,291.69 A2.5,2.5 0 0 1 694.05,289.19" fill="#F1F1F1" style="stroke:#181818;stroke-width:0.5;"/><line style="stroke:#181818;stroke-width:0.5;" x1="691.55" x2="767.4572" y1="311.6783" y2="311.6783"/><text fill="#000000" font-family="sans-serif" font-size="14" font-weight="bold" lengthAdjust="spacing" textLength="50.9072" x="701.55" y="305.7252">market</text></g><!--entity autotrade--><g class="entity" data-entity="autotrade" data-source-line="26" data-uid="ent0025" id="entity_autotrade"><path d="M821.61,289.19 L904.3981,289.19 A3.75,3.75 0 0 1 906.8981,291.69 L913.8981,311.6783 L928.3981,311.6783 A2.5,2.5 0 0 1 930.8981,314.1783 L930.8981,326.1783 A2.5,2.5 0 0 1 928.3981,328.6783 L821.61,328.6783 A2.5,2.5 0 0 1 819.11,326.1783 L819.11,291.69 A2.5,2.5 0 0 1 821.61,289.19" fill="#F1F1F1" style="stroke:#181818;stroke-width:0.5;"/><line style="stroke:#181818;stroke-width:0.5;" x1="819.11" x2="913.8981" y1="311.6783" y2="311.6783"/><text fill="#000000" font-family="sans-serif" font-size="14" font-weight="bold" lengthAdjust="spacing" textLength="69.7881" x="829.11" y="305.7252">autotrade</text></g><!--entity layout--><g class="entity" data-entity="layout" data-source-line="27" data-uid="ent0026" id="entity_layout"><path d="M968.12,289.19 L1025.8749,289.19 A3.75,3.75 0 0 1 1028.3749,291.69 L1035.3749,311.6783 L1049.8749,311.6783 A2.5,2.5 0 0 1 1052.3749,314.1783 L1052.3749,326.1783 A2.5,2.5 0 0 1 1049.8749,328.6783 L968.12,328.6783 A2.5,2.5 0 0 1 965.62,326.1783 L965.62,291.69 A2.5,2.5 0 0 1 968.12,289.19" fill="#F1F1F1" style="stroke:#181818;stroke-width:0.5;"/><line style="stroke:#181818;stroke-width:0.5;" x1="965.62" x2="1035.3749" y1="311.6783" y2="311.6783"/><text fill="#000000" font-family="sans-serif" font-size="14" font-weight="bold" lengthAdjust="spacing" textLength="44.7549" x="975.62" y="305.7252">layout</text></g><!--entity tutorial--><g class="entity" data-entity="tutorial" data-source-line="28" data-uid="ent0027" id="entity_tutorial"><path d="M1089.91,289.19 L1156.0936,289.19 A3.75,3.75 0 0 1 1158.5936,291.69 L1165.5936,311.6783 L1180.0936,311.6783 A2.5,2.5 0 0 1 1182.5936,314.1783 L1182.5936,326.1783 A2.5,2.5 0 0 1 1180.0936,328.6783 L1089.91,328.6783 A2.5,2.5 0 0 1 1087.41,326.1783 L1087.41,291.69 A2.5,2.5 0 0 1 1089.91,289.19" fill="#F1F1F1" style="stroke:#181818;stroke-width:0.5;"/><line style="stroke:#181818;stroke-width:0.5;" x1="1087.41" x2="1165.5936" y1="311.6783" y2="311.6783"/><text fill="#000000" font-family="sans-serif" font-size="14" font-weight="bold" lengthAdjust="spacing" textLength="53.1836" x="1097.41" y="305.7252">tutorial</text></g><!--entity landing--><g class="entity" data-entity="landing" data-source-line="29" data-uid="ent0028" id="entity_landing"><path d="M694.38,405.17 L761.6163,405.17 A3.75,3.75 0 0 1 764.1163,407.67 L771.1163,427.6583 L785.6163,427.6583 A2.5,2.5 0 0 1 788.1163,430.1583 L788.1163,442.1583 A2.5,2.5 0 0 1 785.6163,444.6583 L694.38,444.6583 A2.5,2.5 0 0 1 691.88,442.1583 L691.88,407.67 A2.5,2.5 0 0 1 694.38,405.17" fill="#F1F1F1" style="stroke:#181818;stroke-width:0.5;"/><line style="stroke:#181818;stroke-width:0.5;" x1="691.88" x2="771.1163" y1="427.6583" y2="427.6583"/><text fill="#000000" font-family="sans-serif" font-size="14" font-weight="bold" lengthAdjust="spacing" textLength="54.2363" x="701.88" y="421.7052">landing</text></g><!--entity reports--><g class="entity" data-entity="reports" data-source-line="30" data-uid="ent0029" id="entity_reports"><path d="M825.13,405.17 L890.8693,405.17 A3.75,3.75 0 0 1 893.3693,407.67 L900.3693,427.6583 L914.8693,427.6583 A2.5,2.5 0 0 1 917.3693,430.1583 L917.3693,442.1583 A2.5,2.5 0 0 1 914.8693,444.6583 L825.13,444.6583 A2.5,2.5 0 0 1 822.63,442.1583 L822.63,407.67 A2.5,2.5 0 0 1 825.13,405.17" fill="#F1F1F1" style="stroke:#181818;stroke-width:0.5;"/><line style="stroke:#181818;stroke-width:0.5;" x1="822.63" x2="900.3693" y1="427.6583" y2="427.6583"/><text fill="#000000" font-family="sans-serif" font-size="14" font-weight="bold" lengthAdjust="spacing" textLength="52.7393" x="832.63" y="421.7052">reports</text></g><!--entity H--><g class="entity" data-entity="H" data-source-line="33" data-uid="ent0030" id="entity_H"><path d="M1362.23,280.95 L1386.1538,280.95 A3.75,3.75 0 0 1 1388.6538,283.45 L1395.6538,303.4383 L1435.7788,303.4383 A2.5,2.5 0 0 1 1438.2788,305.9383 L1438.2788,334.4266 A2.5,2.5 0 0 1 1435.7788,336.9266 L1362.23,336.9266 A2.5,2.5 0 0 1 1359.73,334.4266 L1359.73,283.45 A2.5,2.5 0 0 1 1362.23,280.95" fill="#F1F1F1" style="stroke:#181818;stroke-width:0.5;"/><line style="stroke:#181818;stroke-width:0.5;" x1="1359.73" x2="1395.6538" y1="303.4383" y2="303.4383"/><text fill="#000000" font-family="sans-serif" font-size="14" font-weight="bold" lengthAdjust="spacing" textLength="10.9238" x="1369.73" y="297.4852">H</text><text fill="#000000" font-family="sans-serif" font-size="14" lengthAdjust="spacing" textLength="48.5488" x="1369.73" y="323.9734">hooks/</text></g><!--entity L--><g class="entity" data-entity="L" data-source-line="34" data-uid="ent0031" id="entity_L"><path d="M1374.38,396.93 L1395.5216,396.93 A3.75,3.75 0 0 1 1398.0216,399.43 L1405.0216,419.4183 L1423.6271,419.4183 A2.5,2.5 0 0 1 1426.1271,421.9183 L1426.1271,450.4066 A2.5,2.5 0 0 1 1423.6271,452.9066 L1374.38,452.9066 A2.5,2.5 0 0 1 1371.88,450.4066 L1371.88,399.43 A2.5,2.5 0 0 1 1374.38,396.93" fill="#F1F1F1" style="stroke:#181818;stroke-width:0.5;"/><line style="stroke:#181818;stroke-width:0.5;" x1="1371.88" x2="1405.0216" y1="419.4183" y2="419.4183"/><text fill="#000000" font-family="sans-serif" font-size="14" font-weight="bold" lengthAdjust="spacing" textLength="8.1416" x="1381.88" y="413.4652">L</text><text fill="#000000" font-family="sans-serif" font-size="14" lengthAdjust="spacing" textLength="24.2471" x="1381.88" y="439.9534">lib/</text></g><!--entity P--><g class="entity" data-entity="P" data-source-line="35" data-uid="ent0032" id="entity_P"><path d="M1546.87,280.95 L1568.4559,280.95 A3.75,3.75 0 0 1 1570.9559,283.45 L1577.9559,303.4383 L1643.121,303.4383 A2.5,2.5 0 0 1 1645.621,305.9383 L1645.621,334.4266 A2.5,2.5 0 0 1 1643.121,336.9266 L1546.87,336.9266 A2.5,2.5 0 0 1 1544.37,334.4266 L1544.37,283.45 A2.5,2.5 0 0 1 1546.87,280.95" fill="#F1F1F1" style="stroke:#181818;stroke-width:0.5;"/><line style="stroke:#181818;stroke-width:0.5;" x1="1544.37" x2="1577.9559" y1="303.4383" y2="303.4383"/><text fill="#000000" font-family="sans-serif" font-size="14" font-weight="bold" lengthAdjust="spacing" textLength="8.5859" x="1554.37" y="297.4852">P</text><text fill="#000000" font-family="sans-serif" font-size="14" lengthAdjust="spacing" textLength="71.251" x="1554.37" y="323.9734">providers/</text></g><!--entity T--><g class="entity" data-entity="T" data-source-line="36" data-uid="ent0033" id="entity_T"><path d="M1282.68,512.9 L1305.3392,512.9 A3.75,3.75 0 0 1 1307.8392,515.4 L1314.8392,535.3883 L1351.3206,535.3883 A2.5,2.5 0 0 1 1353.8206,537.8883 L1353.8206,566.3766 A2.5,2.5 0 0 1 1351.3206,568.8766 L1282.68,568.8766 A2.5,2.5 0 0 1 1280.18,566.3766 L1280.18,515.4 A2.5,2.5 0 0 1 1282.68,512.9" fill="#F1F1F1" style="stroke:#181818;stroke-width:0.5;"/><line style="stroke:#181818;stroke-width:0.5;" x1="1280.18" x2="1314.8392" y1="535.3883" y2="535.3883"/><text fill="#000000" font-family="sans-serif" font-size="14" font-weight="bold" lengthAdjust="spacing" textLength="9.6592" x="1290.18" y="529.4352">T</text><text fill="#000000" font-family="sans-serif" font-size="14" lengthAdjust="spacing" textLength="43.6406" x="1290.18" y="555.9234">types/</text></g><!--link APP to C--><g class="link" data-entity-1="APP" data-entity-2="C" data-source-line="38" data-uid="lnk34" id="link_APP_C"><path d="M628.2719,77.8701 C628.5547,77.8666 628.8443,77.8631 629.1408,77.8594 C629.7336,77.8522 630.3538,77.8448 631.0007,77.8372 C632.2945,77.8219 633.6955,77.8059 635.1997,77.7893 C638.2082,77.7562 641.6299,77.7209 645.4344,77.6853 C660.6525,77.543 681.9963,77.3957 707.5227,77.3608 C758.5753,77.2909 826.3581,77.6706 895.3263,79.4388 C1033.2625,82.975 1175.94,92.065 1199,114.22 C1202.0338,117.1337 1204.45,120.4819 1206.3538,124.1164 C1207.3057,125.9337 1208.1296,127.8226 1208.8384,129.7646 C1208.8827,129.886 1206.9121,146.8441 1206.9555,146.9659" fill="none" id="APP-to-C" style="stroke:#181818;stroke-width:1;"/><polygon fill="#181818" points="1208.97,152.6177,1209.7162,142.7971,1207.2913,147.9079,1202.1805,145.483,1208.97,152.6177" style="stroke:#181818;stroke-width:1;"/></g><!--link APP to H--><g class="link" data-entity-1="APP" data-entity-2="H" data-source-line="39" data-uid="lnk35" id="link_APP_H"><path d="M628.431,78.1118 C628.7193,78.1163 629.0147,78.1208 629.317,78.1255 C629.9216,78.1349 630.554,78.1447 631.2138,78.1551 C632.5334,78.1759 633.9623,78.1986 635.4968,78.2235 C638.5658,78.2733 642.057,78.3314 645.9398,78.3983 C661.4712,78.666 683.2693,79.0745 709.3798,79.6516 C761.6009,80.8056 831.0719,82.6338 902.1588,85.3575 C1044.3325,90.805 1192.97,99.835 1223,114.22 C1299.23,150.73 1354.5363,231.2912 1380.7563,275.4412" fill="none" id="APP-to-H" style="stroke:#181818;stroke-width:1;"/><polygon fill="#181818" points="1383.82,280.6,1382.6636,270.8193,1381.2669,276.301,1375.7852,274.9043,1383.82,280.6" style="stroke:#181818;stroke-width:1;"/></g><!--link APP to L--><g class="link" data-entity-1="APP" data-entity-2="L" data-source-line="40" data-uid="lnk36" id="link_APP_L"><path d="M628.6664,78.0397 C633.6813,78.0726 640.7659,78.1239 649.641,78.2002 C667.3913,78.3529 692.3034,78.6059 722.1438,79.0117 C781.8244,79.8234 861.2175,81.2469 942.4525,83.7037 C1104.9225,88.6175 1274.76,97.665 1309,114.22 C1397.94,157.22 1421.08,188.54 1456,280.95 C1464.79,304.22 1463.11,313.09 1456,336.93 C1449.44,358.9 1439.0333,398.2241 1426.5133,414.3941" fill="none" id="APP-to-L" style="stroke:#181818;stroke-width:1;"/><polygon fill="#181818" points="1422.84,419.1383,1431.5127,414.4709,1425.9011,415.1848,1425.1871,409.5732,1422.84,419.1383" style="stroke:#181818;stroke-width:1;"/></g><!--link APP to P--><g class="link" data-entity-1="APP" data-entity-2="P" data-source-line="41" data-uid="lnk37" id="link_APP_P"><path d="M628.3741,78.0665 C628.7384,78.07 629.1141,78.0737 629.5011,78.0774 C630.2751,78.085 631.0943,78.0931 631.958,78.1017 C638.8673,78.1703 648.6204,78.2716 660.8187,78.4086 C685.2151,78.6826 719.3921,79.0999 760.1605,79.6867 C841.6972,80.8603 949.5994,82.7119 1058.3538,85.4513 C1275.8625,90.93 1496.78,99.96 1517,114.22 C1571.96,152.98 1587.5731,253.8043 1592.3631,297.2943" fill="none" id="APP-to-P" style="stroke:#181818;stroke-width:1;"/><polygon fill="#181818" points="1593.02,303.2583,1596.0107,293.8745,1592.4726,298.2883,1588.0587,294.7503,1593.02,303.2583" style="stroke:#181818;stroke-width:1;"/></g><!--link C to H--><g class="link" data-entity-1="C" data-entity-2="H" data-source-line="42" data-uid="lnk38" id="link_C_H"><path d="M1215.0974,198.7646 C1215.9982,199.2994 1216.9665,199.8743 1217.9986,200.487 C1220.0628,201.7124 1222.3817,203.0891 1224.9244,204.5986 C1235.095,210.6366 1248.845,218.7994 1264.185,227.9063 C1294.865,246.12 1326.7459,265.0467 1354.2309,281.3667" fill="none" id="C-to-H" style="stroke:#181818;stroke-width:1;"/><polygon fill="#181818" points="1359.39,284.43,1353.6936,276.3956,1355.0908,281.8772,1349.6092,283.2744,1359.39,284.43" style="stroke:#181818;stroke-width:1;"/></g><!--link C to L--><g class="link" data-entity-1="C" data-entity-2="L" data-source-line="43" data-uid="lnk39" id="link_C_L"><path d="M1215.0961,203.6595 C1215.5965,204.2589 1216.1178,204.8832 1216.6592,205.5317 C1217.7422,206.8287 1218.9059,208.2225 1220.145,209.7066 C1222.6234,212.6749 1225.4035,216.0046 1228.4428,219.6447 C1240.6,234.205 1256.9038,253.7313 1274.625,274.955 C1310.0675,317.4025 1347.3343,362.0345 1372.2843,391.9145" fill="none" id="C-to-L" style="stroke:#181818;stroke-width:1;"/><polygon fill="#181818" points="1376.13,396.52,1373.4319,387.0479,1372.9253,392.6821,1367.2912,392.1755,1376.13,396.52" style="stroke:#181818;stroke-width:1;"/></g><!--link C to T--><g class="link" data-entity-1="C" data-entity-2="T" data-source-line="44" data-uid="lnk40" id="link_C_T"><path d="M1215,220.95 C1248.38,329.29 1288.2263,460.548 1306.2063,515.568" fill="none" id="C-to-T" style="stroke:#181818;stroke-width:1;"/><polygon fill="#181818" points="1308.07,521.2712,1309.0765,511.4739,1306.5169,516.5185,1301.4722,513.9589,1308.07,521.2712" style="stroke:#181818;stroke-width:1;"/></g><!--link H to L--><g class="link" data-entity-1="H" data-entity-2="L" data-source-line="45" data-uid="lnk41" id="link_H_L"><path d="M1399,337.24 C1399,355.15 1399,385.3057 1399,403.2557" fill="none" id="H-to-L" style="stroke:#181818;stroke-width:1;"/><polygon fill="#181818" points="1399,409.2557,1403,400.2557,1399,404.2557,1395,400.2557,1399,409.2557" style="stroke:#181818;stroke-width:1;"/></g><!--link P to L--><g class="link" data-entity-1="P" data-entity-2="L" data-source-line="46" data-uid="lnk42" id="link_P_L"><path d="M1548.05,337.24 C1510.11,359.3 1463.1969,409.0723 1431.7069,427.3823" fill="none" id="P-to-L" style="stroke:#181818;stroke-width:1;"/><polygon fill="#181818" points="1426.52,430.3983,1436.311,429.3323,1430.8424,427.885,1432.2897,422.4164,1426.52,430.3983" style="stroke:#181818;stroke-width:1;"/></g><!--link L to T--><g class="link" data-entity-1="L" data-entity-2="T" data-source-line="47" data-uid="lnk43" id="link_L_T"><path d="M1379.36,453.22 C1366.47,471.13 1353.1851,512.0886 1340.2651,530.0386" fill="none" id="L-to-T" style="stroke:#181818;stroke-width:1;"/><polygon fill="#181818" points="1336.76,534.9083,1345.2642,529.9404,1339.6809,530.8502,1338.7712,525.267,1336.76,534.9083" style="stroke:#181818;stroke-width:1;"/></g><!--SRC=[LP9DRi8m48NtFeN52XQK6rHAKwH8K8WWg8kgYo4nn29uB7jeYwhUlGbs4djbp_lcMVDZ3UK5pe9FGEi5doPQyntUI9ZPX8FbIPxpNyRvHmFtLduY-_FPXRhrz87kdvZ2ZUhPmXaFHHQo2cnzH32Lmw_9Fi9b3UH8cYL5I3GQEc4ZqU5ykulm5Sn5UElRAa9jDKW6Ak4hYg0LH5AThMFxPGIfTHe9ZOF58OAe7dsqPeUtcvSG6z5LxD_TBVEGAIHvaYMGHEKpDjiYTaD3ykfBZblz5aUBPTljd8JrBR_lenHX39e0jstzCJPE6QyQbL1zUUbZjps-oI0OzXLetPA2SDXCeBbr1CAmX41pVoaG-db7EQeRSQ3umKODrOWNtqisgeqyEcqzQjhWbwo4yTdvIEYkXLSBnheFFvy_ytIuPSDjFTnobdgMUkBEWcK-xXrhf_y3]--></g></svg>