<svg xmlns="http://www.w3.org/2000/svg" xmlns:xlink="http://www.w3.org/1999/xlink" contentStyleType="text/css" data-diagram-type="STATE" height="410px" preserveAspectRatio="none" style="width:1579px;height:410px;background:#FFFFFF;" version="1.1" viewBox="0 0 1579 410" width="1579px" zoomAndPan="magnify"><title>State Machine Diagrams</title><defs/><g><g class="title" data-source-line="8"><text fill="#000000" font-family="sans-serif" font-size="14" font-weight="bold" lengthAdjust="spacing" textLength="173.749" x="692.715" y="23.5352">State Machine Diagrams</text></g><path d="M19.5,44.4883 L409.9068,44.4883 A12.5,12.5 0 0 1 422.4068,56.9883 L422.4068,70.9766 L7,70.9766 L7,56.9883 A12.5,12.5 0 0 1 19.5,44.4883" fill="#FFFFFF"/><rect fill="none" height="360.4883" rx="12.5" ry="12.5" style="stroke:#000000;stroke-width:0.5;" width="415.4068" x="7" y="44.4883"/><line style="stroke:#000000;stroke-width:0.5;" x1="7" x2="422.4068" y1="70.9766" y2="70.9766"/><text fill="#000000" font-family="sans-serif" font-size="14" lengthAdjust="spacing" textLength="104.8359" x="162.2854" y="63.0234">TypingMessage</text><ellipse cx="138.22" cy="91.9766" fill="#222222" rx="10" ry="10" style="stroke:#222222;stroke-width:1;"/><g id="TypingMessage.Idle"><rect fill="#FFFFFF" height="50" rx="12.5" ry="12.5" style="stroke:#000000;stroke-width:0.5;" width="50" x="113.22" y="138.9766"/><line style="stroke:#000000;stroke-width:0.5;" x1="113.22" x2="163.22" y1="165.4648" y2="165.4648"/><text fill="#000000" font-family="sans-serif" font-size="14" lengthAdjust="spacing" textLength="24.6914" x="125.8743" y="157.5117">Idle</text></g><g id="TypingMessage.Typing"><rect fill="#FFFFFF" height="50" rx="12.5" ry="12.5" style="stroke:#000000;stroke-width:0.5;" width="66.4434" x="19" y="241.9766"/><line style="stroke:#000000;stroke-width:0.5;" x1="19" x2="85.4434" y1="268.4648" y2="268.4648"/><text fill="#000000" font-family="sans-serif" font-size="14" lengthAdjust="spacing" textLength="46.4434" x="29" y="260.5117">Typing</text></g><g id="TypingMessage.Done"><rect fill="#FFFFFF" height="50" rx="12.5" ry="12.5" style="stroke:#000000;stroke-width:0.5;" width="55.5742" x="175.43" y="344.9766"/><line style="stroke:#000000;stroke-width:0.5;" x1="175.43" x2="231.0042" y1="371.4648" y2="371.4648"/><text fill="#000000" font-family="sans-serif" font-size="14" lengthAdjust="spacing" textLength="35.5742" x="185.43" y="363.5117">Done</text></g><!--link *start*TypingMessage to Idle--><g class="link" data-entity-1=".start.TypingMessage" data-entity-2="Idle" data-source-line="11" data-uid="lnk4" id="link_.start.TypingMessage_Idle"><path d="M138.22,102.4166 C138.22,111.6766 138.22,120.1666 138.22,132.6566" fill="none" id="*start*TypingMessage-to-Idle" style="stroke:#181818;stroke-width:1;"/><polygon fill="#181818" points="138.22,138.6566,142.22,129.6566,138.22,133.6566,134.22,129.6566,138.22,138.6566" style="stroke:#181818;stroke-width:1;"/></g><!--link Idle to Typing--><g class="link" data-entity-1="Idle" data-entity-2="Typing" data-source-line="12" data-uid="lnk6" id="link_Idle_Typing"><path d="M113.13,167.2966 C88.37,171.0766 51.75,180.9866 34.22,206.9766 C27.27,217.2766 27.7141,224.952 33.1241,236.172" fill="none" id="Idle-to-Typing" style="stroke:#181818;stroke-width:1;"/><polygon fill="#181818" points="35.73,241.5766,35.4241,231.7325,33.5584,237.0728,28.2181,235.207,35.73,241.5766" style="stroke:#181818;stroke-width:1;"/><text fill="#000000" font-family="sans-serif" font-size="13" lengthAdjust="spacing" textLength="80.4248" x="35.22" y="220.5449">setText(text)</text></g><!--link Typing to Typing--><g class="link" data-entity-1="Typing" data-entity-2="Typing" data-source-line="13" data-uid="lnk7" id="link_Typing_Typing"><path d="M85.72,257.3466 C95.69,257.6266 103.44,260.8366 103.44,266.9766 C103.44,273.1166 101.6875,276.1521 91.7175,276.4421" fill="none" id="Typing-to-Typing" style="stroke:#181818;stroke-width:1;"/><polygon fill="#181818" points="85.72,276.6166,94.8325,280.3532,90.7179,276.4712,94.5999,272.3566,85.72,276.6166" style="stroke:#181818;stroke-width:1;"/><text fill="#000000" font-family="sans-serif" font-size="13" lengthAdjust="spacing" textLength="202.522" x="109.44" y="272.0449">setInterval 18ms (append chars)</text></g><!--link Typing to Done--><g class="link" data-entity-1="Typing" data-entity-2="Done" data-source-line="14" data-uid="lnk9" id="link_Typing_Done"><path d="M85.73,290.3966 C112.67,308.4066 145.0729,330.0806 170.3829,347.0106" fill="none" id="Typing-to-Done" style="stroke:#181818;stroke-width:1;"/><polygon fill="#181818" points="175.37,350.3466,170.1132,342.0179,171.214,347.5666,165.6653,348.6674,175.37,350.3466" style="stroke:#181818;stroke-width:1;"/><text fill="#000000" font-family="sans-serif" font-size="13" lengthAdjust="spacing" textLength="67.8755" x="137.76" y="323.5449">idx &gt;= len</text></g><!--link Done to Idle--><g class="link" data-entity-1="Done" data-entity-2="Idle" data-source-line="15" data-uid="lnk10" id="link_Done_Idle"><path d="M231.3,360.0566 C260.6,349.1266 305.15,327.5166 326.22,291.9766 C362.66,230.5066 340.76,220.0666 330.22,206.9766 C309.58,181.3266 216.9109,170.9545 169.6109,167.1745" fill="none" id="Done-to-Idle" style="stroke:#181818;stroke-width:1;"/><polygon fill="#181818" points="163.63,166.6966,172.2828,171.4008,168.6141,167.0949,172.92,163.4262,163.63,166.6966" style="stroke:#181818;stroke-width:1;"/><text fill="#000000" font-family="sans-serif" font-size="13" lengthAdjust="spacing" textLength="65.1968" x="347.21" y="272.0449">setText("")</text></g><!--link Typing to Idle--><g class="link" data-entity-1="Typing" data-entity-2="Idle" data-source-line="16" data-uid="lnk11" id="link_Typing_Idle"><path d="M85.65,249.5666 C96.58,242.8766 108.02,234.2566 116.22,223.9766 C124.2,213.9766 127.7703,206.5478 131.1503,195.1778" fill="none" id="Typing-to-Idle" style="stroke:#181818;stroke-width:1;"/><polygon fill="#181818" points="132.86,189.4266,126.4613,196.9136,131.4353,194.2193,134.1296,199.1932,132.86,189.4266" style="stroke:#181818;stroke-width:1;"/><text fill="#000000" font-family="sans-serif" font-size="13" lengthAdjust="spacing" textLength="198.7451" x="126.96" y="220.5449">unmount/cleanup(clearInterval)</text></g><path d="M469.96,44.4883 L737.4478,44.4883 A12.5,12.5 0 0 1 749.9478,56.9883 L749.9478,70.9766 L457.46,70.9766 L457.46,56.9883 A12.5,12.5 0 0 1 469.96,44.4883" fill="#FFFFFF"/><rect fill="none" height="360.4883" rx="12.5" ry="12.5" style="stroke:#000000;stroke-width:0.5;" width="292.4878" x="457.46" y="44.4883"/><line style="stroke:#000000;stroke-width:0.5;" x1="457.46" x2="749.9478" y1="70.9766" y2="70.9766"/><text fill="#000000" font-family="sans-serif" font-size="14" lengthAdjust="spacing" textLength="73.1172" x="567.1453" y="63.0234">WebSocket</text><ellipse cx="564.55" cy="91.9766" fill="#222222" rx="10" ry="10" style="stroke:#222222;stroke-width:1;"/><g id="WebSocket.Connecting"><rect fill="#FFFFFF" height="50" rx="12.5" ry="12.5" style="stroke:#000000;stroke-width:0.5;" width="97.335" x="515.88" y="138.9766"/><line style="stroke:#000000;stroke-width:0.5;" x1="515.88" x2="613.215" y1="165.4648" y2="165.4648"/><text fill="#000000" font-family="sans-serif" font-size="14" lengthAdjust="spacing" textLength="77.335" x="525.88" y="157.5117">Connecting</text></g><g id="WebSocket.Open"><rect fill="#FFFFFF" height="50" rx="12.5" ry="12.5" style="stroke:#000000;stroke-width:0.5;" width="56.1758" x="469.46" y="241.9766"/><line style="stroke:#000000;stroke-width:0.5;" x1="469.46" x2="525.6358" y1="268.4648" y2="268.4648"/><text fill="#000000" font-family="sans-serif" font-size="14" lengthAdjust="spacing" textLength="36.1758" x="479.46" y="260.5117">Open</text></g><g id="WebSocket.Backoff"><rect fill="#FFFFFF" height="50" rx="12.5" ry="12.5" style="stroke:#000000;stroke-width:0.5;" width="70.0322" x="529.53" y="344.9766"/><line style="stroke:#000000;stroke-width:0.5;" x1="529.53" x2="599.5622" y1="371.4648" y2="371.4648"/><text fill="#000000" font-family="sans-serif" font-size="14" lengthAdjust="spacing" textLength="50.0322" x="539.53" y="363.5117">Backoff</text></g><!--link *start*WebSocket to Connecting--><g class="link" data-entity-1=".start.WebSocket" data-entity-2="Connecting" data-source-line="20" data-uid="lnk14" id="link_.start.WebSocket_Connecting"><path d="M564.55,102.4166 C564.55,111.6766 564.55,120.1666 564.55,132.6566" fill="none" id="*start*WebSocket-to-Connecting" style="stroke:#181818;stroke-width:1;"/><polygon fill="#181818" points="564.55,138.6566,568.55,129.6566,564.55,133.6566,560.55,129.6566,564.55,138.6566" style="stroke:#181818;stroke-width:1;"/></g><!--link Connecting to Open--><g class="link" data-entity-1="Connecting" data-entity-2="Open" data-source-line="21" data-uid="lnk16" id="link_Connecting_Open"><path d="M515.57,188.8066 C509.2,193.9266 503.52,199.9666 499.55,206.9766 C493.69,217.3166 492.3561,224.4182 493.0561,235.6282" fill="none" id="Connecting-to-Open" style="stroke:#181818;stroke-width:1;"/><polygon fill="#181818" points="493.43,241.6166,496.8613,232.3848,493.1184,236.6263,488.8769,232.8833,493.43,241.6166" style="stroke:#181818;stroke-width:1;"/><text fill="#000000" font-family="sans-serif" font-size="13" lengthAdjust="spacing" textLength="49.645" x="500.55" y="220.5449">onOpen</text></g><!--link Connecting to Backoff--><g class="link" data-entity-1="Connecting" data-entity-2="Backoff" data-source-line="22" data-uid="lnk18" id="link_Connecting_Backoff"><path d="M564.55,189.1766 C564.55,228.3366 564.55,299.1466 564.55,338.4866" fill="none" id="Connecting-to-Backoff" style="stroke:#181818;stroke-width:1;"/><polygon fill="#181818" points="564.55,344.4866,568.55,335.4866,564.55,339.4866,560.55,335.4866,564.55,344.4866" style="stroke:#181818;stroke-width:1;"/><text fill="#000000" font-family="sans-serif" font-size="13" lengthAdjust="spacing" textLength="47.0425" x="565.55" y="272.0449">onError</text></g><!--link Open to Backoff--><g class="link" data-entity-1="Open" data-entity-2="Backoff" data-source-line="23" data-uid="lnk19" id="link_Open_Backoff"><path d="M492.91,292.3066 C491.99,303.5266 492.74,316.6066 498.55,326.9766 C505.38,339.1866 512.1536,345.4553 524.0836,352.0753" fill="none" id="Open-to-Backoff" style="stroke:#181818;stroke-width:1;"/><polygon fill="#181818" points="529.33,354.9866,523.4012,347.1221,524.958,352.5605,519.5196,354.1173,529.33,354.9866" style="stroke:#181818;stroke-width:1;"/><text fill="#000000" font-family="sans-serif" font-size="13" lengthAdjust="spacing" textLength="50.6606" x="499.55" y="323.5449">onClose</text></g><!--link Backoff to Connecting--><g class="link" data-entity-1="Backoff" data-entity-2="Connecting" data-source-line="24" data-uid="lnk20" id="link_Backoff_Connecting"><path d="M586.97,344.6766 C598.54,330.4566 611.48,311.5066 617.55,291.9766 C624.15,270.7566 624.15,263.1966 617.55,241.9766 C611.48,222.4466 602.3268,208.1506 590.7568,193.9306" fill="none" id="Backoff-to-Connecting" style="stroke:#181818;stroke-width:1;"/><polygon fill="#181818" points="586.97,189.2766,589.5474,198.7822,590.1256,193.155,595.7529,193.7332,586.97,189.2766" style="stroke:#181818;stroke-width:1;"/><text fill="#000000" font-family="sans-serif" font-size="13" lengthAdjust="spacing" textLength="116.4478" x="623.5" y="272.0449">timer(exp backoff)</text></g><path d="M797.51,44.4883 L1075.8976,44.4883 A12.5,12.5 0 0 1 1088.3976,56.9883 L1088.3976,70.9766 L785.01,70.9766 L785.01,56.9883 A12.5,12.5 0 0 1 797.51,44.4883" fill="#FFFFFF"/><rect fill="none" height="360.4883" rx="12.5" ry="12.5" style="stroke:#000000;stroke-width:0.5;" width="303.3876" x="785.01" y="44.4883"/><line style="stroke:#000000;stroke-width:0.5;" x1="785.01" x2="1088.3976" y1="70.9766" y2="70.9766"/><text fill="#000000" font-family="sans-serif" font-size="14" lengthAdjust="spacing" textLength="83.2207" x="895.0935" y="63.0234">AuthSession</text><ellipse cx="903.41" cy="91.9766" fill="#222222" rx="10" ry="10" style="stroke:#222222;stroke-width:1;"/><g id="AuthSession.Anonymous"><rect fill="#FFFFFF" height="50" rx="12.5" ry="12.5" style="stroke:#000000;stroke-width:0.5;" width="100.4453" x="853.18" y="138.9766"/><line style="stroke:#000000;stroke-width:0.5;" x1="853.18" x2="953.6253" y1="165.4648" y2="165.4648"/><text fill="#000000" font-family="sans-serif" font-size="14" lengthAdjust="spacing" textLength="80.4453" x="863.18" y="157.5117">Anonymous</text></g><g id="AuthSession.Authenticated"><rect fill="#FFFFFF" height="50" rx="12.5" ry="12.5" style="stroke:#000000;stroke-width:0.5;" width="114.7939" x="797.01" y="241.9766"/><line style="stroke:#000000;stroke-width:0.5;" x1="797.01" x2="911.8039" y1="268.4648" y2="268.4648"/><text fill="#000000" font-family="sans-serif" font-size="14" lengthAdjust="spacing" textLength="94.7939" x="807.01" y="260.5117">Authenticated</text></g><g id="AuthSession.Refreshing"><rect fill="#FFFFFF" height="50" rx="12.5" ry="12.5" style="stroke:#000000;stroke-width:0.5;" width="92.6182" x="877.1" y="344.9766"/><line style="stroke:#000000;stroke-width:0.5;" x1="877.1" x2="969.7182" y1="371.4648" y2="371.4648"/><text fill="#000000" font-family="sans-serif" font-size="14" lengthAdjust="spacing" textLength="72.6182" x="887.1" y="363.5117">Refreshing</text></g><!--link *start*AuthSession to Anonymous--><g class="link" data-entity-1=".start.AuthSession" data-entity-2="Anonymous" data-source-line="28" data-uid="lnk23" id="link_.start.AuthSession_Anonymous"><path d="M903.41,102.4166 C903.41,111.6766 903.41,120.1666 903.41,132.6566" fill="none" id="*start*AuthSession-to-Anonymous" style="stroke:#181818;stroke-width:1;"/><polygon fill="#181818" points="903.41,138.6566,907.41,129.6566,903.41,133.6566,899.41,129.6566,903.41,138.6566" style="stroke:#181818;stroke-width:1;"/></g><!--link Anonymous to Authenticated--><g class="link" data-entity-1="Anonymous" data-entity-2="Authenticated" data-source-line="29" data-uid="lnk25" id="link_Anonymous_Authenticated"><path d="M852.78,174.2566 C834.36,180.3466 815.38,190.3966 804.41,206.9766 C796.4,219.0666 799.5752,227.4595 811.0952,237.7495" fill="none" id="Anonymous-to-Authenticated" style="stroke:#181818;stroke-width:1;"/><polygon fill="#181818" points="815.57,241.7466,811.5225,232.7678,811.841,238.4157,806.1931,238.7342,815.57,241.7466" style="stroke:#181818;stroke-width:1;"/><text fill="#000000" font-family="sans-serif" font-size="13" lengthAdjust="spacing" textLength="75.8862" x="805.41" y="220.5449">login(token)</text></g><!--link Authenticated to Anonymous--><g class="link" data-entity-1="Authenticated" data-entity-2="Anonymous" data-source-line="30" data-uid="lnk26" id="link_Authenticated_Anonymous"><path d="M871.31,241.6166 C874.88,235.9666 878.46,229.8666 881.41,223.9766 C886.94,212.9266 889.8898,205.8004 893.6798,194.9604" fill="none" id="Authenticated-to-Anonymous" style="stroke:#181818;stroke-width:1;"/><polygon fill="#181818" points="895.66,189.2966,888.9138,196.4721,894.0098,194.0164,896.4655,199.1124,895.66,189.2966" style="stroke:#181818;stroke-width:1;"/><text fill="#000000" font-family="sans-serif" font-size="13" lengthAdjust="spacing" textLength="87.2993" x="889.51" y="220.5449">logout/expire</text></g><!--link Authenticated to Refreshing--><g class="link" data-entity-1="Authenticated" data-entity-2="Refreshing" data-source-line="31" data-uid="lnk28" id="link_Authenticated_Refreshing"><path d="M816.91,292.3566 C805.6,302.7566 798.13,315.2066 806.41,326.9766 C822.3,349.5666 845.6579,358.9338 870.9379,363.7938" fill="none" id="Authenticated-to-Refreshing" style="stroke:#181818;stroke-width:1;"/><polygon fill="#181818" points="876.83,364.9266,868.747,359.2994,871.9199,363.9826,867.2367,367.1555,876.83,364.9266" style="stroke:#181818;stroke-width:1;"/><text fill="#000000" font-family="sans-serif" font-size="13" lengthAdjust="spacing" textLength="93.8628" x="807.41" y="323.5449">t-&#916; before exp</text></g><!--link Refreshing to Authenticated--><g class="link" data-entity-1="Refreshing" data-entity-2="Authenticated" data-source-line="32" data-uid="lnk29" id="link_Refreshing_Authenticated"><path d="M917.28,344.7366 C913.75,333.5466 908.56,320.4466 901.41,309.9766 C897.09,303.6466 895.9587,301.7805 890.2887,296.3905" fill="none" id="Refreshing-to-Authenticated" style="stroke:#181818;stroke-width:1;"/><polygon fill="#181818" points="885.94,292.2566,889.707,301.3565,889.5639,295.7015,895.2189,295.5583,885.94,292.2566" style="stroke:#181818;stroke-width:1;"/><text fill="#000000" font-family="sans-serif" font-size="13" lengthAdjust="spacing" textLength="67.2979" x="911.47" y="323.5449">refresh OK</text></g><!--link Refreshing to Anonymous--><g class="link" data-entity-1="Refreshing" data-entity-2="Anonymous" data-source-line="33" data-uid="lnk30" id="link_Refreshing_Anonymous"><path d="M968.87,344.7166 C974.72,339.6466 979.88,333.7466 983.41,326.9766 C1008.04,279.6666 1009.2,252.5066 981.41,206.9766 C974.92,196.3466 969.9518,191.174 959.0518,185.054" fill="none" id="Refreshing-to-Anonymous" style="stroke:#181818;stroke-width:1;"/><polygon fill="#181818" points="953.82,182.1166,959.7093,190.0106,958.1798,184.5644,963.6259,183.0349,953.82,182.1166" style="stroke:#181818;stroke-width:1;"/><text fill="#000000" font-family="sans-serif" font-size="13" lengthAdjust="spacing" textLength="75.3276" x="1003.07" y="272.0449">refresh FAIL</text></g><path d="M1135.73,44.4883 L1553.6789,44.4883 A12.5,12.5 0 0 1 1566.1789,56.9883 L1566.1789,70.9766 L1123.23,70.9766 L1123.23,56.9883 A12.5,12.5 0 0 1 1135.73,44.4883" fill="#FFFFFF"/><rect fill="none" height="360.4883" rx="12.5" ry="12.5" style="stroke:#000000;stroke-width:0.5;" width="442.9489" x="1123.23" y="44.4883"/><line style="stroke:#000000;stroke-width:0.5;" x1="1123.23" x2="1566.1789" y1="70.9766" y2="70.9766"/><text fill="#000000" font-family="sans-serif" font-size="14" lengthAdjust="spacing" textLength="52.9307" x="1318.2391" y="63.0234">Tutorial</text><ellipse cx="1373.82" cy="91.9766" fill="#222222" rx="10" ry="10" style="stroke:#222222;stroke-width:1;"/><g id="Tutorial.NotStarted"><rect fill="#FFFFFF" height="50" rx="12.5" ry="12.5" style="stroke:#000000;stroke-width:0.5;" width="92.2627" x="1327.69" y="138.9766"/><line style="stroke:#000000;stroke-width:0.5;" x1="1327.69" x2="1419.9527" y1="165.4648" y2="165.4648"/><text fill="#000000" font-family="sans-serif" font-size="14" lengthAdjust="spacing" textLength="72.2627" x="1337.69" y="157.5117">NotStarted</text></g><g id="Tutorial.InProgress"><rect fill="#FFFFFF" height="50" rx="12.5" ry="12.5" style="stroke:#000000;stroke-width:0.5;" width="91.3193" x="1247.16" y="241.9766"/><line style="stroke:#000000;stroke-width:0.5;" x1="1247.16" x2="1338.4793" y1="268.4648" y2="268.4648"/><text fill="#000000" font-family="sans-serif" font-size="14" lengthAdjust="spacing" textLength="71.3193" x="1257.16" y="260.5117">InProgress</text></g><g id="Tutorial.StepComplete"><rect fill="#FFFFFF" height="50" rx="12.5" ry="12.5" style="stroke:#000000;stroke-width:0.5;" width="114.4385" x="1167.6" y="344.9766"/><line style="stroke:#000000;stroke-width:0.5;" x1="1167.6" x2="1282.0385" y1="371.4648" y2="371.4648"/><text fill="#000000" font-family="sans-serif" font-size="14" lengthAdjust="spacing" textLength="94.4385" x="1177.6" y="363.5117">StepComplete</text></g><g id="Tutorial.Completed"><rect fill="#FFFFFF" height="50" rx="12.5" ry="12.5" style="stroke:#000000;stroke-width:0.5;" width="93.8623" x="1341.89" y="344.9766"/><line style="stroke:#000000;stroke-width:0.5;" x1="1341.89" x2="1435.7523" y1="371.4648" y2="371.4648"/><text fill="#000000" font-family="sans-serif" font-size="14" lengthAdjust="spacing" textLength="73.8623" x="1351.89" y="363.5117">Completed</text></g><!--link *start*Tutorial to NotStarted--><g class="link" data-entity-1=".start.Tutorial" data-entity-2="NotStarted" data-source-line="37" data-uid="lnk33" id="link_.start.Tutorial_NotStarted"><path d="M1373.82,102.4166 C1373.82,111.6766 1373.82,120.1666 1373.82,132.6566" fill="none" id="*start*Tutorial-to-NotStarted" style="stroke:#181818;stroke-width:1;"/><polygon fill="#181818" points="1373.82,138.6566,1377.82,129.6566,1373.82,133.6566,1369.82,129.6566,1373.82,138.6566" style="stroke:#181818;stroke-width:1;"/></g><!--link NotStarted to InProgress--><g class="link" data-entity-1="NotStarted" data-entity-2="InProgress" data-source-line="38" data-uid="lnk35" id="link_NotStarted_InProgress"><path d="M1354.22,189.4266 C1341.48,205.3066 1328.7032,221.2354 1316.0032,237.0754" fill="none" id="NotStarted-to-InProgress" style="stroke:#181818;stroke-width:1;"/><polygon fill="#181818" points="1312.25,241.7566,1321.0006,237.2369,1315.3777,237.8556,1314.759,232.2327,1312.25,241.7566" style="stroke:#181818;stroke-width:1;"/><text fill="#000000" font-family="sans-serif" font-size="13" lengthAdjust="spacing" textLength="86.4551" x="1339.17" y="220.5449">startTutorial()</text></g><!--link InProgress to StepComplete--><g class="link" data-entity-1="InProgress" data-entity-2="StepComplete" data-source-line="39" data-uid="lnk37" id="link_InProgress_StepComplete"><path d="M1246.9,274.9666 C1208.5,281.8566 1158.09,293.7166 1145.82,309.9766 C1134.23,325.3466 1142.7637,335.825 1161.9337,345.855" fill="none" id="InProgress-to-StepComplete" style="stroke:#181818;stroke-width:1;"/><polygon fill="#181818" points="1167.25,348.6366,1161.1299,340.92,1162.8198,346.3186,1157.4212,348.0084,1167.25,348.6366" style="stroke:#181818;stroke-width:1;"/><text fill="#000000" font-family="sans-serif" font-size="13" lengthAdjust="spacing" textLength="93.812" x="1146.82" y="323.5449">completeStep()</text></g><!--link StepComplete to InProgress--><g class="link" data-entity-1="StepComplete" data-entity-2="InProgress" data-source-line="40" data-uid="lnk38" id="link_StepComplete_InProgress"><path d="M1240.84,344.5066 C1247.85,333.8666 1256.19,321.2666 1263.82,309.9766 C1267.69,304.2466 1268.499,303.0596 1272.469,297.2896" fill="none" id="StepComplete-to-InProgress" style="stroke:#181818;stroke-width:1;"/><polygon fill="#181818" points="1275.87,292.3466,1267.4732,297.4937,1273.0358,296.4657,1274.0638,302.0284,1275.87,292.3466" style="stroke:#181818;stroke-width:1;"/><text fill="#000000" font-family="sans-serif" font-size="13" lengthAdjust="spacing" textLength="63.8892" x="1264.82" y="323.5449">nextStep()</text></g><!--link InProgress to Completed--><g class="link" data-entity-1="InProgress" data-entity-2="Completed" data-source-line="41" data-uid="lnk40" id="link_InProgress_Completed"><path d="M1316.06,292.4266 C1331.16,308.3066 1346.6172,324.5668 1361.6672,340.4068" fill="none" id="InProgress-to-Completed" style="stroke:#181818;stroke-width:1;"/><polygon fill="#181818" points="1365.8,344.7566,1362.5006,335.4768,1362.356,341.1318,1356.701,340.9872,1365.8,344.7566" style="stroke:#181818;stroke-width:1;"/><text fill="#000000" font-family="sans-serif" font-size="13" lengthAdjust="spacing" textLength="117.4697" x="1347.57" y="323.5449">allStepsComplete()</text></g><!--link Completed to NotStarted--><g class="link" data-entity-1="Completed" data-entity-2="NotStarted" data-source-line="42" data-uid="lnk41" id="link_Completed_NotStarted"><path d="M1436.21,354.8866 C1449.39,348.5466 1462.17,339.5666 1469.82,326.9766 C1473.75,320.5166 1471.21,317.4066 1469.82,309.9766 C1460.78,261.7066 1459.5,246.1066 1429.82,206.9766 C1424.9,200.4866 1423.3634,198.3164 1416.9234,193.0464" fill="none" id="Completed-to-NotStarted" style="stroke:#181818;stroke-width:1;"/><polygon fill="#181818" points="1412.28,189.2466,1416.7119,198.0419,1416.1495,192.4131,1421.7783,191.8507,1412.28,189.2466" style="stroke:#181818;stroke-width:1;"/><text fill="#000000" font-family="sans-serif" font-size="13" lengthAdjust="spacing" textLength="88.8989" x="1467.28" y="272.0449">resetTutorial()</text></g><!--SRC=[RLDDRzim3BtxLn0zkGE2OhUXm0fawGe4MzTX2R33i8DYCxOGcJGaUainz5_iT-qtZV97OhkvMD9xZ-GJHOU3fTfuKy7EP8V2SqFvYXrx-5rQmIIS-2164Fua01ykAXLddwFli9rJaM8FJ396Nf94h3Y4JPlkqMIb9OHxQmej4fAaAxDzhYqLZnY2ARgYFzxyXCNY3jQvYxNYqfux9Tn2GDdYKLBHpxKgUcAkMPEW_sKSl7rN1KXDNIFba9N6XrdKFQknMx3v4UxUWqDIkiK66wEYLrUpu9vlgD8-oKtcq51Jft7rWuNhs8tkljznj-7iW3Avwug9C1FDgU3vq79FwbiBCCNDQpg-4U_thUAZz-nLqeRCoPNZWFsZHcnQLoLYA_Gf7kjsGbGoihrifDpe8rccYV4bCJthpODYftt7Q0IIs4p3SytkkB2K2X-GOWUdz2HL9-P6RjIBzNXH_Gtt7aFPEr_y-mixtBD7q1WD6D6NpFYEXgTF5xGZ7uFkORd-V6x6jX7sLYTht8alB3hfNlChU3vqCq9VFHUQAUOCaHXIfB4N8pggDuBrYglQeSJ9olfjX5lvX7-LddHAJz9PvY4gji0u5sLXm5hzMJ2zKjkA-0kSRR_y1m00]--></g></svg>