<svg xmlns="http://www.w3.org/2000/svg" xmlns:xlink="http://www.w3.org/1999/xlink" contentStyleType="text/css" data-diagram-type="SEQUENCE" height="592px" preserveAspectRatio="none" style="width:789px;height:592px;background:#FFFFFF;" version="1.1" viewBox="0 0 789 592" width="789px" zoomAndPan="magnify"><defs/><g><g><title>User</title><rect fill="#000000" fill-opacity="0.00000" height="430.3477" width="8" x="19.1826" y="81.4883"/><line style="stroke:#181818;stroke-width:0.5;stroke-dasharray:5,5;" x1="23" x2="23" y1="81.4883" y2="511.8359"/></g><g><title>TutorialOverlay</title><rect fill="#000000" fill-opacity="0.00000" height="430.3477" width="8" x="118.8792" y="81.4883"/><line style="stroke:#181818;stroke-width:0.5;stroke-dasharray:5,5;" x1="122.0423" x2="122.0423" y1="81.4883" y2="511.8359"/></g><g><title>useTutorial</title><rect fill="#000000" fill-opacity="0.00000" height="430.3477" width="8" x="290.7737" y="81.4883"/><line style="stroke:#181818;stroke-width:0.5;stroke-dasharray:5,5;" x1="294.4959" x2="294.4959" y1="81.4883" y2="511.8359"/></g><g><title>ApiClient</title><rect fill="#000000" fill-opacity="0.00000" height="430.3477" width="8" x="497.4212" y="81.4883"/><line style="stroke:#181818;stroke-width:0.5;stroke-dasharray:5,5;" x1="501.41" x2="501.41" y1="81.4883" y2="511.8359"/></g><g><title>TutorialAPI</title><rect fill="#000000" fill-opacity="0.00000" height="430.3477" width="8" x="735.2039" y="81.4883"/><line style="stroke:#181818;stroke-width:0.5;stroke-dasharray:5,5;" x1="739.0232" x2="739.0232" y1="81.4883" y2="511.8359"/></g><g class="participant participant-head" data-participant="User"><text fill="#000000" font-family="sans-serif" font-size="14" lengthAdjust="spacing" textLength="30.3652" x="5" y="78.5352">User</text><ellipse cx="23.1826" cy="13.5" fill="#E2E2F0" rx="8" ry="8" style="stroke:#181818;stroke-width:0.5;"/><path d="M23.1826,21.5 L23.1826,48.5 M10.1826,29.5 L36.1826,29.5 M23.1826,48.5 L10.1826,63.5 M23.1826,48.5 L36.1826,63.5" fill="none" style="stroke:#181818;stroke-width:0.5;"/></g><g class="participant participant-tail" data-participant="User"><text fill="#000000" font-family="sans-serif" font-size="14" lengthAdjust="spacing" textLength="30.3652" x="5" y="524.3711">User</text><ellipse cx="23.1826" cy="535.8242" fill="#E2E2F0" rx="8" ry="8" style="stroke:#181818;stroke-width:0.5;"/><path d="M23.1826,543.8242 L23.1826,570.8242 M10.1826,551.8242 L36.1826,551.8242 M23.1826,570.8242 L10.1826,585.8242 M23.1826,570.8242 L36.1826,585.8242" fill="none" style="stroke:#181818;stroke-width:0.5;"/></g><g class="participant participant-head" data-participant="TO"><rect fill="#E2E2F0" height="30.4883" rx="2.5" ry="2.5" style="stroke:#181818;stroke-width:0.5;" width="117.6738" x="64.0423" y="50"/><text fill="#000000" font-family="sans-serif" font-size="14" lengthAdjust="spacing" textLength="103.6738" x="71.0423" y="70.5352">TutorialOverlay</text></g><g class="participant participant-tail" data-participant="TO"><rect fill="#E2E2F0" height="30.4883" rx="2.5" ry="2.5" style="stroke:#181818;stroke-width:0.5;" width="117.6738" x="64.0423" y="510.8359"/><text fill="#000000" font-family="sans-serif" font-size="14" lengthAdjust="spacing" textLength="103.6738" x="71.0423" y="531.3711">TutorialOverlay</text></g><g class="participant participant-head" data-participant="UT"><rect fill="#E2E2F0" height="30.4883" rx="2.5" ry="2.5" style="stroke:#181818;stroke-width:0.5;" width="90.5557" x="249.4959" y="50"/><text fill="#000000" font-family="sans-serif" font-size="14" lengthAdjust="spacing" textLength="76.5557" x="256.4959" y="70.5352">useTutorial</text></g><g class="participant participant-tail" data-participant="UT"><rect fill="#E2E2F0" height="30.4883" rx="2.5" ry="2.5" style="stroke:#181818;stroke-width:0.5;" width="90.5557" x="249.4959" y="510.8359"/><text fill="#000000" font-family="sans-serif" font-size="14" lengthAdjust="spacing" textLength="76.5557" x="256.4959" y="531.3711">useTutorial</text></g><g class="participant participant-head" data-participant="API"><rect fill="#E2E2F0" height="30.4883" rx="2.5" ry="2.5" style="stroke:#181818;stroke-width:0.5;" width="76.0225" x="463.41" y="50"/><text fill="#000000" font-family="sans-serif" font-size="14" lengthAdjust="spacing" textLength="62.0225" x="470.41" y="70.5352">ApiClient</text></g><g class="participant participant-tail" data-participant="API"><rect fill="#E2E2F0" height="30.4883" rx="2.5" ry="2.5" style="stroke:#181818;stroke-width:0.5;" width="76.0225" x="463.41" y="510.8359"/><text fill="#000000" font-family="sans-serif" font-size="14" lengthAdjust="spacing" textLength="62.0225" x="470.41" y="531.3711">ApiClient</text></g><g class="participant participant-head" data-participant="TA"><rect fill="#E2E2F0" height="30.4883" rx="2.5" ry="2.5" style="stroke:#181818;stroke-width:0.5;" width="88.3613" x="695.0232" y="50"/><text fill="#000000" font-family="sans-serif" font-size="14" lengthAdjust="spacing" textLength="74.3613" x="702.0232" y="70.5352">TutorialAPI</text></g><g class="participant participant-tail" data-participant="TA"><rect fill="#E2E2F0" height="30.4883" rx="2.5" ry="2.5" style="stroke:#181818;stroke-width:0.5;" width="88.3613" x="695.0232" y="510.8359"/><text fill="#000000" font-family="sans-serif" font-size="14" lengthAdjust="spacing" textLength="74.3613" x="702.0232" y="531.3711">TutorialAPI</text></g><g class="message" data-participant-1="User" data-participant-2="TO"><polygon fill="#181818" points="110.8792,108.7988,120.8792,112.7988,110.8792,116.7988,114.8792,112.7988" style="stroke:#181818;stroke-width:1;"/><line style="stroke:#181818;stroke-width:1;" x1="23.1826" x2="116.8792" y1="112.7988" y2="112.7988"/><text fill="#000000" font-family="sans-serif" font-size="13" lengthAdjust="spacing" textLength="71.5833" x="30.1826" y="108.0566">&#53916;&#53664;&#47532;&#50620; &#49884;&#51089;</text></g><g class="message" data-participant-1="TO" data-participant-2="UT"><polygon fill="#181818" points="282.7737,138.1094,292.7737,142.1094,282.7737,146.1094,286.7737,142.1094" style="stroke:#181818;stroke-width:1;"/><line style="stroke:#181818;stroke-width:1;" x1="122.8792" x2="288.7737" y1="142.1094" y2="142.1094"/><text fill="#000000" font-family="sans-serif" font-size="13" lengthAdjust="spacing" textLength="147.8945" x="129.8792" y="137.3672">currentTutorial &#51221;&#48372; &#47196;&#46300;</text></g><g class="message" data-participant-1="UT" data-participant-2="API"><polygon fill="#181818" points="489.4212,167.4199,499.4212,171.4199,489.4212,175.4199,493.4212,171.4199" style="stroke:#181818;stroke-width:1;"/><line style="stroke:#181818;stroke-width:1;" x1="294.7737" x2="495.4212" y1="171.4199" y2="171.4199"/><text fill="#000000" font-family="sans-serif" font-size="13" lengthAdjust="spacing" textLength="132.228" x="301.7737" y="166.6777">getTutorialProgress()</text></g><g class="message" data-participant-1="API" data-participant-2="TA"><polygon fill="#181818" points="727.2039,196.7305,737.2039,200.7305,727.2039,204.7305,731.2039,200.7305" style="stroke:#181818;stroke-width:1;"/><line style="stroke:#181818;stroke-width:1;" x1="501.4212" x2="733.2039" y1="200.7305" y2="200.7305"/><text fill="#000000" font-family="sans-serif" font-size="13" lengthAdjust="spacing" textLength="177.3916" x="508.4212" y="195.9883">POST /api/tutorial/progress</text></g><g class="message" data-participant-1="TA" data-participant-2="API"><polygon fill="#181818" points="512.4212,226.041,502.4212,230.041,512.4212,234.041,508.4212,230.041" style="stroke:#181818;stroke-width:1;"/><line style="stroke:#181818;stroke-width:1;stroke-dasharray:2,2;" x1="506.4212" x2="738.2039" y1="230.041" y2="230.041"/><text fill="#000000" font-family="sans-serif" font-size="13" lengthAdjust="spacing" textLength="189.6743" x="518.4212" y="225.2988">{currentStep, completedSteps}</text></g><g class="message" data-participant-1="API" data-participant-2="UT"><polygon fill="#181818" points="305.7737,255.3516,295.7737,259.3516,305.7737,263.3516,301.7737,259.3516" style="stroke:#181818;stroke-width:1;"/><line style="stroke:#181818;stroke-width:1;stroke-dasharray:2,2;" x1="299.7737" x2="500.4212" y1="259.3516" y2="259.3516"/><text fill="#000000" font-family="sans-serif" font-size="13" lengthAdjust="spacing" textLength="103.562" x="311.7737" y="254.6094">TutorialProgress</text></g><g class="message" data-participant-1="UT" data-participant-2="TO"><polygon fill="#181818" points="133.8792,284.6621,123.8792,288.6621,133.8792,292.6621,129.8792,288.6621" style="stroke:#181818;stroke-width:1;"/><line style="stroke:#181818;stroke-width:1;stroke-dasharray:2,2;" x1="127.8792" x2="293.7737" y1="288.6621" y2="288.6621"/><text fill="#000000" font-family="sans-serif" font-size="13" lengthAdjust="spacing" textLength="102.2999" x="139.8792" y="283.9199">&#54788;&#51116; &#45800;&#44228; &#51221;&#48372; &#54364;&#49884;</text></g><g class="message" data-participant-1="User" data-participant-2="TO"><polygon fill="#181818" points="110.8792,313.9727,120.8792,317.9727,110.8792,321.9727,114.8792,317.9727" style="stroke:#181818;stroke-width:1;"/><line style="stroke:#181818;stroke-width:1;" x1="23.1826" x2="116.8792" y1="317.9727" y2="317.9727"/><text fill="#000000" font-family="sans-serif" font-size="13" lengthAdjust="spacing" textLength="75.6966" x="30.1826" y="313.2305">&#45796;&#51020; &#45800;&#44228; &#51652;&#54665;</text></g><g class="message" data-participant-1="TO" data-participant-2="UT"><polygon fill="#181818" points="282.7737,343.2832,292.7737,347.2832,282.7737,351.2832,286.7737,347.2832" style="stroke:#181818;stroke-width:1;"/><line style="stroke:#181818;stroke-width:1;" x1="122.8792" x2="288.7737" y1="347.2832" y2="347.2832"/><text fill="#000000" font-family="sans-serif" font-size="13" lengthAdjust="spacing" textLength="63.8892" x="129.8792" y="342.541">nextStep()</text></g><g class="message" data-participant-1="UT" data-participant-2="API"><polygon fill="#181818" points="489.4212,372.5938,499.4212,376.5938,489.4212,380.5938,493.4212,376.5938" style="stroke:#181818;stroke-width:1;"/><line style="stroke:#181818;stroke-width:1;" x1="294.7737" x2="495.4212" y1="376.5938" y2="376.5938"/><text fill="#000000" font-family="sans-serif" font-size="13" lengthAdjust="spacing" textLength="182.6475" x="301.7737" y="371.8516">updateTutorialProgress(step)</text></g><g class="message" data-participant-1="API" data-participant-2="TA"><polygon fill="#181818" points="727.2039,401.9043,737.2039,405.9043,727.2039,409.9043,731.2039,405.9043" style="stroke:#181818;stroke-width:1;"/><line style="stroke:#181818;stroke-width:1;" x1="501.4212" x2="733.2039" y1="405.9043" y2="405.9043"/><text fill="#000000" font-family="sans-serif" font-size="13" lengthAdjust="spacing" textLength="213.7827" x="508.4212" y="401.1621">POST /api/tutorial/complete/step</text></g><g class="message" data-participant-1="TA" data-participant-2="API"><polygon fill="#181818" points="512.4212,431.2148,502.4212,435.2148,512.4212,439.2148,508.4212,435.2148" style="stroke:#181818;stroke-width:1;"/><line style="stroke:#181818;stroke-width:1;stroke-dasharray:2,2;" x1="506.4212" x2="738.2039" y1="435.2148" y2="435.2148"/><text fill="#000000" font-family="sans-serif" font-size="13" lengthAdjust="spacing" textLength="90.6826" x="518.4212" y="430.4727">{success: true}</text></g><g class="message" data-participant-1="API" data-participant-2="UT"><polygon fill="#181818" points="305.7737,460.5254,295.7737,464.5254,305.7737,468.5254,301.7737,464.5254" style="stroke:#181818;stroke-width:1;"/><line style="stroke:#181818;stroke-width:1;stroke-dasharray:2,2;" x1="299.7737" x2="500.4212" y1="464.5254" y2="464.5254"/><text fill="#000000" font-family="sans-serif" font-size="13" lengthAdjust="spacing" textLength="71.5833" x="311.7737" y="459.7832">&#50629;&#45936;&#51060;&#53944; &#50756;&#47308;</text></g><g class="message" data-participant-1="UT" data-participant-2="TO"><polygon fill="#181818" points="133.8792,489.8359,123.8792,493.8359,133.8792,497.8359,129.8792,493.8359" style="stroke:#181818;stroke-width:1;"/><line style="stroke:#181818;stroke-width:1;stroke-dasharray:2,2;" x1="127.8792" x2="293.7737" y1="493.8359" y2="493.8359"/><text fill="#000000" font-family="sans-serif" font-size="13" lengthAdjust="spacing" textLength="75.6966" x="139.8792" y="489.0938">&#45796;&#51020; &#45800;&#44228; &#54364;&#49884;</text></g><!--SRC=[XOynIyD068Rt-nNVg639da48JaufzF83ZlGeWTWUTnTHn2qADdKeObL8IqLHXmv2EpZuYxpBV_0kJKgZWbjotyFxlWy9vO1382X7Z70PXH4ZVGauCSyHYVrZocDo2aG0zXj48cWDsMk06rUFHGTnHCsNkNdjmp_3pNiPx25a1q1htvIuK0ppudAkNXPwyWawo_LiZB1lhm5s8KmuDxcRRZs_LSiLgCTStUGem9OpmIxqw0Pgyq6FKo5sTf7jj3sU2ss_Wy4XB79anJci0X7se5K7dLML7KdP7eI38nPJIRlsLvol0wjjF_lAERNLVQfd2r3PszSohLSNuzm8DlLLzgodemtucXQJgot_FZqfbnYNBTc4TOcalto50VzpheKS2pV5HHA69iO5oHFQLDLt5-hwNKzNnV03z4EgdaRRjas9jUOt]--></g></svg>