<svg xmlns="http://www.w3.org/2000/svg" xmlns:xlink="http://www.w3.org/1999/xlink" contentStyleType="text/css" data-diagram-type="DESCRIPTION" height="1067px" preserveAspectRatio="none" style="width:537px;height:1067px;background:#FFFFFF;" version="1.1" viewBox="0 0 537 1067" width="537px" zoomAndPan="magnify"><defs/><g><!--cluster FE--><g class="cluster" data-entity="FE" data-source-line="3" data-uid="ent0003" id="cluster_FE"><rect fill="none" height="964" rx="2.5" ry="2.5" style="stroke:#181818;stroke-width:1;" width="256.11" x="80.37" y="7"/><text fill="#000000" font-family="sans-serif" font-size="14" font-weight="bold" lengthAdjust="spacing" textLength="64.8867" x="175.9816" y="22.5352">Frontend</text></g><!--entity UC_Login--><g class="entity" data-entity="UC_Login" data-source-line="4" data-uid="ent0004" id="entity_UC_Login"><ellipse cx="208.4206" cy="404.0041" fill="#F1F1F1" rx="109.0706" ry="24.2141" style="stroke:#181818;stroke-width:0.5;"/><text fill="#000000" font-family="sans-serif" font-size="14" lengthAdjust="spacing" textLength="195.4668" x="110.6872" y="408.7483">Login/Session Establishment</text></g><!--entity UC_ViewDashboard--><g class="entity" data-entity="UC_ViewDashboard" data-source-line="5" data-uid="ent0005" id="entity_UC_ViewDashboard"><ellipse cx="208.4212" cy="486.0042" fill="#F1F1F1" rx="102.4712" ry="22.8942" style="stroke:#181818;stroke-width:0.5;"/><text fill="#000000" font-family="sans-serif" font-size="14" lengthAdjust="spacing" textLength="181.0566" x="117.8929" y="490.7484">Dashboard Real-time View</text></g><!--entity UC_ChatAI--><g class="entity" data-entity="UC_ChatAI" data-source-line="6" data-uid="ent0006" id="entity_UC_ChatAI"><ellipse cx="208.4171" cy="638.0014" fill="#F1F1F1" rx="112.0571" ry="24.8114" style="stroke:#181818;stroke-width:0.5;"/><text fill="#000000" font-family="sans-serif" font-size="14" lengthAdjust="spacing" textLength="201.9336" x="107.4503" y="642.7456">AI Chatbot Conversation (SSE)</text></g><!--entity UC_ManagePortfolio--><g class="entity" data-entity="UC_ManagePortfolio" data-source-line="7" data-uid="ent0007" id="entity_UC_ManagePortfolio"><ellipse cx="208.4194" cy="715.9999" fill="#F1F1F1" rx="78.6994" ry="18.1399" style="stroke:#181818;stroke-width:0.5;"/><text fill="#000000" font-family="sans-serif" font-size="14" lengthAdjust="spacing" textLength="126.9844" x="144.9272" y="720.744">Portfolio View/Edit</text></g><!--entity UC_Autotrade--><g class="entity" data-entity="UC_Autotrade" data-source-line="8" data-uid="ent0008" id="entity_UC_Autotrade"><ellipse cx="208.4199" cy="858" fill="#F1F1F1" rx="107.2499" ry="23.85" style="stroke:#181818;stroke-width:0.5;"/><text fill="#000000" font-family="sans-serif" font-size="14" lengthAdjust="spacing" textLength="191.5088" x="112.6655" y="862.7441">Auto-trading Strategy Setup</text></g><!--entity UC_Settings--><g class="entity" data-entity="UC_Settings" data-source-line="9" data-uid="ent0009" id="entity_UC_Settings"><ellipse cx="208.4247" cy="783.9969" fill="#F1F1F1" rx="63.7347" ry="15.1469" style="stroke:#181818;stroke-width:0.5;"/><text fill="#000000" font-family="sans-serif" font-size="14" lengthAdjust="spacing" textLength="89.209" x="163.8202" y="788.7411">User Settings</text></g><!--entity UC_Tutorial--><g class="entity" data-entity="UC_Tutorial" data-source-line="10" data-uid="ent0010" id="entity_UC_Tutorial"><ellipse cx="208.4161" cy="936.0012" fill="#F1F1F1" rx="83.4061" ry="19.0812" style="stroke:#181818;stroke-width:0.5;"/><text fill="#000000" font-family="sans-serif" font-size="14" lengthAdjust="spacing" textLength="138.0723" x="139.3799" y="940.7454">Onboarding Tutorial</text></g><!--entity UC_MarketData--><g class="entity" data-entity="UC_MarketData" data-source-line="11" data-uid="ent0011" id="entity_UC_MarketData"><ellipse cx="208.4168" cy="561.0014" fill="#F1F1F1" rx="75.2068" ry="17.4414" style="stroke:#181818;stroke-width:0.5;"/><text fill="#000000" font-family="sans-serif" font-size="14" lengthAdjust="spacing" textLength="118.5693" x="149.1321" y="565.7455">Market Data View</text></g><!--entity UC_OfflineMode--><g class="entity" data-entity="UC_OfflineMode" data-source-line="13" data-uid="ent0012" id="entity_UC_OfflineMode"><ellipse cx="208.4153" cy="319.9973" fill="#F1F1F1" rx="62.0253" ry="25.2573" style="stroke:#181818;stroke-width:0.5;"/><text fill="#000000" font-family="sans-serif" font-size="14" font-style="italic" lengthAdjust="spacing" textLength="69.248" x="173.7913" y="314.9599">&#171;planned&#187;</text><text fill="#000000" font-family="sans-serif" font-size="14" lengthAdjust="spacing" textLength="87.4521" x="164.6893" y="331.4481">Offline Mode</text></g><!--entity UC_PWA--><g class="entity" data-entity="UC_PWA" data-source-line="14" data-uid="ent0013" id="entity_UC_PWA"><ellipse cx="208.4155" cy="234.999" fill="#F1F1F1" rx="74.5755" ry="24.649" style="stroke:#181818;stroke-width:0.5;"/><text fill="#000000" font-family="sans-serif" font-size="14" font-style="italic" lengthAdjust="spacing" textLength="69.248" x="173.7914" y="229.0398">&#171;planned&#187;</text><text fill="#000000" font-family="sans-serif" font-size="14" lengthAdjust="spacing" textLength="109.0264" x="153.9023" y="245.5281">PWA Installation</text></g><!--entity UC_AdvancedAnalytics--><g class="entity" data-entity="UC_AdvancedAnalytics" data-source-line="15" data-uid="ent0014" id="entity_UC_AdvancedAnalytics"><ellipse cx="208.4184" cy="150.9972" fill="#F1F1F1" rx="87.9284" ry="24.3172" style="stroke:#181818;stroke-width:0.5;"/><text fill="#000000" font-family="sans-serif" font-size="14" font-style="italic" lengthAdjust="spacing" textLength="69.248" x="173.7943" y="144.5203">&#171;planned&#187;</text><text fill="#000000" font-family="sans-serif" font-size="14" lengthAdjust="spacing" textLength="131.3799" x="142.7284" y="161.0085">Advanced Analytics</text></g><!--entity UC_SocialTrading--><g class="entity" data-entity="UC_SocialTrading" data-source-line="16" data-uid="ent0015" id="entity_UC_SocialTrading"><ellipse cx="208.4213" cy="66.9998" fill="#F1F1F1" rx="67.0313" ry="24.9598" style="stroke:#181818;stroke-width:0.5;"/><text fill="#000000" font-family="sans-serif" font-size="14" font-style="italic" lengthAdjust="spacing" textLength="69.248" x="173.7972" y="61.5157">&#171;planned&#187;</text><text fill="#000000" font-family="sans-serif" font-size="14" lengthAdjust="spacing" textLength="96.1543" x="160.3441" y="78.004">Social Trading</text></g><!--entity User--><g class="entity" data-entity="User" data-source-line="2" data-uid="ent0002" id="entity_User"><ellipse cx="21.1826" cy="494.26" fill="#F1F1F1" rx="8" ry="8" style="stroke:#181818;stroke-width:0.5;"/><path d="M21.1826,502.26 L21.1826,529.26 M8.1826,510.26 L34.1826,510.26 M21.1826,529.26 L8.1826,544.26 M21.1826,529.26 L34.1826,544.26" fill="none" style="stroke:#181818;stroke-width:0.5;"/><text fill="#000000" font-family="sans-serif" font-size="14" lengthAdjust="spacing" textLength="30.3652" x="6" y="559.2952">User</text></g><!--entity Auth Service--><g class="entity" data-entity="Auth Service" data-source-line="32" data-uid="ent0028" id="entity_Auth Service"><ellipse cx="456.1007" cy="404.0021" fill="#F1F1F1" rx="61.8607" ry="14.7721" style="stroke:#181818;stroke-width:0.5;"/><text fill="#000000" font-family="sans-serif" font-size="14" lengthAdjust="spacing" textLength="84.0342" x="414.0836" y="408.7463">Auth Service</text></g><!--entity Market WS Broker--><g class="entity" data-entity="Market WS Broker" data-source-line="33" data-uid="ent0030" id="entity_Market WS Broker"><ellipse cx="456.098" cy="524.0036" fill="#F1F1F1" rx="75.468" ry="17.4936" style="stroke:#181818;stroke-width:0.5;"/><text fill="#000000" font-family="sans-serif" font-size="14" lengthAdjust="spacing" textLength="119.2051" x="396.4954" y="528.7477">Market WS Broker</text></g><!--entity Chat SSE Gateway--><g class="entity" data-entity="Chat SSE Gateway" data-source-line="34" data-uid="ent0032" id="entity_Chat SSE Gateway"><ellipse cx="456.0955" cy="637.9951" fill="#F1F1F1" rx="75.6255" ry="17.5251" style="stroke:#181818;stroke-width:0.5;"/><text fill="#000000" font-family="sans-serif" font-size="14" lengthAdjust="spacing" textLength="119.5879" x="396.3015" y="642.7392">Chat SSE Gateway</text></g><!--entity Portfolio API--><g class="entity" data-entity="Portfolio API" data-source-line="35" data-uid="ent0034" id="entity_Portfolio API"><ellipse cx="456.0972" cy="750.0014" fill="#F1F1F1" rx="61.7072" ry="14.7414" style="stroke:#181818;stroke-width:0.5;"/><text fill="#000000" font-family="sans-serif" font-size="14" lengthAdjust="spacing" textLength="83.6035" x="414.2954" y="754.7456">Portfolio API</text></g><!--entity Trade Engine API--><g class="entity" data-entity="Trade Engine API" data-source-line="36" data-uid="ent0036" id="entity_Trade Engine API"><ellipse cx="456.0993" cy="857.9999" fill="#F1F1F1" rx="73.6493" ry="17.1299" style="stroke:#181818;stroke-width:0.5;"/><text fill="#000000" font-family="sans-serif" font-size="14" lengthAdjust="spacing" textLength="114.7549" x="398.7218" y="862.744">Trade Engine API</text></g><!--entity Tutorial API--><g class="entity" data-entity="Tutorial API" data-source-line="39" data-uid="ent0040" id="entity_Tutorial API"><ellipse cx="456.1037" cy="935.999" fill="#F1F1F1" rx="58.7137" ry="14.659" style="stroke:#181818;stroke-width:0.5;"/><text fill="#000000" font-family="sans-serif" font-size="14" lengthAdjust="spacing" textLength="78.791" x="416.7082" y="940.7431">Tutorial API</text></g><!--link User to UC_Login--><g class="link" data-entity-1="User" data-entity-2="UC_Login" data-source-line="19" data-uid="lnk16" id="link_User_UC_Login"><path d="M36.81,490.86 C45.2,475.27 57.11,457.6 72.37,446 C87.61,434.4 100.4082,427.8783 118.7582,421.7583" fill="none" id="User-to-UC_Login" style="stroke:#181818;stroke-width:1;"/><polygon fill="#181818" points="124.45,419.86,114.6468,418.9129,119.7068,421.4419,117.1778,426.502,124.45,419.86" style="stroke:#181818;stroke-width:1;"/></g><!--link User to UC_ViewDashboard--><g class="link" data-entity-1="User" data-entity-2="UC_ViewDashboard" data-source-line="20" data-uid="lnk17" id="link_User_UC_ViewDashboard"><path d="M36.72,521.02 C57.27,516.8 90.4226,510.0069 125.9726,502.7069" fill="none" id="User-to-UC_ViewDashboard" style="stroke:#181818;stroke-width:1;"/><polygon fill="#181818" points="131.85,501.5,122.2294,499.3921,126.9522,502.5057,123.8385,507.2286,131.85,501.5" style="stroke:#181818;stroke-width:1;"/></g><!--link User to UC_ChatAI--><g class="link" data-entity-1="User" data-entity-2="UC_ChatAI" data-source-line="21" data-uid="lnk18" id="link_User_UC_ChatAI"><path d="M36.71,553.51 C45.26,568.15 57.36,585.02 72.37,596 C87.52,607.09 99.993,613.3975 118.013,619.4575" fill="none" id="User-to-UC_ChatAI" style="stroke:#181818;stroke-width:1;"/><polygon fill="#181818" points="123.7,621.37,116.4445,614.7099,118.9608,619.7762,113.8944,622.2926,123.7,621.37" style="stroke:#181818;stroke-width:1;"/></g><!--link User to UC_ManagePortfolio--><g class="link" data-entity-1="User" data-entity-2="UC_ManagePortfolio" data-source-line="22" data-uid="lnk19" id="link_User_UC_ManagePortfolio"><path d="M24.41,562.48 C28.52,597.85 40.09,649.33 72.37,680 C88.99,695.8 105.8949,703.4852 127.9849,708.6052" fill="none" id="User-to-UC_ManagePortfolio" style="stroke:#181818;stroke-width:1;"/><polygon fill="#181818" points="133.83,709.96,125.9656,704.0312,128.9591,708.831,124.1592,711.8246,133.83,709.96" style="stroke:#181818;stroke-width:1;"/></g><!--link User to UC_Autotrade--><g class="link" data-entity-1="User" data-entity-2="UC_Autotrade" data-source-line="23" data-uid="lnk20" id="link_User_UC_Autotrade"><path d="M23.86,562.54 C27.72,633.23 39.55,779.8 72.37,817 C84.04,830.23 94.2013,837.1822 110.8613,843.3322" fill="none" id="User-to-UC_Autotrade" style="stroke:#181818;stroke-width:1;"/><polygon fill="#181818" points="116.49,845.41,109.4321,838.5408,111.7994,843.6785,106.6617,846.0457,116.49,845.41" style="stroke:#181818;stroke-width:1;"/></g><!--link User to UC_Settings--><g class="link" data-entity-1="User" data-entity-2="UC_Settings" data-source-line="24" data-uid="lnk21" id="link_User_UC_Settings"><path d="M25.75,562.6 C31.89,620.42 46.35,725.57 72.37,752 C91.13,771.06 113.0676,778.7803 138.6376,782.3503" fill="none" id="User-to-UC_Settings" style="stroke:#181818;stroke-width:1;"/><polygon fill="#181818" points="144.58,783.18,136.2196,777.9739,139.628,782.4886,135.1134,785.8971,144.58,783.18" style="stroke:#181818;stroke-width:1;"/></g><!--link User to UC_Tutorial--><g class="link" data-entity-1="User" data-entity-2="UC_Tutorial" data-source-line="25" data-uid="lnk22" id="link_User_UC_Tutorial"><path d="M22.13,562.56 C22.81,647.98 29.09,849.48 72.37,899 C86.68,915.38 101.6867,923.3449 122.7067,928.7149" fill="none" id="User-to-UC_Tutorial" style="stroke:#181818;stroke-width:1;"/><polygon fill="#181818" points="128.52,930.2,120.7901,924.0968,123.6756,928.9624,118.81,931.8478,128.52,930.2" style="stroke:#181818;stroke-width:1;"/></g><!--link User to UC_MarketData--><g class="link" data-entity-1="User" data-entity-2="UC_MarketData" data-source-line="26" data-uid="lnk23" id="link_User_UC_MarketData"><path d="M36.72,526.9 C60.94,531.74 104.9264,540.5239 144.5464,548.4439" fill="none" id="User-to-UC_MarketData" style="stroke:#181818;stroke-width:1;"/><polygon fill="#181818" points="150.43,549.62,142.3887,543.9334,145.527,548.6399,140.8205,551.7782,150.43,549.62" style="stroke:#181818;stroke-width:1;"/></g><!--link User to UC_OfflineMode--><g class="link" data-entity-1="User" data-entity-2="UC_OfflineMode" data-source-line="27" data-uid="lnk24" id="link_User_UC_OfflineMode"><path d="M24.16,485.43 C28.08,448.91 39.49,394.91 72.37,362 C92.32,342.02 115.7284,332.7548 141.9284,327.2448" fill="none" id="User-to-UC_OfflineMode" style="stroke:#181818;stroke-width:1;"/><polygon fill="#181818" points="147.8,326.01,138.1694,323.9479,142.907,327.039,139.8159,331.7766,147.8,326.01" style="stroke:#181818;stroke-width:1;"/></g><!--link User to UC_PWA--><g class="link" data-entity-1="User" data-entity-2="UC_PWA" data-source-line="28" data-uid="lnk25" id="link_User_UC_PWA"><path d="M25.27,485.47 C30.95,423.9 45.08,307.19 72.37,277 C88.91,258.69 107.4594,249.7364 130.9594,243.8564" fill="none" id="User-to-UC_PWA" style="stroke:#181818;stroke-width:1;"/><polygon fill="#181818" points="136.78,242.4,127.0782,240.7042,131.9295,243.6136,129.0201,248.4649,136.78,242.4" style="stroke:#181818;stroke-width:1;"/></g><!--link User to UC_AdvancedAnalytics--><g class="link" data-entity-1="User" data-entity-2="UC_AdvancedAnalytics" data-source-line="29" data-uid="lnk26" id="link_User_UC_AdvancedAnalytics"><path d="M23.03,485.39 C25.52,407.71 35.19,236.26 72.37,193 C86.37,176.7 100.8354,168.372 121.3654,162.182" fill="none" id="User-to-UC_AdvancedAnalytics" style="stroke:#181818;stroke-width:1;"/><polygon fill="#181818" points="127.11,160.45,117.3385,159.2184,122.3229,161.8934,119.6478,166.8778,127.11,160.45" style="stroke:#181818;stroke-width:1;"/></g><!--link User to UC_SocialTrading--><g class="link" data-entity-1="User" data-entity-2="UC_SocialTrading" data-source-line="30" data-uid="lnk27" id="link_User_UC_SocialTrading"><path d="M21.68,485.28 C21.28,393.38 25.2,165.59 72.37,109 C89.66,88.25 111.1607,78.8254 136.7507,73.3954" fill="none" id="User-to-UC_SocialTrading" style="stroke:#181818;stroke-width:1;"/><polygon fill="#181818" points="142.62,72.15,132.9857,70.1053,137.7289,73.1879,134.6463,77.931,142.62,72.15" style="stroke:#181818;stroke-width:1;"/></g><!--link UC_Login to Auth Service--><g class="link" data-entity-1="UC_Login" data-entity-2="Auth Service" data-source-line="32" data-uid="lnk29" id="link_UC_Login_Auth Service"><path d="M317.9,404 C343.99,404 364.96,404 388.01,404" fill="none" id="UC_Login-to-Auth Service" style="stroke:#181818;stroke-width:1;"/><polygon fill="#181818" points="394.01,404,385.01,400,389.01,404,385.01,408,394.01,404" style="stroke:#181818;stroke-width:1;"/></g><!--link UC_ViewDashboard to Market WS Broker--><g class="link" data-entity-1="UC_ViewDashboard" data-entity-2="Market WS Broker" data-source-line="33" data-uid="lnk31" id="link_UC_ViewDashboard_Market WS Broker"><path d="M293.63,499.02 C325.99,504.03 356.4105,508.7332 386.4205,513.3732" fill="none" id="UC_ViewDashboard-to-Market WS Broker" style="stroke:#181818;stroke-width:1;"/><polygon fill="#181818" points="392.35,514.29,384.0669,508.9618,387.4087,513.526,382.8445,516.8678,392.35,514.29" style="stroke:#181818;stroke-width:1;"/></g><!--link UC_ChatAI to Chat SSE Gateway--><g class="link" data-entity-1="UC_ChatAI" data-entity-2="Chat SSE Gateway" data-source-line="34" data-uid="lnk33" id="link_UC_ChatAI_Chat SSE Gateway"><path d="M320.76,638 C340.82,638 355.29,638 374.02,638" fill="none" id="UC_ChatAI-to-Chat SSE Gateway" style="stroke:#181818;stroke-width:1;"/><polygon fill="#181818" points="380.02,638,371.02,634,375.02,638,371.02,642,380.02,638" style="stroke:#181818;stroke-width:1;"/></g><!--link UC_ManagePortfolio to Portfolio API--><g class="link" data-entity-1="UC_ManagePortfolio" data-entity-2="Portfolio API" data-source-line="35" data-uid="lnk35" id="link_UC_ManagePortfolio_Portfolio API"><path d="M276.88,725.34 C316.23,730.78 359.2267,736.7274 395.8567,741.7974" fill="none" id="UC_ManagePortfolio-to-Portfolio API" style="stroke:#181818;stroke-width:1;"/><polygon fill="#181818" points="401.8,742.62,393.4334,737.4238,396.8472,741.9345,392.3366,745.3483,401.8,742.62" style="stroke:#181818;stroke-width:1;"/></g><!--link UC_Autotrade to Trade Engine API--><g class="link" data-entity-1="UC_Autotrade" data-entity-2="Trade Engine API" data-source-line="36" data-uid="lnk37" id="link_UC_Autotrade_Trade Engine API"><path d="M316.11,858 C338.38,858 355.38,858 376.1,858" fill="none" id="UC_Autotrade-to-Trade Engine API" style="stroke:#181818;stroke-width:1;"/><polygon fill="#181818" points="382.1,858,373.1,854,377.1,858,373.1,862,382.1,858" style="stroke:#181818;stroke-width:1;"/></g><!--link UC_Settings to Portfolio API--><g class="link" data-entity-1="UC_Settings" data-entity-2="Portfolio API" data-source-line="37" data-uid="lnk38" id="link_UC_Settings_Portfolio API"><path d="M264.25,776.41 C305.26,770.74 355.1067,763.8429 395.7667,758.2129" fill="none" id="UC_Settings-to-Portfolio API" style="stroke:#181818;stroke-width:1;"/><polygon fill="#181818" points="401.71,757.39,392.2464,754.6622,396.7573,758.0758,393.3437,762.5866,401.71,757.39" style="stroke:#181818;stroke-width:1;"/></g><!--link UC_MarketData to Market WS Broker--><g class="link" data-entity-1="UC_MarketData" data-entity-2="Market WS Broker" data-source-line="38" data-uid="lnk39" id="link_UC_MarketData_Market WS Broker"><path d="M272.37,551.52 C309.05,546 349.2369,539.9435 385.9569,534.4135" fill="none" id="UC_MarketData-to-Market WS Broker" style="stroke:#181818;stroke-width:1;"/><polygon fill="#181818" points="391.89,533.52,382.3947,530.9049,386.9458,534.2646,383.586,538.8157,391.89,533.52" style="stroke:#181818;stroke-width:1;"/></g><!--link UC_Tutorial to Tutorial API--><g class="link" data-entity-1="UC_Tutorial" data-entity-2="Tutorial API" data-source-line="39" data-uid="lnk41" id="link_UC_Tutorial_Tutorial API"><path d="M292.26,936 C326.67,936 359.77,936 391.04,936" fill="none" id="UC_Tutorial-to-Tutorial API" style="stroke:#181818;stroke-width:1;"/><polygon fill="#181818" points="397.04,936,388.04,932,392.04,936,388.04,940,397.04,936" style="stroke:#181818;stroke-width:1;"/></g><g class="legend" data-source-line="41"><rect fill="#DDDDDD" height="59.4648" rx="7.5" ry="7.5" style="stroke:#000000;stroke-width:1;" width="296.7813" x="214.9397" y="988"/><text fill="#000000" font-family="sans-serif" font-size="14" lengthAdjust="spacing" text-decoration="underline" textLength="65.4746" x="219.9397" y="1006.5352">Solid Line</text><text fill="#000000" font-family="sans-serif" font-size="14" lengthAdjust="spacing" textLength="221.3066" x="285.4143" y="1006.5352">: Current Implementation (As-Is)</text><text fill="#000000" font-family="sans-serif" font-size="14" lengthAdjust="spacing" textLength="243.5371" x="219.9397" y="1023.0234">..Dotted Line..: Future Plans (To-Be)</text><text fill="#000000" font-family="sans-serif" font-size="14" lengthAdjust="spacing" textLength="233.2627" x="219.9397" y="1039.5117">&#171;planned&#187;: Planned Improvements</text></g><!--SRC=[VLHTR-em37tlhx1u6WzbxsX2wlYuGjeqTCksHnHQKwA512Kk4xgw_trEsWBfj3qbFZd7iHqx2dS4PC3AQazGIei5IQCJKP2nyEhG9XuIkb882siqeIv1E5ZCuLy2K3iiX4DudMwUJ2MrFng4tNsEph4hc3iIMoNT_e2Q1h7cJUBdJBZzrWWRt0wkrbyKAYLvGF2idd2w5vGjWu8NRsqDmTJe4redV0fmb-VpOK_sBBIeS6KixOoI9kYlbh_dVbxAVfHPJOQiAB6vZwtKcr9NaFE6i3f3ZbGVUph6Y4ako7mjeKDwn3Mxj5AeG7pH8N_llSE_PM4_a6Q2H10q9WIxArKiUDdjbDJuRDeKMXiyC827XwCIMcCvcSIorNlML8ZNfUPdL2gKzXT9Lfw4Bh3Cj51daaMJUuV21Vx5HMuAJddT5jZB6mHQA9R-Jv9GsJITN9emGg8MYqwQ7egWNdz4PvSkYD3kHIEmUxUUx-xL8lZcRIASYnvVtwzi7CPjqRWatJZwupkEVC-jPq-om67oRUm2fssYznmUhVb06tZjb0M2tmEF5FpXXlyKvq3eprDWNirijGoqwm05mZfivxhoFTXnBiFoWu-RflyvuCiWDVTqLl2HAApyvnM-Ecwv3HTDoHAUE8hDPWpJsbh-eM1vE2hqVrNxZMGkNReX2qQZcI72HZ4QZM5HKsqHLjoCZcypwIDwtarxZiCXRxrNQqx1hqiuZ2QOBm00]--></g></svg>