<svg xmlns="http://www.w3.org/2000/svg" xmlns:xlink="http://www.w3.org/1999/xlink" contentStyleType="text/css" data-diagram-type="DESCRIPTION" height="566px" preserveAspectRatio="none" style="width:465px;height:566px;background:#FFFFFF;" version="1.1" viewBox="0 0 465 566" width="465px" zoomAndPan="magnify"><defs/><g><!--cluster FE--><g class="cluster" data-entity="FE" data-source-line="3" data-uid="ent0003" id="cluster_FE"><rect fill="none" height="553" rx="2.5" ry="2.5" style="stroke:#181818;stroke-width:1;" width="184.21" x="80.37" y="7"/><text fill="#000000" font-family="sans-serif" font-size="14" font-weight="bold" lengthAdjust="spacing" textLength="64.8867" x="140.0316" y="22.5352">Frontend</text></g><!--entity UC_Login--><g class="entity" data-entity="UC_Login" data-source-line="4" data-uid="ent0004" id="entity_UC_Login"><ellipse cx="172.4685" cy="57.0017" fill="#F1F1F1" rx="64.8085" ry="15.3617" style="stroke:#181818;stroke-width:0.5;"/><text fill="#000000" font-family="sans-serif" font-size="14" lengthAdjust="spacing" textLength="92.1118" x="126.4126" y="61.7458">&#47196;&#44536;&#51064;/&#49464;&#49496;&#54869;&#47549;</text></g><!--entity UC_ViewDashboard--><g class="entity" data-entity="UC_ViewDashboard" data-source-line="5" data-uid="ent0005" id="entity_UC_ViewDashboard"><ellipse cx="172.4715" cy="125.0023" fill="#F1F1F1" rx="74.9115" ry="17.3823" style="stroke:#181818;stroke-width:0.5;"/><text fill="#000000" font-family="sans-serif" font-size="14" lengthAdjust="spacing" textLength="117.8494" x="113.5468" y="129.7464">&#45824;&#49884;&#48372;&#46300; &#49892;&#49884;&#44036; &#48372;&#44592;</text></g><!--entity UC_ChatAI--><g class="entity" data-entity="UC_ChatAI" data-source-line="6" data-uid="ent0006" id="entity_UC_ChatAI"><ellipse cx="172.4735" cy="260.0047" fill="#F1F1F1" rx="68.8735" ry="16.1747" style="stroke:#181818;stroke-width:0.5;"/><text fill="#000000" font-family="sans-serif" font-size="14" lengthAdjust="spacing" textLength="102.7652" x="121.0909" y="264.7488">AI &#52311;&#48391; &#45824;&#54868;(SSE)</text></g><!--entity UC_ManagePortfolio--><g class="entity" data-entity="UC_ManagePortfolio" data-source-line="7" data-uid="ent0007" id="entity_UC_ManagePortfolio"><ellipse cx="172.4694" cy="329.0019" fill="#F1F1F1" rx="76.1094" ry="17.6219" style="stroke:#181818;stroke-width:0.5;"/><text fill="#000000" font-family="sans-serif" font-size="14" lengthAdjust="spacing" textLength="120.7615" x="112.0886" y="333.746">&#54252;&#53944;&#54260;&#47532;&#50724; &#51312;&#54924;/&#54200;&#51665;</text></g><!--entity UC_Autotrade--><g class="entity" data-entity="UC_Autotrade" data-source-line="8" data-uid="ent0008" id="entity_UC_Autotrade"><ellipse cx="172.4699" cy="461.998" fill="#F1F1F1" rx="70.0399" ry="16.408" style="stroke:#181818;stroke-width:0.5;"/><text fill="#000000" font-family="sans-serif" font-size="14" lengthAdjust="spacing" textLength="105.7394" x="119.6002" y="466.7421">&#51088;&#46041;&#47588;&#47588; &#51204;&#47029; &#44396;&#49457;</text></g><!--entity UC_Settings--><g class="entity" data-entity="UC_Settings" data-source-line="9" data-uid="ent0009" id="entity_UC_Settings"><ellipse cx="172.4676" cy="395.999" fill="#F1F1F1" rx="48.9476" ry="14.659" style="stroke:#181818;stroke-width:0.5;"/><text fill="#000000" font-family="sans-serif" font-size="14" lengthAdjust="spacing" textLength="64.9797" x="139.9777" y="400.7431">&#49324;&#50857;&#51088; &#49444;&#51221;</text></g><!--entity UC_Tutorial--><g class="entity" data-entity="UC_Tutorial" data-source-line="10" data-uid="ent0010" id="entity_UC_Tutorial"><ellipse cx="172.4713" cy="528.9963" fill="#F1F1F1" rx="63.7313" ry="15.1463" style="stroke:#181818;stroke-width:0.5;"/><text fill="#000000" font-family="sans-serif" font-size="14" lengthAdjust="spacing" textLength="89.1997" x="127.8715" y="533.7404">&#50728;&#48372;&#46377; &#53916;&#53664;&#47532;&#50620;</text></g><!--entity UC_MarketData--><g class="entity" data-entity="UC_MarketData" data-source-line="11" data-uid="ent0011" id="entity_UC_MarketData"><ellipse cx="172.466" cy="192.9952" fill="#F1F1F1" rx="65.376" ry="15.4752" style="stroke:#181818;stroke-width:0.5;"/><text fill="#000000" font-family="sans-serif" font-size="14" lengthAdjust="spacing" textLength="93.6294" x="125.6513" y="197.7393">&#49884;&#51109; &#45936;&#51060;&#53552; &#51312;&#54924;</text></g><!--entity User--><g class="entity" data-entity="User" data-source-line="2" data-uid="ent0002" id="entity_User"><ellipse cx="21.1826" cy="265.26" fill="#F1F1F1" rx="8" ry="8" style="stroke:#181818;stroke-width:0.5;"/><path d="M21.1826,273.26 L21.1826,300.26 M8.1826,281.26 L34.1826,281.26 M21.1826,300.26 L8.1826,315.26 M21.1826,300.26 L34.1826,315.26" fill="none" style="stroke:#181818;stroke-width:0.5;"/><text fill="#000000" font-family="sans-serif" font-size="14" lengthAdjust="spacing" textLength="30.3652" x="6" y="330.2952">User</text></g><!--entity Auth Service--><g class="entity" data-entity="Auth Service" data-source-line="23" data-uid="ent0020" id="entity_Auth Service"><ellipse cx="384.2107" cy="57.0021" fill="#F1F1F1" rx="61.8607" ry="14.7721" style="stroke:#181818;stroke-width:0.5;"/><text fill="#000000" font-family="sans-serif" font-size="14" lengthAdjust="spacing" textLength="84.0342" x="342.1936" y="61.7463">Auth Service</text></g><!--entity Market WS Broker--><g class="entity" data-entity="Market WS Broker" data-source-line="24" data-uid="ent0022" id="entity_Market WS Broker"><ellipse cx="384.208" cy="157.0036" fill="#F1F1F1" rx="75.468" ry="17.4936" style="stroke:#181818;stroke-width:0.5;"/><text fill="#000000" font-family="sans-serif" font-size="14" lengthAdjust="spacing" textLength="119.2051" x="324.6054" y="161.7477">Market WS Broker</text></g><!--entity Chat SSE Gateway--><g class="entity" data-entity="Chat SSE Gateway" data-source-line="25" data-uid="ent0024" id="entity_Chat SSE Gateway"><ellipse cx="384.2055" cy="259.9951" fill="#F1F1F1" rx="75.6255" ry="17.5251" style="stroke:#181818;stroke-width:0.5;"/><text fill="#000000" font-family="sans-serif" font-size="14" lengthAdjust="spacing" textLength="119.5879" x="324.4115" y="264.7392">Chat SSE Gateway</text></g><!--entity Portfolio API--><g class="entity" data-entity="Portfolio API" data-source-line="26" data-uid="ent0026" id="entity_Portfolio API"><ellipse cx="384.2072" cy="362.0014" fill="#F1F1F1" rx="61.7072" ry="14.7414" style="stroke:#181818;stroke-width:0.5;"/><text fill="#000000" font-family="sans-serif" font-size="14" lengthAdjust="spacing" textLength="83.6035" x="342.4054" y="366.7456">Portfolio API</text></g><!--entity Trade Engine API--><g class="entity" data-entity="Trade Engine API" data-source-line="27" data-uid="ent0028" id="entity_Trade Engine API"><ellipse cx="384.2093" cy="461.9999" fill="#F1F1F1" rx="73.6493" ry="17.1299" style="stroke:#181818;stroke-width:0.5;"/><text fill="#000000" font-family="sans-serif" font-size="14" lengthAdjust="spacing" textLength="114.7549" x="326.8318" y="466.744">Trade Engine API</text></g><!--entity Tutorial API--><g class="entity" data-entity="Tutorial API" data-source-line="30" data-uid="ent0032" id="entity_Tutorial API"><ellipse cx="384.2137" cy="528.999" fill="#F1F1F1" rx="58.7137" ry="14.659" style="stroke:#181818;stroke-width:0.5;"/><text fill="#000000" font-family="sans-serif" font-size="14" lengthAdjust="spacing" textLength="78.791" x="344.8182" y="533.7431">Tutorial API</text></g><!--link User to UC_Login--><g class="link" data-entity-1="User" data-entity-2="UC_Login" data-source-line="14" data-uid="lnk12" id="link_User_UC_Login"><path d="M27.1,256.62 C34.55,204.23 50.2,114.05 72.37,90 C83.86,77.53 94.4336,71.4961 110.5136,66.6661" fill="none" id="User-to-UC_Login" style="stroke:#181818;stroke-width:1;"/><polygon fill="#181818" points="116.26,64.94,106.4897,63.6982,111.4714,66.3784,108.7912,71.36,116.26,64.94" style="stroke:#181818;stroke-width:1;"/></g><!--link User to UC_ViewDashboard--><g class="link" data-entity-1="User" data-entity-2="UC_ViewDashboard" data-source-line="15" data-uid="lnk13" id="link_User_UC_ViewDashboard"><path d="M27.48,256.44 C33.5,226.46 46.16,185.78 72.37,160 C83.68,148.87 93.0822,143.2288 108.0522,138.0288" fill="none" id="User-to-UC_ViewDashboard" style="stroke:#181818;stroke-width:1;"/><polygon fill="#181818" points="113.72,136.06,103.9058,135.2346,108.9968,137.7006,106.5308,142.7917,113.72,136.06" style="stroke:#181818;stroke-width:1;"/></g><!--link User to UC_ChatAI--><g class="link" data-entity-1="User" data-entity-2="UC_ChatAI" data-source-line="16" data-uid="lnk14" id="link_User_UC_ChatAI"><path d="M36.77,291.58 C56.51,286.95 86.8484,279.8396 116.7484,272.8296" fill="none" id="User-to-UC_ChatAI" style="stroke:#181818;stroke-width:1;"/><polygon fill="#181818" points="122.59,271.46,112.9146,269.6199,117.722,272.6013,114.7406,277.4087,122.59,271.46" style="stroke:#181818;stroke-width:1;"/></g><!--link User to UC_ManagePortfolio--><g class="link" data-entity-1="User" data-entity-2="UC_ManagePortfolio" data-source-line="17" data-uid="lnk15" id="link_User_UC_ManagePortfolio"><path d="M36.77,298.32 C55.26,302.53 82.3298,308.6975 110.9998,315.2275" fill="none" id="User-to-UC_ManagePortfolio" style="stroke:#181818;stroke-width:1;"/><polygon fill="#181818" points="116.85,316.56,108.963,310.6612,111.9749,315.4496,107.1864,318.4614,116.85,316.56" style="stroke:#181818;stroke-width:1;"/></g><!--link User to UC_Autotrade--><g class="link" data-entity-1="User" data-entity-2="UC_Autotrade" data-source-line="18" data-uid="lnk16" id="link_User_UC_Autotrade"><path d="M27.69,333.67 C33.82,363.18 46.5,402.91 72.37,428 C84.18,439.46 94.3234,445.2167 109.8734,450.2667" fill="none" id="User-to-UC_Autotrade" style="stroke:#181818;stroke-width:1;"/><polygon fill="#181818" points="115.58,452.12,108.2556,445.5357,110.8245,450.5756,105.7846,453.1445,115.58,452.12" style="stroke:#181818;stroke-width:1;"/></g><!--link User to UC_Settings--><g class="link" data-entity-1="User" data-entity-2="UC_Settings" data-source-line="19" data-uid="lnk17" id="link_User_UC_Settings"><path d="M36.8,322.86 C45.45,336.96 57.61,353.31 72.37,364 C89.2,376.2 105.0948,382.4222 123.9048,387.2022" fill="none" id="User-to-UC_Settings" style="stroke:#181818;stroke-width:1;"/><polygon fill="#181818" points="129.72,388.68,121.9824,382.5866,124.874,387.4485,120.0121,390.3402,129.72,388.68" style="stroke:#181818;stroke-width:1;"/></g><!--link User to UC_Tutorial--><g class="link" data-entity-1="User" data-entity-2="UC_Tutorial" data-source-line="20" data-uid="lnk18" id="link_User_UC_Tutorial"><path d="M21.32,333.41 C22.42,378.09 31.07,451.4 72.37,496 C84.07,508.64 94.9854,514.7415 111.3154,519.5615" fill="none" id="User-to-UC_Tutorial" style="stroke:#181818;stroke-width:1;"/><polygon fill="#181818" points="117.07,521.26,109.5705,514.8758,112.2745,519.8446,107.3058,522.5486,117.07,521.26" style="stroke:#181818;stroke-width:1;"/></g><!--link User to UC_MarketData--><g class="link" data-entity-1="User" data-entity-2="UC_MarketData" data-source-line="21" data-uid="lnk19" id="link_User_UC_MarketData"><path d="M36.84,267.19 C45.5,253.11 57.66,236.76 72.37,226 C86.85,215.4 99.2113,209.7784 115.9713,204.7684" fill="none" id="User-to-UC_MarketData" style="stroke:#181818;stroke-width:1;"/><polygon fill="#181818" points="121.72,203.05,111.9514,201.7952,116.9295,204.482,114.2426,209.4601,121.72,203.05" style="stroke:#181818;stroke-width:1;"/></g><!--link UC_Login to Auth Service--><g class="link" data-entity-1="UC_Login" data-entity-2="Auth Service" data-source-line="23" data-uid="lnk21" id="link_UC_Login_Auth Service"><path d="M237.54,57 C264.41,57 289.5,57 316.05,57" fill="none" id="UC_Login-to-Auth Service" style="stroke:#181818;stroke-width:1;"/><polygon fill="#181818" points="322.05,57,313.05,53,317.05,57,313.05,61,322.05,57" style="stroke:#181818;stroke-width:1;"/></g><!--link UC_ViewDashboard to Market WS Broker--><g class="link" data-entity-1="UC_ViewDashboard" data-entity-2="Market WS Broker" data-source-line="24" data-uid="lnk23" id="link_UC_ViewDashboard_Market WS Broker"><path d="M236.12,134.56 C262.67,138.61 287.6387,142.4144 314.2287,146.4744" fill="none" id="UC_ViewDashboard-to-Market WS Broker" style="stroke:#181818;stroke-width:1;"/><polygon fill="#181818" points="320.16,147.38,311.8669,142.0674,315.2173,146.6253,310.6594,149.9757,320.16,147.38" style="stroke:#181818;stroke-width:1;"/></g><!--link UC_ChatAI to Chat SSE Gateway--><g class="link" data-entity-1="UC_ChatAI" data-entity-2="Chat SSE Gateway" data-source-line="25" data-uid="lnk25" id="link_UC_ChatAI_Chat SSE Gateway"><path d="M241.57,260 C262.86,260 280.47,260 302.21,260" fill="none" id="UC_ChatAI-to-Chat SSE Gateway" style="stroke:#181818;stroke-width:1;"/><polygon fill="#181818" points="308.21,260,299.21,256,303.21,260,299.21,264,308.21,260" style="stroke:#181818;stroke-width:1;"/></g><!--link UC_ManagePortfolio to Portfolio API--><g class="link" data-entity-1="UC_ManagePortfolio" data-entity-2="Portfolio API" data-source-line="26" data-uid="lnk27" id="link_UC_ManagePortfolio_Portfolio API"><path d="M236.4,338.9 C266.81,343.69 296.9228,348.4285 325.6828,352.9485" fill="none" id="UC_ManagePortfolio-to-Portfolio API" style="stroke:#181818;stroke-width:1;"/><polygon fill="#181818" points="331.61,353.88,323.3402,348.5312,326.6706,353.1037,322.0981,356.4342,331.61,353.88" style="stroke:#181818;stroke-width:1;"/></g><!--link UC_Autotrade to Trade Engine API--><g class="link" data-entity-1="UC_Autotrade" data-entity-2="Trade Engine API" data-source-line="27" data-uid="lnk29" id="link_UC_Autotrade_Trade Engine API"><path d="M242.73,462 C264.33,462 282.21,462 304.06,462" fill="none" id="UC_Autotrade-to-Trade Engine API" style="stroke:#181818;stroke-width:1;"/><polygon fill="#181818" points="310.06,462,301.06,458,305.06,462,301.06,466,310.06,462" style="stroke:#181818;stroke-width:1;"/></g><!--link UC_Settings to Portfolio API--><g class="link" data-entity-1="UC_Settings" data-entity-2="Portfolio API" data-source-line="28" data-uid="lnk30" id="link_UC_Settings_Portfolio API"><path d="M216.17,389.08 C249.71,383.64 290.5973,377.0099 326.1373,371.2499" fill="none" id="UC_Settings-to-Portfolio API" style="stroke:#181818;stroke-width:1;"/><polygon fill="#181818" points="332.06,370.29,322.536,367.7814,327.1244,371.0899,323.8159,375.6783,332.06,370.29" style="stroke:#181818;stroke-width:1;"/></g><!--link UC_MarketData to Market WS Broker--><g class="link" data-entity-1="UC_MarketData" data-entity-2="Market WS Broker" data-source-line="29" data-uid="lnk31" id="link_UC_MarketData_Market WS Broker"><path d="M226.4,183.92 C255.65,178.9 286.1865,173.6554 316.5865,168.4354" fill="none" id="UC_MarketData-to-Market WS Broker" style="stroke:#181818;stroke-width:1;"/><polygon fill="#181818" points="322.5,167.42,312.9529,165.0008,317.5721,168.2662,314.3068,172.8854,322.5,167.42" style="stroke:#181818;stroke-width:1;"/></g><!--link UC_Tutorial to Tutorial API--><g class="link" data-entity-1="UC_Tutorial" data-entity-2="Tutorial API" data-source-line="30" data-uid="lnk33" id="link_UC_Tutorial_Tutorial API"><path d="M236.69,529 C264.79,529 291.66,529 319.14,529" fill="none" id="UC_Tutorial-to-Tutorial API" style="stroke:#181818;stroke-width:1;"/><polygon fill="#181818" points="325.14,529,316.14,525,320.14,529,316.14,533,325.14,529" style="stroke:#181818;stroke-width:1;"/></g><!--SRC=[TL9TIzn057tFhxZiapw8_w2mrRK85eHe-rYcksDsSCd0PAoK8fIIjk3QRalzs9MuhB3L2liGwKhpqFwXdJl_mSd4n2OY139pxZbtxiVfq2q9aeDWNbj2YmdQb8px3cbABc0peC998U9x7GehWlkI-YqW0Qmqu9q3i1FG9WaeR2wzMkCUyzDGJPr7ipy9dYMB62RuiQy7H-hYNwrCVy7exZ89sgyv4QrCTl0Ukv7wFLK_8i3ks5ncSGW6c2LnHRtK9hA-QcNcXzSdQlePJ08zE9nptSPyXVwS-CIZwrp8BTvXtEfqRwBt4zsRgei9ziU0vx4-FLZKNnEy_5xHrtSabuAqg5NYy9lg3TJbs7o0er0DRs1sCy7mkY9pgPJCzu9CzM62frT62nYESNHKuMwO9mGZdOpR_vNEuV0Az7waFutI4e__FcXAR5EvJ2J9DDq8Xpz1VOdnRAh3-AwXchFdEEaYOM7XIR6d4b9QHIcIZRa4LKPPYXLZAg7v54fWtcubTzwHAJbtL1gRCvdRu5BnXZNflFF0FfQJgU6b2qy5twR2ykwCOWdf6Omxu1cHT9UyjOIgDIpp_bfVNxMqUmTOmeOzDdnJ82qunReVoV7VmXulkF11zav-ItFS0W00]--></g></svg>