<svg xmlns="http://www.w3.org/2000/svg" xmlns:xlink="http://www.w3.org/1999/xlink" contentStyleType="text/css" data-diagram-type="DESCRIPTION" height="1000px" preserveAspectRatio="none" style="width:465px;height:1000px;background:#FFFFFF;" version="1.1" viewBox="0 0 465 1000" width="465px" zoomAndPan="magnify"><defs/><g><!--cluster FE--><g class="cluster" data-entity="FE" data-source-line="3" data-uid="ent0003" id="cluster_FE"><rect fill="none" height="897" rx="2.5" ry="2.5" style="stroke:#181818;stroke-width:1;" width="184.21" x="80.37" y="7"/><text fill="#000000" font-family="sans-serif" font-size="14" font-weight="bold" lengthAdjust="spacing" textLength="64.8867" x="140.0316" y="22.5352">Frontend</text></g><!--entity UC_Login--><g class="entity" data-entity="UC_Login" data-source-line="4" data-uid="ent0004" id="entity_UC_Login"><ellipse cx="172.4685" cy="401.0017" fill="#F1F1F1" rx="64.8085" ry="15.3617" style="stroke:#181818;stroke-width:0.5;"/><text fill="#000000" font-family="sans-serif" font-size="14" lengthAdjust="spacing" textLength="92.1118" x="126.4126" y="405.7458">&#47196;&#44536;&#51064;/&#49464;&#49496;&#54869;&#47549;</text></g><!--entity UC_ViewDashboard--><g class="entity" data-entity="UC_ViewDashboard" data-source-line="5" data-uid="ent0005" id="entity_UC_ViewDashboard"><ellipse cx="172.4715" cy="469.0023" fill="#F1F1F1" rx="74.9115" ry="17.3823" style="stroke:#181818;stroke-width:0.5;"/><text fill="#000000" font-family="sans-serif" font-size="14" lengthAdjust="spacing" textLength="117.8494" x="113.5468" y="473.7464">&#45824;&#49884;&#48372;&#46300; &#49892;&#49884;&#44036; &#48372;&#44592;</text></g><!--entity UC_ChatAI--><g class="entity" data-entity="UC_ChatAI" data-source-line="6" data-uid="ent0006" id="entity_UC_ChatAI"><ellipse cx="172.4735" cy="604.0047" fill="#F1F1F1" rx="68.8735" ry="16.1747" style="stroke:#181818;stroke-width:0.5;"/><text fill="#000000" font-family="sans-serif" font-size="14" lengthAdjust="spacing" textLength="102.7652" x="121.0909" y="608.7488">AI &#52311;&#48391; &#45824;&#54868;(SSE)</text></g><!--entity UC_ManagePortfolio--><g class="entity" data-entity="UC_ManagePortfolio" data-source-line="7" data-uid="ent0007" id="entity_UC_ManagePortfolio"><ellipse cx="172.4694" cy="673.0019" fill="#F1F1F1" rx="76.1094" ry="17.6219" style="stroke:#181818;stroke-width:0.5;"/><text fill="#000000" font-family="sans-serif" font-size="14" lengthAdjust="spacing" textLength="120.7615" x="112.0886" y="677.746">&#54252;&#53944;&#54260;&#47532;&#50724; &#51312;&#54924;/&#54200;&#51665;</text></g><!--entity UC_Autotrade--><g class="entity" data-entity="UC_Autotrade" data-source-line="8" data-uid="ent0008" id="entity_UC_Autotrade"><ellipse cx="172.4699" cy="805.998" fill="#F1F1F1" rx="70.0399" ry="16.408" style="stroke:#181818;stroke-width:0.5;"/><text fill="#000000" font-family="sans-serif" font-size="14" lengthAdjust="spacing" textLength="105.7394" x="119.6002" y="810.7421">&#51088;&#46041;&#47588;&#47588; &#51204;&#47029; &#44396;&#49457;</text></g><!--entity UC_Settings--><g class="entity" data-entity="UC_Settings" data-source-line="9" data-uid="ent0009" id="entity_UC_Settings"><ellipse cx="172.4676" cy="739.999" fill="#F1F1F1" rx="48.9476" ry="14.659" style="stroke:#181818;stroke-width:0.5;"/><text fill="#000000" font-family="sans-serif" font-size="14" lengthAdjust="spacing" textLength="64.9797" x="139.9777" y="744.7431">&#49324;&#50857;&#51088; &#49444;&#51221;</text></g><!--entity UC_Tutorial--><g class="entity" data-entity="UC_Tutorial" data-source-line="10" data-uid="ent0010" id="entity_UC_Tutorial"><ellipse cx="172.4713" cy="872.9963" fill="#F1F1F1" rx="63.7313" ry="15.1463" style="stroke:#181818;stroke-width:0.5;"/><text fill="#000000" font-family="sans-serif" font-size="14" lengthAdjust="spacing" textLength="89.1997" x="127.8715" y="877.7404">&#50728;&#48372;&#46377; &#53916;&#53664;&#47532;&#50620;</text></g><!--entity UC_MarketData--><g class="entity" data-entity="UC_MarketData" data-source-line="11" data-uid="ent0011" id="entity_UC_MarketData"><ellipse cx="172.466" cy="536.9952" fill="#F1F1F1" rx="65.376" ry="15.4752" style="stroke:#181818;stroke-width:0.5;"/><text fill="#000000" font-family="sans-serif" font-size="14" lengthAdjust="spacing" textLength="93.6294" x="125.6513" y="541.7393">&#49884;&#51109; &#45936;&#51060;&#53552; &#51312;&#54924;</text></g><!--entity UC_OfflineMode--><g class="entity" data-entity="UC_OfflineMode" data-source-line="13" data-uid="ent0012" id="entity_UC_OfflineMode"><ellipse cx="172.4712" cy="325.0021" fill="#F1F1F1" rx="56.2112" ry="25.7621" style="stroke:#181818;stroke-width:0.5;"/><text fill="#000000" font-family="sans-serif" font-size="14" font-style="italic" lengthAdjust="spacing" textLength="69.248" x="137.8472" y="320.7061">&#171;planned&#187;</text><text fill="#000000" font-family="sans-serif" font-size="14" lengthAdjust="spacing" textLength="77.0897" x="133.9264" y="337.1944">&#50724;&#54532;&#46972;&#51064; &#47784;&#46300;</text></g><!--entity UC_PWA--><g class="entity" data-entity="UC_PWA" data-source-line="14" data-uid="ent0013" id="entity_UC_PWA"><ellipse cx="172.4725" cy="238.9959" fill="#F1F1F1" rx="50.9125" ry="25.1759" style="stroke:#181818;stroke-width:0.5;"/><text fill="#000000" font-family="sans-serif" font-size="14" font-style="italic" lengthAdjust="spacing" textLength="69.248" x="137.8485" y="236.6559">&#171;planned&#187;</text><text fill="#000000" font-family="sans-serif" font-size="14" lengthAdjust="spacing" textLength="58.0237" x="143.4606" y="253.1442">PWA &#49444;&#52824;</text></g><!--entity UC_AdvancedAnalytics--><g class="entity" data-entity="UC_AdvancedAnalytics" data-source-line="15" data-uid="ent0014" id="entity_UC_AdvancedAnalytics"><ellipse cx="172.475" cy="153.9977" fill="#F1F1F1" rx="50.225" ry="24.8577" style="stroke:#181818;stroke-width:0.5;"/><text fill="#000000" font-family="sans-serif" font-size="14" font-style="italic" lengthAdjust="spacing" textLength="69.248" x="137.8509" y="152.1218">&#171;planned&#187;</text><text fill="#000000" font-family="sans-serif" font-size="14" lengthAdjust="spacing" textLength="52.8697" x="146.0401" y="168.6101">&#44256;&#44553; &#48516;&#49437;</text></g><!--entity UC_SocialTrading--><g class="entity" data-entity="UC_SocialTrading" data-source-line="16" data-uid="ent0015" id="entity_UC_SocialTrading"><ellipse cx="172.4712" cy="68.0021" fill="#F1F1F1" rx="56.2112" ry="25.7621" style="stroke:#181818;stroke-width:0.5;"/><text fill="#000000" font-family="sans-serif" font-size="14" font-style="italic" lengthAdjust="spacing" textLength="69.248" x="137.8472" y="63.7061">&#171;planned&#187;</text><text fill="#000000" font-family="sans-serif" font-size="14" lengthAdjust="spacing" textLength="77.0897" x="133.9264" y="80.1944">&#49548;&#49500; &#53944;&#47112;&#51060;&#46377;</text></g><!--entity User--><g class="entity" data-entity="User" data-source-line="2" data-uid="ent0002" id="entity_User"><ellipse cx="21.1826" cy="473.26" fill="#F1F1F1" rx="8" ry="8" style="stroke:#181818;stroke-width:0.5;"/><path d="M21.1826,481.26 L21.1826,508.26 M8.1826,489.26 L34.1826,489.26 M21.1826,508.26 L8.1826,523.26 M21.1826,508.26 L34.1826,523.26" fill="none" style="stroke:#181818;stroke-width:0.5;"/><text fill="#000000" font-family="sans-serif" font-size="14" lengthAdjust="spacing" textLength="30.3652" x="6" y="538.2952">User</text></g><!--entity Auth Service--><g class="entity" data-entity="Auth Service" data-source-line="32" data-uid="ent0028" id="entity_Auth Service"><ellipse cx="384.2107" cy="401.0021" fill="#F1F1F1" rx="61.8607" ry="14.7721" style="stroke:#181818;stroke-width:0.5;"/><text fill="#000000" font-family="sans-serif" font-size="14" lengthAdjust="spacing" textLength="84.0342" x="342.1936" y="405.7463">Auth Service</text></g><!--entity Market WS Broker--><g class="entity" data-entity="Market WS Broker" data-source-line="33" data-uid="ent0030" id="entity_Market WS Broker"><ellipse cx="384.208" cy="501.0036" fill="#F1F1F1" rx="75.468" ry="17.4936" style="stroke:#181818;stroke-width:0.5;"/><text fill="#000000" font-family="sans-serif" font-size="14" lengthAdjust="spacing" textLength="119.2051" x="324.6054" y="505.7477">Market WS Broker</text></g><!--entity Chat SSE Gateway--><g class="entity" data-entity="Chat SSE Gateway" data-source-line="34" data-uid="ent0032" id="entity_Chat SSE Gateway"><ellipse cx="384.2055" cy="603.9951" fill="#F1F1F1" rx="75.6255" ry="17.5251" style="stroke:#181818;stroke-width:0.5;"/><text fill="#000000" font-family="sans-serif" font-size="14" lengthAdjust="spacing" textLength="119.5879" x="324.4115" y="608.7392">Chat SSE Gateway</text></g><!--entity Portfolio API--><g class="entity" data-entity="Portfolio API" data-source-line="35" data-uid="ent0034" id="entity_Portfolio API"><ellipse cx="384.2072" cy="706.0014" fill="#F1F1F1" rx="61.7072" ry="14.7414" style="stroke:#181818;stroke-width:0.5;"/><text fill="#000000" font-family="sans-serif" font-size="14" lengthAdjust="spacing" textLength="83.6035" x="342.4054" y="710.7456">Portfolio API</text></g><!--entity Trade Engine API--><g class="entity" data-entity="Trade Engine API" data-source-line="36" data-uid="ent0036" id="entity_Trade Engine API"><ellipse cx="384.2093" cy="805.9999" fill="#F1F1F1" rx="73.6493" ry="17.1299" style="stroke:#181818;stroke-width:0.5;"/><text fill="#000000" font-family="sans-serif" font-size="14" lengthAdjust="spacing" textLength="114.7549" x="326.8318" y="810.744">Trade Engine API</text></g><!--entity Tutorial API--><g class="entity" data-entity="Tutorial API" data-source-line="39" data-uid="ent0040" id="entity_Tutorial API"><ellipse cx="384.2137" cy="872.999" fill="#F1F1F1" rx="58.7137" ry="14.659" style="stroke:#181818;stroke-width:0.5;"/><text fill="#000000" font-family="sans-serif" font-size="14" lengthAdjust="spacing" textLength="78.791" x="344.8182" y="877.7431">Tutorial API</text></g><!--link User to UC_Login--><g class="link" data-entity-1="User" data-entity-2="UC_Login" data-source-line="19" data-uid="lnk16" id="link_User_UC_Login"><path d="M36.84,475.19 C45.5,461.11 57.66,444.76 72.37,434 C86.93,423.34 99.3903,417.705 116.2203,412.685" fill="none" id="User-to-UC_Login" style="stroke:#181818;stroke-width:1;"/><polygon fill="#181818" points="121.97,410.97,112.2022,409.7094,117.1786,412.3992,114.4888,417.3756,121.97,410.97" style="stroke:#181818;stroke-width:1;"/></g><!--link User to UC_ViewDashboard--><g class="link" data-entity-1="User" data-entity-2="UC_ViewDashboard" data-source-line="20" data-uid="lnk17" id="link_User_UC_ViewDashboard"><path d="M36.77,499.68 C55.48,495.42 83.1197,489.122 112.0197,482.542" fill="none" id="User-to-UC_ViewDashboard" style="stroke:#181818;stroke-width:1;"/><polygon fill="#181818" points="117.87,481.21,108.2066,479.3078,112.9948,482.32,109.9826,487.1082,117.87,481.21" style="stroke:#181818;stroke-width:1;"/></g><!--link User to UC_ChatAI--><g class="link" data-entity-1="User" data-entity-2="UC_ChatAI" data-source-line="21" data-uid="lnk18" id="link_User_UC_ChatAI"><path d="M36.83,529.61 C45.57,543.34 57.8,559.39 72.37,570 C86.63,580.38 98.5967,585.9789 115.0567,591.1589" fill="none" id="User-to-UC_ChatAI" style="stroke:#181818;stroke-width:1;"/><polygon fill="#181818" points="120.78,592.96,113.3958,586.4428,116.0106,591.4591,110.9943,594.0738,120.78,592.96" style="stroke:#181818;stroke-width:1;"/></g><!--link User to UC_ManagePortfolio--><g class="link" data-entity-1="User" data-entity-2="UC_ManagePortfolio" data-source-line="22" data-uid="lnk19" id="link_User_UC_ManagePortfolio"><path d="M27.48,541.56 C33.5,571.54 46.16,612.22 72.37,638 C83.49,648.94 92.5806,654.4871 107.2906,659.6671" fill="none" id="User-to-UC_ManagePortfolio" style="stroke:#181818;stroke-width:1;"/><polygon fill="#181818" points="112.95,661.66,105.7896,654.8977,108.2339,659.9993,103.1324,662.4436,112.95,661.66" style="stroke:#181818;stroke-width:1;"/></g><!--link User to UC_Autotrade--><g class="link" data-entity-1="User" data-entity-2="UC_Autotrade" data-source-line="23" data-uid="lnk20" id="link_User_UC_Autotrade"><path d="M24.67,541.65 C29.65,607.59 43.02,738.02 72.37,772 C82.83,784.11 92.1142,790.0339 107.2742,795.0539" fill="none" id="User-to-UC_Autotrade" style="stroke:#181818;stroke-width:1;"/><polygon fill="#181818" points="112.97,796.94,105.6836,790.3136,108.2235,795.3683,103.1688,797.9081,112.97,796.94" style="stroke:#181818;stroke-width:1;"/></g><!--link User to UC_Settings--><g class="link" data-entity-1="User" data-entity-2="UC_Settings" data-source-line="24" data-uid="lnk21" id="link_User_UC_Settings"><path d="M27.07,541.4 C34.48,593.84 50.09,684.06 72.37,708 C86.16,722.83 100.9979,729.4862 119.9179,733.7662" fill="none" id="User-to-UC_Settings" style="stroke:#181818;stroke-width:1;"/><polygon fill="#181818" points="125.77,735.09,117.8744,729.2028,120.8932,733.9868,116.1092,737.0057,125.77,735.09" style="stroke:#181818;stroke-width:1;"/></g><!--link User to UC_Tutorial--><g class="link" data-entity-1="User" data-entity-2="UC_Tutorial" data-source-line="25" data-uid="lnk22" id="link_User_UC_Tutorial"><path d="M22.99,541.64 C25.4,620.32 34.94,795.44 72.37,840 C83.33,853.05 93.846,859.2697 110.056,864.0597" fill="none" id="User-to-UC_Tutorial" style="stroke:#181818;stroke-width:1;"/><polygon fill="#181818" points="115.81,865.76,108.3125,859.3735,111.015,864.3431,106.0454,867.0456,115.81,865.76" style="stroke:#181818;stroke-width:1;"/></g><!--link User to UC_MarketData--><g class="link" data-entity-1="User" data-entity-2="UC_MarketData" data-source-line="26" data-uid="lnk23" id="link_User_UC_MarketData"><path d="M36.77,506.32 C56.87,510.9 88.1898,518.0277 118.3998,524.9077" fill="none" id="User-to-UC_MarketData" style="stroke:#181818;stroke-width:1;"/><polygon fill="#181818" points="124.25,526.24,116.3629,520.3414,119.3748,525.1297,114.5865,528.1417,124.25,526.24" style="stroke:#181818;stroke-width:1;"/></g><!--link User to UC_OfflineMode--><g class="link" data-entity-1="User" data-entity-2="UC_OfflineMode" data-source-line="27" data-uid="lnk24" id="link_User_UC_OfflineMode"><path d="M28.11,464.32 C34.46,434.68 47.25,394.49 72.37,368 C85.85,353.78 99.2152,346.0883 116.9652,339.4983" fill="none" id="User-to-UC_OfflineMode" style="stroke:#181818;stroke-width:1;"/><polygon fill="#181818" points="122.59,337.41,112.7605,336.7926,117.9026,339.1503,115.5449,344.2924,122.59,337.41" style="stroke:#181818;stroke-width:1;"/></g><!--link User to UC_PWA--><g class="link" data-entity-1="User" data-entity-2="UC_PWA" data-source-line="28" data-uid="lnk25" id="link_User_UC_PWA"><path d="M26.73,464.27 C33.96,408.54 49.64,309.41 72.37,282 C85.78,265.83 100.736,257.5016 119.726,251.0816" fill="none" id="User-to-UC_PWA" style="stroke:#181818;stroke-width:1;"/><polygon fill="#181818" points="125.41,249.16,115.603,248.2531,120.6734,250.7613,118.1651,255.8317,125.41,249.16" style="stroke:#181818;stroke-width:1;"/></g><!--link User to UC_AdvancedAnalytics--><g class="link" data-entity-1="User" data-entity-2="UC_AdvancedAnalytics" data-source-line="29" data-uid="lnk26" id="link_User_UC_AdvancedAnalytics"><path d="M23.92,464.39 C27.93,391.46 40.08,237.08 72.37,196 C85.41,179.4 100.5348,171.0967 119.7448,164.9567" fill="none" id="User-to-UC_AdvancedAnalytics" style="stroke:#181818;stroke-width:1;"/><polygon fill="#181818" points="125.46,163.13,115.6694,162.06,120.6974,164.6523,118.1051,169.6802,125.46,163.13" style="stroke:#181818;stroke-width:1;"/></g><!--link User to UC_SocialTrading--><g class="link" data-entity-1="User" data-entity-2="UC_SocialTrading" data-source-line="30" data-uid="lnk27" id="link_User_UC_SocialTrading"><path d="M22.44,464.58 C23.75,377.26 31.22,167.22 72.37,112 C84.23,96.07 97.5086,87.8432 115.6486,81.2732" fill="none" id="User-to-UC_SocialTrading" style="stroke:#181818;stroke-width:1;"/><polygon fill="#181818" points="121.29,79.23,111.4658,78.5339,116.5888,80.9327,114.1901,86.0557,121.29,79.23" style="stroke:#181818;stroke-width:1;"/></g><!--link UC_Login to Auth Service--><g class="link" data-entity-1="UC_Login" data-entity-2="Auth Service" data-source-line="32" data-uid="lnk29" id="link_UC_Login_Auth Service"><path d="M237.54,401 C264.41,401 289.5,401 316.05,401" fill="none" id="UC_Login-to-Auth Service" style="stroke:#181818;stroke-width:1;"/><polygon fill="#181818" points="322.05,401,313.05,397,317.05,401,313.05,405,322.05,401" style="stroke:#181818;stroke-width:1;"/></g><!--link UC_ViewDashboard to Market WS Broker--><g class="link" data-entity-1="UC_ViewDashboard" data-entity-2="Market WS Broker" data-source-line="33" data-uid="lnk31" id="link_UC_ViewDashboard_Market WS Broker"><path d="M236.12,478.56 C262.67,482.61 287.6387,486.4144 314.2287,490.4744" fill="none" id="UC_ViewDashboard-to-Market WS Broker" style="stroke:#181818;stroke-width:1;"/><polygon fill="#181818" points="320.16,491.38,311.8669,486.0674,315.2173,490.6253,310.6594,493.9757,320.16,491.38" style="stroke:#181818;stroke-width:1;"/></g><!--link UC_ChatAI to Chat SSE Gateway--><g class="link" data-entity-1="UC_ChatAI" data-entity-2="Chat SSE Gateway" data-source-line="34" data-uid="lnk33" id="link_UC_ChatAI_Chat SSE Gateway"><path d="M241.57,604 C262.86,604 280.47,604 302.21,604" fill="none" id="UC_ChatAI-to-Chat SSE Gateway" style="stroke:#181818;stroke-width:1;"/><polygon fill="#181818" points="308.21,604,299.21,600,303.21,604,299.21,608,308.21,604" style="stroke:#181818;stroke-width:1;"/></g><!--link UC_ManagePortfolio to Portfolio API--><g class="link" data-entity-1="UC_ManagePortfolio" data-entity-2="Portfolio API" data-source-line="35" data-uid="lnk35" id="link_UC_ManagePortfolio_Portfolio API"><path d="M236.4,682.9 C266.81,687.69 296.9228,692.4285 325.6828,696.9485" fill="none" id="UC_ManagePortfolio-to-Portfolio API" style="stroke:#181818;stroke-width:1;"/><polygon fill="#181818" points="331.61,697.88,323.3402,692.5312,326.6706,697.1037,322.0981,700.4342,331.61,697.88" style="stroke:#181818;stroke-width:1;"/></g><!--link UC_Autotrade to Trade Engine API--><g class="link" data-entity-1="UC_Autotrade" data-entity-2="Trade Engine API" data-source-line="36" data-uid="lnk37" id="link_UC_Autotrade_Trade Engine API"><path d="M242.73,806 C264.33,806 282.21,806 304.06,806" fill="none" id="UC_Autotrade-to-Trade Engine API" style="stroke:#181818;stroke-width:1;"/><polygon fill="#181818" points="310.06,806,301.06,802,305.06,806,301.06,810,310.06,806" style="stroke:#181818;stroke-width:1;"/></g><!--link UC_Settings to Portfolio API--><g class="link" data-entity-1="UC_Settings" data-entity-2="Portfolio API" data-source-line="37" data-uid="lnk38" id="link_UC_Settings_Portfolio API"><path d="M216.17,733.08 C249.71,727.64 290.5973,721.0099 326.1373,715.2499" fill="none" id="UC_Settings-to-Portfolio API" style="stroke:#181818;stroke-width:1;"/><polygon fill="#181818" points="332.06,714.29,322.536,711.7814,327.1244,715.0899,323.8159,719.6783,332.06,714.29" style="stroke:#181818;stroke-width:1;"/></g><!--link UC_MarketData to Market WS Broker--><g class="link" data-entity-1="UC_MarketData" data-entity-2="Market WS Broker" data-source-line="38" data-uid="lnk39" id="link_UC_MarketData_Market WS Broker"><path d="M226.4,527.92 C255.65,522.9 286.1865,517.6554 316.5865,512.4354" fill="none" id="UC_MarketData-to-Market WS Broker" style="stroke:#181818;stroke-width:1;"/><polygon fill="#181818" points="322.5,511.42,312.9529,509.0008,317.5721,512.2662,314.3068,516.8854,322.5,511.42" style="stroke:#181818;stroke-width:1;"/></g><!--link UC_Tutorial to Tutorial API--><g class="link" data-entity-1="UC_Tutorial" data-entity-2="Tutorial API" data-source-line="39" data-uid="lnk41" id="link_UC_Tutorial_Tutorial API"><path d="M236.69,873 C264.79,873 291.66,873 319.14,873" fill="none" id="UC_Tutorial-to-Tutorial API" style="stroke:#181818;stroke-width:1;"/><polygon fill="#181818" points="325.14,873,316.14,869,320.14,873,316.14,877,325.14,873" style="stroke:#181818;stroke-width:1;"/></g><g class="legend" data-source-line="41"><rect fill="#DDDDDD" height="59.4648" rx="7.5" ry="7.5" style="stroke:#000000;stroke-width:1;" width="169.6268" x="270.2042" y="921"/><text fill="#000000" font-family="sans-serif" font-size="14" lengthAdjust="spacing" text-decoration="underline" textLength="24.22" x="275.2042" y="939.5352">&#49892;&#49440;</text><text fill="#000000" font-family="sans-serif" font-size="14" lengthAdjust="spacing" textLength="111.3306" x="299.4242" y="939.5352">: &#54788;&#51116; &#44396;&#54788; (As-Is)</text><text fill="#000000" font-family="sans-serif" font-size="14" lengthAdjust="spacing" textLength="158.6082" x="275.2042" y="956.0234">..&#51216;&#49440;..: &#54693;&#54980; &#44228;&#54925; (To-Be)</text><text fill="#000000" font-family="sans-serif" font-size="14" lengthAdjust="spacing" textLength="159.6268" x="275.2042" y="972.5117">&#171;planned&#187;: &#44060;&#49440; &#50696;&#51221; &#54637;&#47785;</text></g><!--SRC=[VLHRInj157xVNt7mIHyItqM4QBK8bGhH-XYcoIHPN7RBxgX8APIoMkkbMgfsjKbO8Lv98M9ijs3_qCxCV-ZPNHCpAmeBEtFc-yxbctF6e6K6p09RhrGPb7IR5fbkcHefCik6UOVQMcGYPiMWC6LR9gDc2OW3KvFmNWDOScYHE1Jc9mglh8fkHaS3_AGM_Wb4FHWMRY3MF7bqmC_-3QZmDpfTUK6SwbkBsAM4jlrHRDNuJOT_hu7OQk8cRBk0XZ1efzWJLS9oqp4DV-Bw1-zy1dGWZ_O7y_d9eHHyXfYaGcSjcvKjGxTYdjnjoSr0xdRuMKjuJH0dRNcyFIo_1kByMugVMs8Miqc9napHsEExH_oyYHy8t-MDMmXlMyAzJj7ob37Th3W9wrDB75yY5uJR5Fv12Zk78MoT60dMkuXqsBy4kLcJwtwKuk7TewBiHSfU44OIpbPDD4w1xxH5lIFTzdr14KdblIwN3TsaCrQt7AyfzrrUlyCR0tvrWV8FmEZeEuEO9YsDZQdisOLSp8h-KI5_lMV0kT8oCOkqb3E9iShqOg94UEE7mHVWlrtXrfzXvwqY2ZA7kgE8IQhhssAjXg84tD_0Cb4XbVz1qwAcXKnchDUJYaLfE-KaQId5b6eRvQpN4egrU-EAiNkrAT_TsrFCVPUZs55kDNnQMJMDVkLGakvqHiU3c7aLyjHUrejqI7iqYZ4coGuMyZ1kMulKZd7tGnS3eZNWfC5BmkWAMOq1wJ6BaG_RtEnq37kOfXWm5oydJKoGzZ2zqNd2Hr_pFvrmRwQIEDrTx4CpQ2Lwo-AN3_kkK8YU7DSl54P0UgvejAAPnXKAvcIcdI74PBF2tqDCDekOmrFvquNmnfN7E-ZSoepJ2DFNZICGjci81-5juC23FFZ5hourZ9h4_Wy0]--></g></svg>