<svg xmlns="http://www.w3.org/2000/svg" xmlns:xlink="http://www.w3.org/1999/xlink" contentStyleType="text/css" data-diagram-type="DESCRIPTION" height="639px" preserveAspectRatio="none" style="width:537px;height:639px;background:#FFFFFF;" version="1.1" viewBox="0 0 537 639" width="537px" zoomAndPan="magnify"><defs/><g><!--cluster FE--><g class="cluster" data-entity="FE" data-source-line="3" data-uid="ent0003" id="cluster_FE"><rect fill="none" height="626" rx="2.5" ry="2.5" style="stroke:#181818;stroke-width:1;" width="256.11" x="80.37" y="7"/><text fill="#000000" font-family="sans-serif" font-size="14" font-weight="bold" lengthAdjust="spacing" textLength="64.8867" x="175.9816" y="22.5352">Frontend</text></g><!--entity UC_Login--><g class="entity" data-entity="UC_Login" data-source-line="4" data-uid="ent0004" id="entity_UC_Login"><ellipse cx="208.4206" cy="66.0041" fill="#F1F1F1" rx="109.0706" ry="24.2141" style="stroke:#181818;stroke-width:0.5;"/><text fill="#000000" font-family="sans-serif" font-size="14" lengthAdjust="spacing" textLength="195.4668" x="110.6872" y="70.7483">Login/Session Establishment</text></g><!--entity UC_ViewDashboard--><g class="entity" data-entity="UC_ViewDashboard" data-source-line="5" data-uid="ent0005" id="entity_UC_ViewDashboard"><ellipse cx="208.4212" cy="148.0042" fill="#F1F1F1" rx="102.4712" ry="22.8942" style="stroke:#181818;stroke-width:0.5;"/><text fill="#000000" font-family="sans-serif" font-size="14" lengthAdjust="spacing" textLength="181.0566" x="117.8929" y="152.7484">Dashboard Real-time View</text></g><!--entity UC_ChatAI--><g class="entity" data-entity="UC_ChatAI" data-source-line="6" data-uid="ent0006" id="entity_UC_ChatAI"><ellipse cx="208.4171" cy="300.0014" fill="#F1F1F1" rx="112.0571" ry="24.8114" style="stroke:#181818;stroke-width:0.5;"/><text fill="#000000" font-family="sans-serif" font-size="14" lengthAdjust="spacing" textLength="201.9336" x="107.4503" y="304.7456">AI Chatbot Conversation (SSE)</text></g><!--entity UC_ManagePortfolio--><g class="entity" data-entity="UC_ManagePortfolio" data-source-line="7" data-uid="ent0007" id="entity_UC_ManagePortfolio"><ellipse cx="208.4194" cy="377.9999" fill="#F1F1F1" rx="78.6994" ry="18.1399" style="stroke:#181818;stroke-width:0.5;"/><text fill="#000000" font-family="sans-serif" font-size="14" lengthAdjust="spacing" textLength="126.9844" x="144.9272" y="382.744">Portfolio View/Edit</text></g><!--entity UC_Autotrade--><g class="entity" data-entity="UC_Autotrade" data-source-line="8" data-uid="ent0008" id="entity_UC_Autotrade"><ellipse cx="208.4199" cy="520" fill="#F1F1F1" rx="107.2499" ry="23.85" style="stroke:#181818;stroke-width:0.5;"/><text fill="#000000" font-family="sans-serif" font-size="14" lengthAdjust="spacing" textLength="191.5088" x="112.6655" y="524.7441">Auto-trading Strategy Setup</text></g><!--entity UC_Settings--><g class="entity" data-entity="UC_Settings" data-source-line="9" data-uid="ent0009" id="entity_UC_Settings"><ellipse cx="208.4247" cy="445.9969" fill="#F1F1F1" rx="63.7347" ry="15.1469" style="stroke:#181818;stroke-width:0.5;"/><text fill="#000000" font-family="sans-serif" font-size="14" lengthAdjust="spacing" textLength="89.209" x="163.8202" y="450.7411">User Settings</text></g><!--entity UC_Tutorial--><g class="entity" data-entity="UC_Tutorial" data-source-line="10" data-uid="ent0010" id="entity_UC_Tutorial"><ellipse cx="208.4161" cy="598.0012" fill="#F1F1F1" rx="83.4061" ry="19.0812" style="stroke:#181818;stroke-width:0.5;"/><text fill="#000000" font-family="sans-serif" font-size="14" lengthAdjust="spacing" textLength="138.0723" x="139.3799" y="602.7454">Onboarding Tutorial</text></g><!--entity UC_MarketData--><g class="entity" data-entity="UC_MarketData" data-source-line="11" data-uid="ent0011" id="entity_UC_MarketData"><ellipse cx="208.4168" cy="223.0014" fill="#F1F1F1" rx="75.2068" ry="17.4414" style="stroke:#181818;stroke-width:0.5;"/><text fill="#000000" font-family="sans-serif" font-size="14" lengthAdjust="spacing" textLength="118.5693" x="149.1321" y="227.7455">Market Data View</text></g><!--entity User--><g class="entity" data-entity="User" data-source-line="2" data-uid="ent0002" id="entity_User"><ellipse cx="21.1826" cy="309.26" fill="#F1F1F1" rx="8" ry="8" style="stroke:#181818;stroke-width:0.5;"/><path d="M21.1826,317.26 L21.1826,344.26 M8.1826,325.26 L34.1826,325.26 M21.1826,344.26 L8.1826,359.26 M21.1826,344.26 L34.1826,359.26" fill="none" style="stroke:#181818;stroke-width:0.5;"/><text fill="#000000" font-family="sans-serif" font-size="14" lengthAdjust="spacing" textLength="30.3652" x="6" y="374.2952">User</text></g><!--entity Auth Service--><g class="entity" data-entity="Auth Service" data-source-line="23" data-uid="ent0020" id="entity_Auth Service"><ellipse cx="456.1007" cy="66.0021" fill="#F1F1F1" rx="61.8607" ry="14.7721" style="stroke:#181818;stroke-width:0.5;"/><text fill="#000000" font-family="sans-serif" font-size="14" lengthAdjust="spacing" textLength="84.0342" x="414.0836" y="70.7463">Auth Service</text></g><!--entity Market WS Broker--><g class="entity" data-entity="Market WS Broker" data-source-line="24" data-uid="ent0022" id="entity_Market WS Broker"><ellipse cx="456.098" cy="186.0036" fill="#F1F1F1" rx="75.468" ry="17.4936" style="stroke:#181818;stroke-width:0.5;"/><text fill="#000000" font-family="sans-serif" font-size="14" lengthAdjust="spacing" textLength="119.2051" x="396.4954" y="190.7477">Market WS Broker</text></g><!--entity Chat SSE Gateway--><g class="entity" data-entity="Chat SSE Gateway" data-source-line="25" data-uid="ent0024" id="entity_Chat SSE Gateway"><ellipse cx="456.0955" cy="299.9951" fill="#F1F1F1" rx="75.6255" ry="17.5251" style="stroke:#181818;stroke-width:0.5;"/><text fill="#000000" font-family="sans-serif" font-size="14" lengthAdjust="spacing" textLength="119.5879" x="396.3015" y="304.7392">Chat SSE Gateway</text></g><!--entity Portfolio API--><g class="entity" data-entity="Portfolio API" data-source-line="26" data-uid="ent0026" id="entity_Portfolio API"><ellipse cx="456.0972" cy="412.0014" fill="#F1F1F1" rx="61.7072" ry="14.7414" style="stroke:#181818;stroke-width:0.5;"/><text fill="#000000" font-family="sans-serif" font-size="14" lengthAdjust="spacing" textLength="83.6035" x="414.2954" y="416.7456">Portfolio API</text></g><!--entity Trade Engine API--><g class="entity" data-entity="Trade Engine API" data-source-line="27" data-uid="ent0028" id="entity_Trade Engine API"><ellipse cx="456.0993" cy="519.9999" fill="#F1F1F1" rx="73.6493" ry="17.1299" style="stroke:#181818;stroke-width:0.5;"/><text fill="#000000" font-family="sans-serif" font-size="14" lengthAdjust="spacing" textLength="114.7549" x="398.7218" y="524.744">Trade Engine API</text></g><!--entity Tutorial API--><g class="entity" data-entity="Tutorial API" data-source-line="30" data-uid="ent0032" id="entity_Tutorial API"><ellipse cx="456.1037" cy="597.999" fill="#F1F1F1" rx="58.7137" ry="14.659" style="stroke:#181818;stroke-width:0.5;"/><text fill="#000000" font-family="sans-serif" font-size="14" lengthAdjust="spacing" textLength="78.791" x="416.7082" y="602.7431">Tutorial API</text></g><!--link User to UC_Login--><g class="link" data-entity-1="User" data-entity-2="UC_Login" data-source-line="14" data-uid="lnk12" id="link_User_UC_Login"><path d="M25.86,300.59 C32.18,242.41 46.93,135.77 72.37,108 C84.39,94.87 94.8146,87.8969 111.6346,81.6569" fill="none" id="User-to-UC_Login" style="stroke:#181818;stroke-width:1;"/><polygon fill="#181818" points="117.26,79.57,107.4307,78.9502,112.5722,81.3091,110.2132,86.4506,117.26,79.57" style="stroke:#181818;stroke-width:1;"/></g><!--link User to UC_ViewDashboard--><g class="link" data-entity-1="User" data-entity-2="UC_ViewDashboard" data-source-line="15" data-uid="lnk13" id="link_User_UC_ViewDashboard"><path d="M25.17,300.28 C29.84,266.22 41.79,217.58 72.37,188 C85.81,174.99 97.5876,168.0864 115.4776,162.1264" fill="none" id="User-to-UC_ViewDashboard" style="stroke:#181818;stroke-width:1;"/><polygon fill="#181818" points="121.17,160.23,111.3671,159.2797,116.4263,161.8103,113.8956,166.8696,121.17,160.23" style="stroke:#181818;stroke-width:1;"/></g><!--link User to UC_ChatAI--><g class="link" data-entity-1="User" data-entity-2="UC_ChatAI" data-source-line="16" data-uid="lnk14" id="link_User_UC_ChatAI"><path d="M36.72,335.94 C56.16,331.85 86.2686,325.5055 120.1986,318.3655" fill="none" id="User-to-UC_ChatAI" style="stroke:#181818;stroke-width:1;"/><polygon fill="#181818" points="126.07,317.13,116.4392,315.069,121.1772,318.1596,118.0866,322.8976,126.07,317.13" style="stroke:#181818;stroke-width:1;"/></g><!--link User to UC_ManagePortfolio--><g class="link" data-entity-1="User" data-entity-2="UC_ManagePortfolio" data-source-line="17" data-uid="lnk15" id="link_User_UC_ManagePortfolio"><path d="M36.72,342.06 C60.68,347.11 103.8888,356.2035 143.2988,364.5035" fill="none" id="User-to-UC_ManagePortfolio" style="stroke:#181818;stroke-width:1;"/><polygon fill="#181818" points="149.17,365.74,141.1875,359.9711,144.2773,364.7096,139.5389,367.7994,149.17,365.74" style="stroke:#181818;stroke-width:1;"/></g><!--link User to UC_Autotrade--><g class="link" data-entity-1="User" data-entity-2="UC_Autotrade" data-source-line="18" data-uid="lnk16" id="link_User_UC_Autotrade"><path d="M26.49,377.71 C31.99,409.11 44.4,452.39 72.37,479 C85.5,491.5 96.6671,498.2173 113.9471,504.2673" fill="none" id="User-to-UC_Autotrade" style="stroke:#181818;stroke-width:1;"/><polygon fill="#181818" points="119.61,506.25,112.4374,499.5007,114.8909,504.5978,109.7938,507.0513,119.61,506.25" style="stroke:#181818;stroke-width:1;"/></g><!--link User to UC_Settings--><g class="link" data-entity-1="User" data-entity-2="UC_Settings" data-source-line="19" data-uid="lnk17" id="link_User_UC_Settings"><path d="M36.76,371.31 C45.13,386.41 57.05,403.37 72.37,414 C94.24,429.19 116.4749,436.2144 141.4149,440.4544" fill="none" id="User-to-UC_Settings" style="stroke:#181818;stroke-width:1;"/><polygon fill="#181818" points="147.33,441.46,139.1277,436.0082,142.4007,440.622,137.7869,443.895,147.33,441.46" style="stroke:#181818;stroke-width:1;"/></g><!--link User to UC_Tutorial--><g class="link" data-entity-1="User" data-entity-2="UC_Tutorial" data-source-line="20" data-uid="lnk18" id="link_User_UC_Tutorial"><path d="M26.11,377.41 C32.64,433.77 47.52,535.01 72.37,561 C87.48,576.82 102.8545,584.6134 123.9645,589.9734" fill="none" id="User-to-UC_Tutorial" style="stroke:#181818;stroke-width:1;"/><polygon fill="#181818" points="129.78,591.45,122.0412,585.3581,124.9338,590.2195,120.0724,593.1121,129.78,591.45" style="stroke:#181818;stroke-width:1;"/></g><!--link User to UC_MarketData--><g class="link" data-entity-1="User" data-entity-2="UC_MarketData" data-source-line="21" data-uid="lnk19" id="link_User_UC_MarketData"><path d="M36.72,303.44 C44.96,287.38 56.78,269.48 72.37,258 C91.77,243.71 110.6282,236.5205 133.6082,231.5005" fill="none" id="User-to-UC_MarketData" style="stroke:#181818;stroke-width:1;"/><polygon fill="#181818" points="139.47,230.22,129.8237,228.2329,134.5852,231.2871,131.531,236.0486,139.47,230.22" style="stroke:#181818;stroke-width:1;"/></g><!--link UC_Login to Auth Service--><g class="link" data-entity-1="UC_Login" data-entity-2="Auth Service" data-source-line="23" data-uid="lnk21" id="link_UC_Login_Auth Service"><path d="M317.9,66 C343.99,66 364.96,66 388.01,66" fill="none" id="UC_Login-to-Auth Service" style="stroke:#181818;stroke-width:1;"/><polygon fill="#181818" points="394.01,66,385.01,62,389.01,66,385.01,70,394.01,66" style="stroke:#181818;stroke-width:1;"/></g><!--link UC_ViewDashboard to Market WS Broker--><g class="link" data-entity-1="UC_ViewDashboard" data-entity-2="Market WS Broker" data-source-line="24" data-uid="lnk23" id="link_UC_ViewDashboard_Market WS Broker"><path d="M293.63,161.02 C325.99,166.03 356.4105,170.7332 386.4205,175.3732" fill="none" id="UC_ViewDashboard-to-Market WS Broker" style="stroke:#181818;stroke-width:1;"/><polygon fill="#181818" points="392.35,176.29,384.0669,170.9618,387.4087,175.526,382.8445,178.8678,392.35,176.29" style="stroke:#181818;stroke-width:1;"/></g><!--link UC_ChatAI to Chat SSE Gateway--><g class="link" data-entity-1="UC_ChatAI" data-entity-2="Chat SSE Gateway" data-source-line="25" data-uid="lnk25" id="link_UC_ChatAI_Chat SSE Gateway"><path d="M320.76,300 C340.82,300 355.29,300 374.02,300" fill="none" id="UC_ChatAI-to-Chat SSE Gateway" style="stroke:#181818;stroke-width:1;"/><polygon fill="#181818" points="380.02,300,371.02,296,375.02,300,371.02,304,380.02,300" style="stroke:#181818;stroke-width:1;"/></g><!--link UC_ManagePortfolio to Portfolio API--><g class="link" data-entity-1="UC_ManagePortfolio" data-entity-2="Portfolio API" data-source-line="26" data-uid="lnk27" id="link_UC_ManagePortfolio_Portfolio API"><path d="M276.88,387.34 C316.23,392.78 359.2267,398.7274 395.8567,403.7974" fill="none" id="UC_ManagePortfolio-to-Portfolio API" style="stroke:#181818;stroke-width:1;"/><polygon fill="#181818" points="401.8,404.62,393.4334,399.4238,396.8472,403.9345,392.3366,407.3483,401.8,404.62" style="stroke:#181818;stroke-width:1;"/></g><!--link UC_Autotrade to Trade Engine API--><g class="link" data-entity-1="UC_Autotrade" data-entity-2="Trade Engine API" data-source-line="27" data-uid="lnk29" id="link_UC_Autotrade_Trade Engine API"><path d="M316.11,520 C338.38,520 355.38,520 376.1,520" fill="none" id="UC_Autotrade-to-Trade Engine API" style="stroke:#181818;stroke-width:1;"/><polygon fill="#181818" points="382.1,520,373.1,516,377.1,520,373.1,524,382.1,520" style="stroke:#181818;stroke-width:1;"/></g><!--link UC_Settings to Portfolio API--><g class="link" data-entity-1="UC_Settings" data-entity-2="Portfolio API" data-source-line="28" data-uid="lnk30" id="link_UC_Settings_Portfolio API"><path d="M264.25,438.41 C305.26,432.74 355.1067,425.8429 395.7667,420.2129" fill="none" id="UC_Settings-to-Portfolio API" style="stroke:#181818;stroke-width:1;"/><polygon fill="#181818" points="401.71,419.39,392.2464,416.6622,396.7573,420.0758,393.3437,424.5866,401.71,419.39" style="stroke:#181818;stroke-width:1;"/></g><!--link UC_MarketData to Market WS Broker--><g class="link" data-entity-1="UC_MarketData" data-entity-2="Market WS Broker" data-source-line="29" data-uid="lnk31" id="link_UC_MarketData_Market WS Broker"><path d="M272.37,213.52 C309.05,208 349.2369,201.9435 385.9569,196.4135" fill="none" id="UC_MarketData-to-Market WS Broker" style="stroke:#181818;stroke-width:1;"/><polygon fill="#181818" points="391.89,195.52,382.3947,192.9049,386.9458,196.2646,383.586,200.8157,391.89,195.52" style="stroke:#181818;stroke-width:1;"/></g><!--link UC_Tutorial to Tutorial API--><g class="link" data-entity-1="UC_Tutorial" data-entity-2="Tutorial API" data-source-line="30" data-uid="lnk33" id="link_UC_Tutorial_Tutorial API"><path d="M292.26,598 C326.67,598 359.77,598 391.04,598" fill="none" id="UC_Tutorial-to-Tutorial API" style="stroke:#181818;stroke-width:1;"/><polygon fill="#181818" points="397.04,598,388.04,594,392.04,598,388.04,602,397.04,598" style="stroke:#181818;stroke-width:1;"/></g><!--SRC=[TL9DRy8m3BttLrYSu53j7qnYK2QaJKChRCV9jAQDACcK612Qzj-NkBHTYpWbptv-_gneny06h2fAXbnPobWP7M76niB6aOs22NLH4IoiqKmw1tImIE0d0ZWwoj0HR6PVBwPGEhX6ydj8oJal1ObZt5RAbGVIFEh7V2Wwpz6LMuDMP4STUYUiObO7Wi0Q1CvAvEbI8lmJqDOmp8m-aNKOMe1ncYQJGTWhQYnePIplJAMCn7Sev7b8SZMiSdfamnPpglDv50UeT06f_p0L5qY9Zz-3E6zZJt8I5cO9ZML0N7j9gx0IufkM_eDwOx_fmkw9vyWe0JK4mVMeVgD8qiNnOxkPdgKtzvwd7cpFD1XQpzUEfcTjskmPcsO6saqhlkJcXe9lx9LBFozxKXbDefjR4SwryyyKdgpPanNUzJI44FxWxm2U_PREU172y0Y4sS7fQYcqRkj2MCitqRv0QZdjXkze_DlK_OBRxTTv6XGq_W00]--></g></svg>