<svg xmlns="http://www.w3.org/2000/svg" xmlns:xlink="http://www.w3.org/1999/xlink" contentStyleType="text/css" data-diagram-type="SEQUENCE" height="475px" preserveAspectRatio="none" style="width:726px;height:475px;background:#FFFFFF;" version="1.1" viewBox="0 0 726 475" width="726px" zoomAndPan="magnify"><defs/><g><g><title>User</title><rect fill="#000000" fill-opacity="0.00000" height="313.1055" width="8" x="19.1826" y="81.4883"/><line style="stroke:#181818;stroke-width:0.5;stroke-dasharray:5,5;" x1="23" x2="23" y1="81.4883" y2="394.5938"/></g><g><title>Dashboard</title><rect fill="#000000" fill-opacity="0.00000" height="313.1055" width="8" x="103.5209" y="81.4883"/><line style="stroke:#181818;stroke-width:0.5;stroke-dasharray:5,5;" x1="106.6581" x2="106.6581" y1="81.4883" y2="394.5938"/></g><g><title>NasdaqStocksStore</title><rect fill="#000000" fill-opacity="0.00000" height="313.1055" width="8" x="325.7011" y="81.4883"/><line style="stroke:#181818;stroke-width:0.5;stroke-dasharray:5,5;" x1="329.0331" x2="329.0331" y1="81.4883" y2="394.5938"/></g><g><title>WSClient</title><rect fill="#000000" fill-opacity="0.00000" height="313.1055" width="8" x="480.3485" y="81.4883"/><line style="stroke:#181818;stroke-width:0.5;stroke-dasharray:5,5;" x1="483.8378" x2="483.8378" y1="81.4883" y2="394.5938"/></g><g><title>Broker</title><rect fill="#000000" fill-opacity="0.00000" height="313.1055" width="8" x="686.9579" y="81.4883"/><line style="stroke:#181818;stroke-width:0.5;stroke-dasharray:5,5;" x1="690.912" x2="690.912" y1="81.4883" y2="394.5938"/></g><g class="participant participant-head" data-participant="User"><text fill="#000000" font-family="sans-serif" font-size="14" lengthAdjust="spacing" textLength="30.3652" x="5" y="78.5352">User</text><ellipse cx="23.1826" cy="13.5" fill="#E2E2F0" rx="8" ry="8" style="stroke:#181818;stroke-width:0.5;"/><path d="M23.1826,21.5 L23.1826,48.5 M10.1826,29.5 L36.1826,29.5 M23.1826,48.5 L10.1826,63.5 M23.1826,48.5 L36.1826,63.5" fill="none" style="stroke:#181818;stroke-width:0.5;"/></g><g class="participant participant-tail" data-participant="User"><text fill="#000000" font-family="sans-serif" font-size="14" lengthAdjust="spacing" textLength="30.3652" x="5" y="407.1289">User</text><ellipse cx="23.1826" cy="418.582" fill="#E2E2F0" rx="8" ry="8" style="stroke:#181818;stroke-width:0.5;"/><path d="M23.1826,426.582 L23.1826,453.582 M10.1826,434.582 L36.1826,434.582 M23.1826,453.582 L10.1826,468.582 M23.1826,453.582 L36.1826,468.582" fill="none" style="stroke:#181818;stroke-width:0.5;"/></g><g class="participant participant-head" data-participant="Dashboard"><rect fill="#E2E2F0" height="30.4883" rx="2.5" ry="2.5" style="stroke:#181818;stroke-width:0.5;" width="87.7256" x="63.6581" y="50"/><text fill="#000000" font-family="sans-serif" font-size="14" lengthAdjust="spacing" textLength="73.7256" x="70.6581" y="70.5352">Dashboard</text></g><g class="participant participant-tail" data-participant="Dashboard"><rect fill="#E2E2F0" height="30.4883" rx="2.5" ry="2.5" style="stroke:#181818;stroke-width:0.5;" width="87.7256" x="63.6581" y="393.5938"/><text fill="#000000" font-family="sans-serif" font-size="14" lengthAdjust="spacing" textLength="73.7256" x="70.6581" y="414.1289">Dashboard</text></g><g class="participant participant-head" data-participant="Store"><rect fill="#E2E2F0" height="30.4883" rx="2.5" ry="2.5" style="stroke:#181818;stroke-width:0.5;" width="143.3359" x="258.0331" y="50"/><text fill="#000000" font-family="sans-serif" font-size="14" lengthAdjust="spacing" textLength="129.3359" x="265.0331" y="70.5352">NasdaqStocksStore</text></g><g class="participant participant-tail" data-participant="Store"><rect fill="#E2E2F0" height="30.4883" rx="2.5" ry="2.5" style="stroke:#181818;stroke-width:0.5;" width="143.3359" x="258.0331" y="393.5938"/><text fill="#000000" font-family="sans-serif" font-size="14" lengthAdjust="spacing" textLength="129.3359" x="265.0331" y="414.1289">NasdaqStocksStore</text></g><g class="participant participant-head" data-participant="WS"><rect fill="#E2E2F0" height="30.4883" rx="2.5" ry="2.5" style="stroke:#181818;stroke-width:0.5;" width="73.0215" x="447.8378" y="50"/><text fill="#000000" font-family="sans-serif" font-size="14" lengthAdjust="spacing" textLength="59.0215" x="454.8378" y="70.5352">WSClient</text></g><g class="participant participant-tail" data-participant="WS"><rect fill="#E2E2F0" height="30.4883" rx="2.5" ry="2.5" style="stroke:#181818;stroke-width:0.5;" width="73.0215" x="447.8378" y="393.5938"/><text fill="#000000" font-family="sans-serif" font-size="14" lengthAdjust="spacing" textLength="59.0215" x="454.8378" y="414.1289">WSClient</text></g><g class="participant participant-head" data-participant="MWS"><rect fill="#E2E2F0" height="30.4883" rx="2.5" ry="2.5" style="stroke:#181818;stroke-width:0.5;" width="58.0918" x="661.912" y="50"/><text fill="#000000" font-family="sans-serif" font-size="14" lengthAdjust="spacing" textLength="44.0918" x="668.912" y="70.5352">Broker</text></g><g class="participant participant-tail" data-participant="MWS"><rect fill="#E2E2F0" height="30.4883" rx="2.5" ry="2.5" style="stroke:#181818;stroke-width:0.5;" width="58.0918" x="661.912" y="393.5938"/><text fill="#000000" font-family="sans-serif" font-size="14" lengthAdjust="spacing" textLength="44.0918" x="668.912" y="414.1289">Broker</text></g><g class="message" data-participant-1="User" data-participant-2="Dashboard"><polygon fill="#181818" points="95.5209,108.7988,105.5209,112.7988,95.5209,116.7988,99.5209,112.7988" style="stroke:#181818;stroke-width:1;"/><line style="stroke:#181818;stroke-width:1;" x1="23.1826" x2="101.5209" y1="112.7988" y2="112.7988"/><text fill="#000000" font-family="sans-serif" font-size="13" lengthAdjust="spacing" textLength="60.3383" x="30.1826" y="108.0566">&#54168;&#51060;&#51648; &#51652;&#51077;</text></g><g class="message" data-participant-1="Dashboard" data-participant-2="Store"><polygon fill="#181818" points="317.7011,138.1094,327.7011,142.1094,317.7011,146.1094,321.7011,142.1094" style="stroke:#181818;stroke-width:1;"/><line style="stroke:#181818;stroke-width:1;" x1="107.5209" x2="323.7011" y1="142.1094" y2="142.1094"/><text fill="#000000" font-family="sans-serif" font-size="13" lengthAdjust="spacing" textLength="46.6489" x="114.5209" y="137.3672">initWs()</text></g><g class="message" data-participant-1="Store" data-participant-2="WS"><polygon fill="#181818" points="472.3485,167.4199,482.3485,171.4199,472.3485,175.4199,476.3485,171.4199" style="stroke:#181818;stroke-width:1;"/><line style="stroke:#181818;stroke-width:1;" x1="329.7011" x2="478.3485" y1="171.4199" y2="171.4199"/><text fill="#000000" font-family="sans-serif" font-size="13" lengthAdjust="spacing" textLength="106.7803" x="336.7011" y="166.6777">connect(WS_URL)</text></g><g class="message" data-participant-1="WS" data-participant-2="MWS"><polygon fill="#181818" points="678.9579,196.7305,688.9579,200.7305,678.9579,204.7305,682.9579,200.7305" style="stroke:#181818;stroke-width:1;"/><line style="stroke:#181818;stroke-width:1;" x1="484.3485" x2="684.9579" y1="200.7305" y2="200.7305"/><text fill="#000000" font-family="sans-serif" font-size="13" lengthAdjust="spacing" textLength="91.9331" x="491.3485" y="195.9883">WS Handshake</text></g><g class="message" data-participant-1="MWS" data-participant-2="WS"><polygon fill="#181818" points="495.3485,226.041,485.3485,230.041,495.3485,234.041,491.3485,230.041" style="stroke:#181818;stroke-width:1;"/><line style="stroke:#181818;stroke-width:1;stroke-dasharray:2,2;" x1="489.3485" x2="689.9579" y1="230.041" y2="230.041"/><text fill="#000000" font-family="sans-serif" font-size="13" lengthAdjust="spacing" textLength="151.5503" x="501.3485" y="225.2988">101 Switching Protocols</text></g><g class="message" data-participant-1="Dashboard" data-participant-2="Store"><polygon fill="#181818" points="317.7011,255.3516,327.7011,259.3516,317.7011,263.3516,321.7011,259.3516" style="stroke:#181818;stroke-width:1;"/><line style="stroke:#181818;stroke-width:1;" x1="107.5209" x2="323.7011" y1="259.3516" y2="259.3516"/><text fill="#000000" font-family="sans-serif" font-size="13" lengthAdjust="spacing" textLength="198.1802" x="114.5209" y="254.6094">addSymbol([INDEX..., PORTF...])</text></g><g class="message" data-participant-1="Store" data-participant-2="WS"><polygon fill="#181818" points="472.3485,284.6621,482.3485,288.6621,472.3485,292.6621,476.3485,288.6621" style="stroke:#181818;stroke-width:1;"/><line style="stroke:#181818;stroke-width:1;" x1="329.7011" x2="478.3485" y1="288.6621" y2="288.6621"/><text fill="#000000" font-family="sans-serif" font-size="13" lengthAdjust="spacing" textLength="130.6475" x="336.7011" y="283.9199">SUBSCRIBE {symbols}</text></g><g class="message" data-participant-1="MWS" data-participant-2="WS"><polygon fill="#181818" points="495.3485,313.9727,485.3485,317.9727,495.3485,321.9727,491.3485,317.9727" style="stroke:#181818;stroke-width:1;"/><line style="stroke:#181818;stroke-width:1;stroke-dasharray:2,2;" x1="489.3485" x2="689.9579" y1="317.9727" y2="317.9727"/><text fill="#000000" font-family="sans-serif" font-size="13" lengthAdjust="spacing" textLength="182.6094" x="501.3485" y="313.2305">TICK {sym, price, ts} (stream)</text></g><g class="message" data-participant-1="WS" data-participant-2="Store"><polygon fill="#181818" points="340.7011,343.2832,330.7011,347.2832,340.7011,351.2832,336.7011,347.2832" style="stroke:#181818;stroke-width:1;"/><line style="stroke:#181818;stroke-width:1;stroke-dasharray:2,2;" x1="334.7011" x2="483.3485" y1="347.2832" y2="347.2832"/><text fill="#000000" font-family="sans-serif" font-size="13" lengthAdjust="spacing" textLength="109.1162" x="346.7011" y="342.541">onmessage(TICK)</text></g><g class="message" data-participant-1="Store" data-participant-2="Dashboard"><polygon fill="#181818" points="118.5209,372.5938,108.5209,376.5938,118.5209,380.5938,114.5209,376.5938" style="stroke:#181818;stroke-width:1;"/><line style="stroke:#181818;stroke-width:1;" x1="112.5209" x2="328.7011" y1="376.5938" y2="376.5938"/><text fill="#000000" font-family="sans-serif" font-size="13" lengthAdjust="spacing" textLength="137.3252" x="124.5209" y="371.8516">setState(price update)</text></g><!--SRC=[RP2nJiCm48RtFCMDYLGgkdPWQ5f412rLtIX82A6hOpLMMpluZ112bHXWPMQ1jI_GnmhlW9qYsY0MwxU_Etzd8xVQG4h212KQAxaiKLde8nKpZIPld8wGShnZLlC5kTK8G88wDCeo5Y-bSC7HZ3LGp-Y5C1uC7Gcy5uvEzhekVBszLn_RQlCCrUQb-dmDVfalh6LTa4hQZC8es4tXGCQwmBLIWjimOxVfv28ACkR9q2CNpr3bLE1214CFVdewnnrW3zBoGgevZ8rsZzDB-jUAUSuULpEz3A-JKNzmrMwtMp2-d4nFNRhvCmnBUooU9Bq1F57THEk6U9h4vpLgGMaa5osmj8QGh16usis-Dskr4aGu5w5lEp0TV1m9oonQ4TRNmNsPkqtq3G00]--></g></svg>